<?xml version="1.0" standalone="no"?>
<!DOCTYPE svg PUBLIC "-//W3C//DTD SVG 1.1//EN" "http://www.w3.org/Graphics/SVG/1.1/DTD/svg11.dtd" >
<svg xmlns="http://www.w3.org/2000/svg">
<metadata></metadata>
<defs>
<font id="written2medium" horiz-adv-x="20" >
<font-face units-per-em="2048" ascent="1638" descent="-410" />
<missing-glyph horiz-adv-x="860" />
<glyph horiz-adv-x="2048" />
<glyph horiz-adv-x="2048" />
<glyph unicode="&#xd;" horiz-adv-x="681" />
<glyph unicode=" "  horiz-adv-x="860" />
<glyph unicode="&#x09;" horiz-adv-x="860" />
<glyph unicode="&#xa0;" horiz-adv-x="860" />
<glyph unicode="!" horiz-adv-x="460" d="M35 90q12 25 32.5 27t36 -19.5t15.5 -56.5t-18.5 -45t-51.5 6q-47 27 -14 88zM93 313.5q1 18.5 16 77.5l41 152q12 45 72.5 215t119.5 368q23 79 35 97q18 20 36.5 17t24.5 -28q12 -35 -26.5 -140t-103 -272t-95.5 -294q-18 -70 -23.5 -122t-3.5 -68.5t-2 -24.5t-24 -17 q-33 -12 -54 9q-14 12 -13 30.5z" />
<glyph unicode="#" horiz-adv-x="788" d="M20 532q0 53 119 54q98 0 111 78q4 23 -24.5 35t-61.5 11t-53 -3q-41 -8 -69 18.5t-7 52.5q12 12 38.5 16.5t94.5 2.5l113 -4l18 63q10 41 27 131q25 141 51 152q16 6 39 -17q14 -16 13 -38.5t-23 -108.5q-39 -154 -29 -172q6 -12 39 -15q47 -6 66.5 13.5t27.5 79.5 q10 68 40 153.5t50 108.5q33 37 53 22q6 -4 6 -14q0 -8 -37.5 -144.5t-37.5 -185.5q-2 -14 69 -22q43 -4 58.5 -11.5t17.5 -25.5q4 -35 -18.5 -47.5t-63.5 0.5q-49 14 -84 -8q-33 -23 -26 -54q4 -18 26 -12q18 8 111 8q68 0 81 -4t13 -30.5t-16.5 -33t-100.5 -12.5 q-115 -8 -131 -18q-18 -10 -46 -68.5t-42 -115.5q-14 -53 -33.5 -76t-44.5 -12q-16 6 -19 33.5t11 37.5q8 4 18.5 30t27 69t20.5 55q6 16 -3.5 20t-50.5 4q-57 0 -76.5 -19.5t-27.5 -82.5q-8 -55 -34.5 -105.5t-45.5 -44.5q-31 10 -33 44t13.5 69t28 66.5t5.5 38.5 q-8 4 -35.5 1t-56 -10.5t-52.5 4t-24 43.5zM324 674q-8 -31 3 -40t50 -7q37 4 62.5 23.5t13.5 37.5q-6 12 -64.5 12t-64.5 -26z" />
<glyph unicode="$" horiz-adv-x="804" d="M23.5 126.5q-11.5 51.5 11.5 80.5q20 29 36.5 16.5t16.5 -53.5q0 -35 18.5 -73t36.5 -38q10 0 34 57.5t24 84.5q0 14 12 44.5t46 119t71 192.5q45 129 51 164t-6 100q-23 139 -14.5 216t41 129.5t67.5 75t68.5 52t42.5 64.5q10 45 43 121q25 57 46 69.5t46 -16.5 q16 -23 -4 -131l-23 -111l49 -59q39 -49 46.5 -94t-19.5 -68q-23 -16 -44.5 0t-21.5 49q0 31 -20 60q-12 18 -19.5 19t-21.5 -13q-16 -18 -68.5 -143.5t-76.5 -209.5q-14 -47 -14.5 -81.5t8 -63.5t20.5 -114t18 -201q8 -178 -15.5 -259t-111.5 -171q-59 -61 -77.5 -71.5 t-63.5 -4.5q-43 6 -56.5 1t-29.5 -36q-20 -33 -44 -39t-34 21q-8 23 10 84q12 43 8 60t-34 62q-41 57 -52.5 108.5zM237.5 41q-4.5 -59 8.5 -76q41 -49 125 47q53 59 66.5 118.5t13.5 229.5q0 182 -17 197q-16 16 -26 -4q-12 -20 -50 -131q-78 -233 -100 -285 q-16 -37 -20.5 -96zM449 977q4 -2 14 12q18 23 45 100.5t18 86.5q-2 2 -8 0t-16 -11.5t-21.5 -23t-19.5 -41t-12 -60.5q-6 -63 0 -63z" />
<glyph unicode="%" horiz-adv-x="964" d="M20 16q6 14 240 273l369 409q92 104 131 156.5t90 134.5q20 35 46 34t30 -36q6 -31 -58 -104q-111 -135 -266.5 -308.5t-248.5 -283t-144 -191.5q-39 -63 -76 -101t-59 -38q-18 0 -38 19.5t-16 35.5zM22.5 700.5q-10.5 57.5 61.5 147.5q41 51 61.5 65.5t51.5 14.5 q41 0 58 14t40 10q18 -2 25.5 -14t9.5 -45q4 -55 -16.5 -98t-75.5 -95q-37 -35 -60.5 -46t-54.5 -11q-90 0 -100.5 57.5zM113 750q-8 -23 18 -33q14 -4 71.5 51.5t57.5 71.5q0 39 -67 -4q-70 -43 -80 -86zM618 266q-2 35 38 93.5t75 76.5q23 12 100.5 13.5t96.5 -11.5 q16 -10 16 -55q0 -55 -50 -129t-110 -104q-27 -12 -41 -12.5t-45 16.5q-45 23 -62.5 48t-17.5 64zM709 268q-8 -39 30 -39q41 0 92 58.5t35 85.5q-8 14 -21.5 12t-56.5 -27q-68 -37 -79 -90z" />
<glyph unicode="&#x26;" />
<glyph unicode="'" horiz-adv-x="405" d="M20 673q0 36 31 66q35 39 94 152q39 76 45.5 97.5t-10.5 37.5q-25 29 -14.5 54t76.5 91q80 82 87 82t33 -22q20 -18 21.5 -36.5t-8.5 -42.5t-47 -91q-45 -82 -76 -139q-156 -299 -205 -291q-27 6 -27 42z" />
<glyph unicode="(" horiz-adv-x="706" d="M20 352l25 131q43 223 102.5 343t202.5 270q152 157 215 204q57 41 78 44.5t37 -25.5q14 -25 0 -47.5t-43 -22.5q-23 0 -170.5 -134t-200.5 -204q-82 -109 -126 -301t-9 -288q12 -29 23.5 -65t17.5 -55.5t14.5 -40t17.5 -29.5t19 -13q51 -16 6 -68q-51 -55 -79 15 q-14 39 -72 163z" />
<glyph unicode=")" horiz-adv-x="571" d="M21.5 62.5q-1.5 13.5 8 28.5t28 41t42 58.5t53 85t58.5 114t59.5 152.5t55.5 195q51 221 -78 496q-37 80 -41 99.5t14 35.5q20 20 50 -7.5t59 -96.5q72 -176 73 -398q0 -90 -8 -140t-37 -136q-31 -98 -98 -245.5t-119 -229.5q-68 -109 -104 -78q-14 12 -15.5 25.5z" />
<glyph unicode="*" horiz-adv-x="686" d="M25 756q-12 20 14.5 46.5t120.5 88.5q121 82 125 88q6 4 -40 51t-94.5 104.5t-46.5 82.5q10 72 80 10q23 -18 45 -49q27 -33 48.5 -53.5t23.5 -18.5q6 4 12 52t20.5 93t39.5 45q20 0 31.5 -39.5t7.5 -89.5q-10 -82 12 -77q8 2 18 16q18 20 37 20t35 21q16 20 59 42.5 t64 22.5q25 0 29 -21.5t-8.5 -43t-22.5 -21.5q-16 0 -66.5 -30.5t-101.5 -69.5q-35 -29 -23.5 -49.5t95.5 -73.5q106 -68 59 -98q-12 -8 -104.5 39t-108.5 30q-12 -12 -2 -39.5t17.5 -51t-29.5 -60.5q-37 -31 -53.5 -13.5t-16.5 89.5q0 86 -8 86t-68.5 -48.5t-120 -80 t-79.5 -0.5z" />
<glyph unicode="+" horiz-adv-x="503" d="M20 578q0 18 27 40q29 25 101.5 8.5t87.5 -1.5q10 10 25 129.5t38 146.5q55 61 51 -37q-2 -8 -2 -16q-6 -70 -6 -156l-2 -84l51 2q51 4 78 -24q27 -29 8.5 -49.5t-78.5 -24.5l-59 -4l-6 -70q-6 -61 -29.5 -84.5t-43 1t-19.5 85.5q0 49 -8.5 59.5t-57.5 24.5 q-63 18 -82 13q-18 -8 -46 7t-28 34z" />
<glyph unicode="," horiz-adv-x="274" d="M21.5 -104.5q-7.5 24.5 25.5 61.5q25 29 54.5 77t29.5 60q0 8 -18.5 8t-44.5 19q-18 14 -19.5 24t10.5 41q6 14 25.5 40t48.5 52.5t59.5 19.5t49.5 -60q16 -43 11 -67t-44 -114q-45 -98 -70.5 -132t-67.5 -44t-49.5 14.5z" />
<glyph unicode="-" horiz-adv-x="321" d="M21 484.5q0 25.5 16 41.5t119 17q63 0 87.5 -5.5t41.5 -23.5q25 -29 10 -53q-29 -25 -137.5 -23t-122.5 11q-14 10 -14 35.5z" />
<glyph unicode="." horiz-adv-x="204" d="M29.5 153q19.5 40 54.5 58q33 18 42 17t32 -21q43 -39 19.5 -100.5t-79.5 -61.5q-45 0 -66.5 34t-2 74z" />
<glyph unicode="/" horiz-adv-x="858" d="M25 -27q8 27 38 88q57 113 125 218.5t169.5 253t181.5 274.5q74 117 128 212t87 140q57 76 71 62q6 -4 11 -17q8 -25 -26 -88t-73 -121.5t-39 -68.5q0 -8 -16 -28.5t-45 -57.5t-49 -76q-29 -57 -115 -174t-171 -249t-130 -255q-53 -143 -66 -154q-18 -18 -43.5 -17 t-35.5 17q-10 14 -2 41z" />
<glyph unicode="0" horiz-adv-x="548" d="M23 311.5q-5 16.5 0 65.5q8 90 76.5 257t127.5 247q57 76 58 92q0 27 40 66t81 53q53 18 70.5 19t33.5 -15q37 -39 -8 -178.5t-183 -409.5q-156 -301 -268 -227q-23 14 -28 30.5zM119 393q6 -14 12 -15t21 11q31 25 98 137.5t110 208.5q18 45 38 87t26 54.5t12 31 t8.5 28.5t6.5 33q6 39 3 48t-22 9q-29 0 -37 -11t-2 -44q6 -29 -17.5 -52.5t-66.5 -65.5t-71 -99q-39 -76 -60 -115q-25 -41 -46 -132t-13 -114z" />
<glyph unicode="1" horiz-adv-x="376" d="M20 258q0 8 17 33q16 27 90 257t74 259q0 12 -12.5 17t-30 0t-29.5 -19q-31 -37 -73 -7.5t-17 70.5q12 16 111.5 52.5t117.5 54.5q25 25 52.5 19.5t33.5 -28t-12 -51.5q-16 -16 -42 -90.5t-52 -126.5q-61 -125 -113 -393q-10 -47 -43 -69q-25 -16 -33 -16.5t-23.5 15 t-15.5 23.5z" />
<glyph unicode="2" horiz-adv-x="577" d="M20.5 126q4.5 17 47.5 71q49 59 49 69q0 4 34.5 46t85 107.5t80.5 117.5q41 72 84 165t43 111q0 16 -13 21.5t-34.5 -2t-44.5 -25.5q-43 -31 -71.5 -31t-32.5 31q-6 45 86 96q115 63 184 35q39 -16 39 -68q0 -45 -102.5 -241.5t-169.5 -280.5q-94 -117 -82 -139 q6 -16 61 -19q68 -4 142 17q59 18 78.5 11t15.5 -46q-4 -25 -30 -32t-146 -21q-170 -18 -213 -39q-27 -14 -38.5 -13t-27.5 17q-29 25 -24.5 42z" />
<glyph unicode="3" horiz-adv-x="493" d="M43 137q-72 27 98 109q119 57 184.5 123.5t65.5 128.5q0 74 -40 82t-109 -54q-31 -27 -64 -28.5t-49 20.5q-12 20 -2 33.5t57 51.5t86 79t74 107.5t27 80.5t-56.5 4t-95.5 -34q-47 -27 -73.5 -21t-22.5 39q4 31 52.5 60.5t107.5 37.5q72 12 95 10.5t44 -20.5 q29 -25 25.5 -81t-35.5 -117l-37 -70l45 -37q41 -35 52 -84t-17.5 -118.5t-104.5 -139.5q-57 -53 -169.5 -112.5t-137.5 -49.5z" />
<glyph unicode="4" horiz-adv-x="628" d="M19.5 416.5q3.5 17.5 16.5 49.5t44 83q49 80 74.5 138t74.5 138q66 109 88 152q12 25 30 36t33 6t19 -26q4 -23 -25.5 -85t-51.5 -83q-18 -14 -19 -26q0 -6 -30.5 -55.5t-67.5 -112t-49 -92.5q-20 -47 -8 -58.5t75 -5.5q39 2 51.5 14.5t30.5 67.5q18 57 37.5 91t30.5 67 q29 76 82 186.5t69 128.5q18 20 46 24.5t36 -12.5q8 -12 -112 -251q-61 -119 -89 -185.5t-29 -86t2 -31t-6.5 -45t-43.5 -103.5q-53 -111 -54 -131q0 -14 -14 -28.5t-29 -61.5q-10 -45 -44.5 -83t-53.5 -26q-16 8 -15 41t19 58q23 37 57.5 139t26.5 112q-12 10 -104 15 q-2 0 -8 2q-35 0 -49.5 2t-29 11t-11 26.5z" />
<glyph unicode="5" horiz-adv-x="571" d="M33 254q16 2 47 -16.5t47 -14.5t82 49q80 55 120 105.5t54 111.5q10 43 4 58.5t-49 52.5q-59 49 -119 66q-39 8 -53 26.5t-9 39t17 40t24.5 38.5t12.5 28q0 14 27 49q39 49 182 61q20 2 41.5 9.5t35 13.5t24.5 8t18.5 -5t9.5 -28q6 -33 -27 -51t-104 -25 q-61 -4 -77.5 -12t-35.5 -45l-26 -49l200 -199l-10 -67q-10 -66 -54 -135.5t-100 -110.5q-72 -51 -138 -93t-77 -42q-14 0 -51 57q-51 76 -16 80z" />
<glyph unicode="6" horiz-adv-x="663" d="M22.5 297q-6.5 41 18.5 127q18 59 94 185t168 245q74 96 111.5 138.5t105.5 101.5q100 90 121 39q10 -27 -15.5 -74t-47.5 -47q-29 0 -134.5 -109.5t-167.5 -202.5q-121 -186 -153.5 -286.5t10.5 -147.5q33 -33 46.5 -33t25.5 35q20 53 81.5 136t102.5 112q100 72 141 39 q20 -16 9 -57q-33 -106 -118 -227t-149 -152q-61 -29 -79.5 -29t-30.5 33q-14 37 -26.5 37t-63.5 51q-43 45 -49.5 86zM291 231q31 12 98 113q43 61 43 84q0 43 -49 -12q-35 -41 -70 -107q-45 -86 -22 -78z" />
<glyph unicode="7" horiz-adv-x="587" d="M29.5 98.5q19.5 59.5 101.5 225.5q154 307 204 417.5t40 120.5q-12 12 -115 -4q-82 -14 -111.5 -5t-29.5 46t37 47t147 8q144 -1 154 7q20 23 45 -5q39 -45 -23 -135q-41 -55 -185 -339.5t-167 -364.5q-12 -35 -45 -69t-49 -23q-23 14 -3.5 73.5z" />
<glyph unicode="8" horiz-adv-x="552" d="M37 39q-35 53 5 170t134 237l43 54l-20 336l55 63q58 64 119 80q113 29 142.5 5.5t10.5 -128.5q-41 -227 -110 -227q-16 0 -35 -22.5t-49 -78.5q-18 -35 -25 -133q-8 -133 -39.5 -203.5t-113.5 -136.5q-55 -47 -75 -50t-42 34zM109 133q14 -12 37.5 10.5t46 68.5t30.5 93 q10 53 -4 53q-27 0 -77 -103t-33 -122zM281 746.5q-2 -44.5 3 -81t15 -36.5q8 2 66 76q39 49 66 118.5t13 81.5q-20 23 -72.5 -10t-78.5 -86q-10 -18 -12 -62.5z" />
<glyph unicode="9" horiz-adv-x="471" d="M34 692q-38 49 15 154q31 59 102.5 149t120.5 131q33 29 52.5 35t50.5 0q66 -12 74 -34.5t-31 -100.5q-43 -92 -43 -106q0 -16 -40 -101.5t-56 -161.5q-8 -37 -36 -119.5t-30 -127.5q-2 -57 -39 -84q-31 -25 -57.5 -20t-26.5 34q0 8 36 105.5t65.5 190.5t21.5 101 q-6 8 -55 -28q-86 -66 -124 -17zM147 840q0 -23 4 -23.5t27 19.5q31 29 80 96t43 82q-4 12 -42 -25t-75 -85t-37 -64z" />
<glyph unicode=":" horiz-adv-x="411" d="M23.5 111q-17.5 43 33.5 104q37 43 70 43q29 0 61.5 -21.5t32.5 -43.5q0 -33 -34.5 -68t-73.5 -43q-72 -14 -89.5 29zM234 807q3 43 30 74q31 33 53 32q27 0 50.5 -27.5t23.5 -56.5q0 -37 -28.5 -83t-51.5 -46q-35 0 -57.5 32t-19.5 75z" />
<glyph unicode=";" horiz-adv-x="395" d="M23 168q18 51 76.5 88t111.5 4q16 -10 20 -94q2 -63 -8 -93t-45 -75t-59 -88q-14 -27 -32.5 -28t-35.5 26q-10 14 -5 33.5t30 62.5q41 76 33 82q-4 2 -21 2q-29 0 -51 27.5t-14 52.5zM213 766.5q-2 36.5 31 71.5q55 59 110 6q16 -18 19.5 -31.5t-6.5 -42.5 q-14 -43 -50 -65q-23 -14 -34 -14.5t-35 16.5q-33 23 -35 59.5z" />
<glyph unicode="&#x3c;" horiz-adv-x="546" d="M24.5 642.5q12.5 23.5 53.5 31.5q63 10 123.5 27.5t101.5 33t78 30.5t60.5 25.5t41 16.5t27.5 2t16 -16q6 -18 -16.5 -48t-40.5 -30q-10 0 -86 -36t-102 -36q-29 0 -67 -16.5t-38 -28.5q0 -23 102.5 -88.5t139.5 -65.5q10 0 12 -19t-7 -41t-22 -30q-18 -12 -45.5 3.5 t-53.5 37t-34 21.5q-10 0 -113.5 78.5t-119.5 97.5q-23 27 -10.5 50.5z" />
<glyph unicode="=" horiz-adv-x="679" d="M20 500q0 27 19.5 33t136.5 14q154 10 162 18q12 10 128 6t128 -16q39 -39 -10 -98l-27 -33l-22 37q-14 23 -25.5 29t-75 4t-201.5 -23q-61 -8 -103 -10t-63.5 -1t-32.5 9t-12.5 14t-1.5 17zM75 709.5q-3 9.5 9 23.5q8 10 25.5 15.5t51.5 7.5t69.5 3t99 3t121.5 6 q47 2 57 -20q10 -29 -10.5 -49.5t-59.5 -20.5q-68 -2 -136.5 -8t-98 -9.5t-57 1t-48.5 20.5q-20 18 -23 27.5z" />
<glyph unicode="&#x3e;" horiz-adv-x="548" d="M25 305q-14 23 22.5 64t104.5 73q66 33 149.5 96.5t83.5 82.5q0 12 -71.5 52t-96.5 42q-14 0 -44 29.5t-30 43.5q0 20 21.5 41t44.5 0q16 -16 110.5 -65t108.5 -49q20 0 60 -32t40 -48q0 -33 -111.5 -117t-232.5 -141q-94 -45 -102 -76q-6 -25 -23.5 -23.5t-33.5 27.5z " />
<glyph unicode="?" horiz-adv-x="720" d="M22 95q-5 32 9 46q10 8 45 4q23 -2 30 -10t7 -35q0 -39 -22.5 -55t-47.5 4q-16 14 -21 46zM71.5 295.5q-3.5 23.5 4.5 126.5q6 90 17 124t54 103q74 121 154 219q31 41 95.5 169t64.5 151q0 27 -25.5 46t-50.5 11q-25 -6 -141 -80q-106 -70 -121 -26q-4 10 -4 22 q0 37 63.5 77t136 69.5t76.5 33.5q16 14 55 1t64 -44q66 -78 -16 -241q-102 -207 -185 -307q-68 -84 -96.5 -148.5t-38.5 -148.5t-30.5 -132.5t-49.5 -48.5q-23 0 -26.5 23.5z" />
<glyph unicode="@" horiz-adv-x="950" d="M26 242.5q11 107.5 40 187.5q29 76 203.5 248t256.5 207q33 12 99.5 12t113.5 -14q55 -14 104.5 -73.5t69.5 -137.5q16 -59 16.5 -84t-14.5 -80q-23 -78 -82 -148.5t-131 -107.5q-51 -27 -86.5 -18.5t-74.5 53.5l-49 53l-74 -47q-72 -49 -92 -49q-23 0 -47.5 26.5 t-24.5 53.5q0 25 24.5 65.5t68.5 97t48 64.5q37 51 68 90l31 37l32 -31q35 -33 58 -33q53 0 18 -92q-23 -61 -12 -131q8 -45 16 -57t33 -17q39 -4 100.5 46.5t94.5 111.5q23 43 26.5 69.5t-2.5 73.5q-16 137 -106 190.5t-207 -5.5q-86 -43 -124 -68.5t-106 -85.5 q-84 -74 -122.5 -131t-59.5 -133q-29 -115 -32 -181.5t22 -119.5q33 -76 125 -128t194 -52q39 0 116 45t149 110q49 45 69 37q12 -4 7 -18.5t-31 -46.5q-96 -123 -213 -171t-230 -12q-113 35 -185.5 96.5t-94.5 141.5q-14 49 -3 156.5zM371 358q20 0 72.5 45.5t52.5 61.5 q0 29 -31 10q-16 -12 -51 -43q-78 -72 -43 -74z" />
<glyph unicode="A" horiz-adv-x="489" d="M20 -3q0 25 30 144q34 133 81 289l64 217q20 66 37.5 118t24.5 73.5t9 31.5q6 45 56.5 234.5t50.5 228.5q0 47 18 53t27 6h5q9 -2 28 -24q18 -20 18 -40q0 -7 -2 -15q-6 -18 -10 -230.5t-9.5 -481.5t-17.5 -390q-8 -91 -8 -145t8 -70q12 -23 10 -37t-18 -45 q-29 -47 -49 -47q-11 -1 -15 25q-2 16 -3 54q0 21 1 50q4 127 13 197q6 51 2 59t-29 0q-44 -14 -108 -24q-45 -7 -65 -6q-8 0 -13 1q-20 11 -36 -27q-8 -19 -8 -36q0 -15 7 -27q10 -16 7 -35.5t-24 -60.5q-35 -70 -62 -70h-3q-17 3 -17 30zM160 317q0 -10 47 -11h9 q43 0 90 8q52 10 65 22q14 14 25 314q5 143 5 234q0 99 -6 134q-8 51 -20 51q-6 0 -16.5 -41t-33 -130t-44.5 -161q-121 -401 -121 -420z" />
<glyph unicode="B" horiz-adv-x="454" d="M20 -250.5q0 25.5 5.5 66.5t17.5 104q43 248 85 542t42 333q0 61 33 231t47 186q20 23 20 41q0 14 22.5 50t35.5 36q37 0 84 -170q18 -71 21 -109q1 -9 1 -20q0 -38 -8 -104q-10 -96 -27.5 -143.5t-87.5 -180.5l-53 -94l31 -26q41 -38 61 -100q14 -43 14 -86 q0 -19 -2 -38q-27 -201 -163 -436q-33 -55 -49.5 -68.5t-36.5 -1.5q-16 10 -27.5 2t-17 -21t-12.5 -25.5t-17 -12.5t-14.5 9.5t-4.5 35zM114 -91q1 -48 13 -56q1 -1 3 -1q19 0 69 113q94 214 94 349v16q-2 68 -37 86q-41 20 -53.5 9t-22.5 -81q-2 -10 -14 -68.5t-23.5 -121 t-20.5 -130.5q-8 -61 -8 -105v-10zM221 600h1q12 0 48 70q4 6 6 12q86 174 86 330q0 53 -10 104q-14 82 -28 82q-10 0 -24.5 -36t-14.5 -64q0 -14 -15.5 -65.5t-19.5 -117.5q-8 -80 -23 -174q-12 -82 -12 -116q0 -24 6 -25z" />
<glyph unicode="C" horiz-adv-x="497" d="M20 356q2 41 5.5 59.5t17.5 99.5t25 149q6 47 13 76.5t11 38.5t7 17.5t3 16.5q0 43 40 190.5t65 196.5q43 86 109 123q30 17 54 17q29 0 48 -25q14 -16 15 -15.5t-5 23.5q-4 19 -2 25q1 4 6 4q3 0 6 -2q18 -6 18 -35t13 -41q9 -9 9 -41v-7q-1 -38 -13 -55 q-14 -23 -35.5 -10t-21.5 43q0 33 -21 51q-14 10 -29.5 6t-48.5 -26q-29 -18 -42 -35.5t-17 -31t-13.5 -56.5t-21.5 -86q-35 -119 -92 -467q-23 -129 -25 -185q0 -9 -1 -19q0 -53 9 -138q14 -145 30 -188t46 -33q33 8 78 57q48 52 65 52q7 0 9 -9q1 -3 1 -7q0 -27 -40 -91 q-27 -39 -47.5 -55.5t-57.5 -26.5q-31 -9 -52 -9q-18 0 -29 7q-39 25 -76 293q-7 59 -11 83q-2 14 -3 35q0 14 1 31z" />
<glyph unicode="D" horiz-adv-x="548" d="M20 -137q0 16 5.5 32.5t18.5 57.5t31.5 103.5t51.5 195.5t72 305l108 498q29 139 86 219q25 33 37 36h3q12 0 30 -22q27 -31 45 -117t19 -214v-13q-1 -122 -19 -254q-20 -139 -80.5 -293.5t-157.5 -277.5l-108 -137q-45 -57 -72 -103q-26 -47 -49 -47q-4 0 -8 2 q-12 6 -13 29zM147 68q0 -8 4 -8q11 0 52 61q31 47 76 121q55 96 77.5 154.5t51.5 172.5q27 113 36 181.5t9 187.5v36q1 152 -15 168q-8 8 -14 8t-10 -11l-45 -133q-16 -51 -28.5 -96.5t-21 -79t-27 -118.5t-36.5 -169q-109 -465 -109 -475z" />
<glyph unicode="E" horiz-adv-x="720" d="M28 -370q-6 7 -7 21q0 22 14 62q20 59 39.5 176t27.5 142q12 37 52 164l65 213q20 68 68.5 274.5t89.5 378.5t53 186q10 12 14.5 15.5t9.5 4.5h1q5 1 14 -5q10 -6 24.5 -12.5t45 -16.5t69.5 -21q86 -23 90 -47q2 -8 2 -15q0 -18 -11 -28q-15 -14 -33.5 1.5t-94.5 19.5 l-78 4l-45 -148q-45 -143 -92 -335q-40 -164 -40 -195q0 -5 1 -6q6 -6 97.5 -14.5t99.5 -16.5q6 -6 6 -12q0 -16 -47 -31q-37 -10 -92 -16l-101 -8l-53 -166q-35 -100 -51 -183.5t-25.5 -159t-11.5 -87.5q-2 -20 10.5 -24.5t69.5 -4.5t71.5 -5.5t14.5 -23.5q0 -12 -7 -19 t-23.5 -11.5t-36 -8.5t-53.5 -12t-69 -20q-39 -17 -60 -17q-12 1 -18 7z" />
<glyph unicode="F" horiz-adv-x="749" d="M22 -160q-1 7 -1 13q0 29 14 43q16 18 66.5 160.5t105.5 330.5l78 256q47 150 98 334q66 229 109 231q8 0 16 -8q11 -8 48 -8q16 0 36 1q68 5 78 19q7 13 17 13q13 0 30 -21q11 -13 11 -24q0 -16 -23 -27q-35 -16 -162 -51q-25 -6 -76 -113q-76 -164 -80 -258 q-2 -49 31 -10q10 12 20.5 13t19.5 -4t30.5 -10t43.5 -5q37 0 41.5 -10.5t-18.5 -40.5q-18 -29 -115 -43l-96 -13l-25 -80q-14 -45 -59 -204.5t-61 -200.5q-16 -39 -41 -141.5t-50 -152.5q-19 -38 -47 -38q-9 0 -18 4q-17 6 -21 45z" />
<glyph unicode="G" horiz-adv-x="655" d="M47 -180q-28 72 -28 169q0 161 77 390q29 86 65 246.5t50 195.5q98 223 153.5 319.5t100.5 127.5q48 31 85 31q34 0 60 -27q21 -23 21 -45q0 -15 -8 -29q-2 -8 -9 -12q-20 -16 -39 4q-17 20 -38 20q-30 0 -68 -45q-49 -57 -122 -221t-97 -272q-45 -197 -67.5 -253.5 t-32.5 -103.5q-18 -78 -35 -112q-14 -32 -14 -161q0 -4 1 -9q0 -137 15 -176q15 -37 39 -37q5 0 10 1q31 9 84 79q55 70 82.5 119t56.5 128q29 80 41 124t13 72t-9 36t-35 8q-35 0 -53 21q-10 14 -8 23t18 28q23 27 68 27h2q47 -1 85 -9q11 -2 22 -2q27 0 55 14 q27 16 35 9.5t12 -47.5q1 -6 1 -11q0 -23 -14 -36q-18 -17 -40.5 -21t-47 -22.5t-32.5 -53.5q-16 -72 -51 -178t-54 -141q-53 -102 -116.5 -171t-114.5 -79q-16 -3 -30 -3q-27 0 -44 11q-24 16 -45 74z" />
<glyph unicode="H" horiz-adv-x="987" d="M23 -276q-2 6 -2 15q0 32 26 105q57 145 171 563t147 560q18 76 46.5 146.5t41.5 70.5q16 0 31.5 -19.5t15.5 -40.5q0 -12 -21.5 -71.5t-49.5 -134t-36 -111.5l-51 -178q-86 -307 -86 -363q0 -9 2 -12q4 -4 22 -3q33 0 115 11l125 21l27 75q23 63 78 282.5t107 397.5 t83 211q34 36 48 36q9 0 9 -17q0 -25 -18 -74q-57 -145 -132 -435t-101 -368q-18 -55 -24.5 -94t-4.5 -51.5t1 -22.5t-13 -18q-14 -12 -29.5 -55.5t-41.5 -121t-54 -141.5q-41 -94 -58 -170q-16 -82 -61 -114q-9 -4 -15 -4q-18 0 -20 32q0 18 29.5 100.5t64.5 157.5 q33 69 66 185q25 87 25 113q0 9 -3 10q-5 3 -21 3q-20 0 -54 -4q-62 -8 -134 -26q-53 -12 -74.5 -53t-56.5 -199q-18 -84 -32.5 -121t-38.5 -59q-27 -25 -35 -28t-14 14z" />
<glyph unicode="I" horiz-adv-x="446" d="M23 -246q-1 3 -1 10q0 30 30 136q36 128 96.5 323t87.5 299q38 146 83 232q18 35 40 44t34 -12q6 -10 -2 -28.5t-28.5 -66.5t-34.5 -105q-4 -25 -87 -283t-116 -424q-16 -86 -66 -127q-13 -12 -22 -12t-14 14zM360 973q-2 9 -2 17q0 27 27 34q6 2 14 2q25 0 29 -20 q1 -5 1 -10q-1 -16 -9 -30q-12 -20 -23 -22h-6q-24 0 -31 29z" />
<glyph unicode="J" horiz-adv-x="739" d="M20 -166v13q0 59 16 63h3q17 0 43 -64q29 -74 54 -79h5q25 0 74 53q113 123 209 475q137 508 147 555q8 37 38 71.5t44 34.5t18.5 -15t-1.5 -44t-17.5 -65.5t-27 -86t-31.5 -97.5t-33.5 -107.5t-30.5 -110.5q-76 -322 -194 -565q-41 -84 -108 -145q-55 -49 -90 -49 q-8 0 -15 3q-98 39 -103 160zM644 1084q8 13 25 13q7 0 16 -3q30 -7 34 -27q1 -4 1 -8q0 -20 -20 -27q-5 -2 -11 -2q-15 0 -33 16q-16 14 -16 27q0 6 4 11z" />
<glyph unicode="K" horiz-adv-x="618" d="M20 -80q0 12 6 37q6 27 12.5 60.5t17 98t16.5 138.5q8 84 12 119t7 42t11.5 48t20.5 117q27 164 80 393t67 244q18 18 38 1.5t20 -53.5q0 -41 -28 -152.5t-46 -144.5q-8 -20 -21.5 -69t-17.5 -85t0 -42q8 0 67.5 119.5t130 267t99.5 190.5q30 49 65 49h3q18 -2 18 -24 q0 -27 -63 -133q-74 -123 -157 -296t-87 -210q-1 -9 -1 -22q0 -45 12 -131q15 -108 32 -163q12 -39 28.5 -141t31 -188t22.5 -96q14 -16 -8.5 -53.5t-46 -37.5t-36 46.5t-26.5 183.5q-10 106 -43 255.5t-49 166.5q-5 5 -10 5q-15 0 -29 -44q-12 -35 -16 -84 q-39 -410 -103 -438q-10 -6 -20 4q-9 8 -9 22z" />
<glyph unicode="L" horiz-adv-x="512" d="M32 -186q-10 8 -10 23q0 18 13 48q51 119 122.5 383t96.5 340q27 80 91.5 339t76.5 288q16 39 30 45q3 1 5 1q12 0 26 -19q6 -8 6 -29q-1 -38 -21 -119q-32 -125 -42 -139q-8 -8 -16.5 -41t-26.5 -108.5t-39 -147.5l-135 -475q-14 -45 -37 -121q-39 -134 -38 -173 q0 -8 1 -13q10 -23 55 -15q57 10 78 10h6q18 -2 23 -20q2 -8 2 -15q1 -30 -27 -44q-34 -18 -120 -17q-98 3 -120 19z" />
<glyph unicode="M" horiz-adv-x="802" d="M22 -36q2 20 6.5 45.5t15.5 70.5t23.5 93t31 127t36.5 159q27 123 68 284.5t69 280.5q18 80 31.5 109.5t34.5 44.5q25 16 33 16t22 -18q18 -27 19 -66q0 -37 29.5 -164t41.5 -139l1 -1q20 0 186 318q25 48 41 66q16 20 26.5 20t26.5 -16t17 -54v-5q0 -36 -13 -76 q-23 -61 -81 -458.5t-71 -414.5q-6 -12 -12 -221q-4 -139 -10 -180t-25 -57q-17 -16 -27 -18q-2 0 -4 -1q-9 0 -18 8q-18 14 -18 61q0 14 2 32q23 217 65 485q85 516 85 585q0 6 -1 9q-4 10 -10 10q-16 0 -90 -178t-88 -186q-12 -8 -24.5 4t-20.5 37.5t-8 54.5 q0 59 -29 199.5t-41 140.5q-14 0 -89 -326t-112 -522q-23 -121 -47 -167q-19 -36 -44 -36q-6 0 -13 2q-9 4 -13 12q-2 6 -3 18q1 6 1 12z" />
<glyph unicode="N" horiz-adv-x="720" d="M22 -156q-3 11 -2 28q0 22 4 52q8 53 19.5 110.5t27 140.5t23.5 149q4 39 60.5 318.5t72.5 463.5q2 25 41 65q22 23 39 23q27 0 39 -61q41 -211 76 -481q30 -231 30 -307q0 -13 -1 -21q0 -20 12 -23h1q32 0 96 338q66 342 73 471q2 31 19.5 40t37.5 -7q10 -9 10 -30v-8 q-2 -28 -16 -110l-72 -366q-27 -139 -56.5 -257l-42.5 -170t-13 -83q0 -178 -54 -230q-20 -20 -43 -6t-23.5 151.5t-7.5 367t-46 405.5q-18 82 -32 82h-1q-18 -4 -39 -91t-41 -216t-29 -164q-27 -115 -45 -225.5t-24 -173t-14.5 -112.5t-18.5 -69.5t-33 -19.5q-21 0 -27 26z " />
<glyph unicode="O" horiz-adv-x="653" d="M22 234q11 210 93 507q29 102 60.5 182.5t48 113t16.5 44.5q0 25 59 93.5t98 91.5q55 26 75 28q1 0 3 1q18 0 33 -19q31 -31 47 -18.5t35.5 27.5t34.5 1q9 -9 9 -42q0 -48 -20 -146q-34 -164 -95.5 -392.5t-74.5 -289.5q-10 -55 -26.5 -99.5t-26.5 -65t-10 -28.5 q0 -10 -14.5 -30.5t-42 -63.5t-52.5 -94q-27 -55 -69.5 -100.5t-71.5 -45.5q-18 0 -57 50q-54 72 -54 235q0 29 2 60zM96 164q0 -63 23 -115l22 -53l39 45q57 70 121 211t100 285l123 460l-26 54q-16 31 -35 75q-15 36 -23 46q-7 8 -15 8q-2 0 -5 -1q-12 -3 -35 -28 q-53 -61 -105.5 -169t-82.5 -226l-37 -142q-18 -72 -41 -229.5t-23 -220.5z" />
<glyph unicode="P" horiz-adv-x="626" d="M22 -268q3 18 31 110q74 225 146 473q59 211 76.5 310.5t33.5 152.5q12 37 34 146q23 110 45 166q19 47 43 47q5 0 11 -2q14 -4 15 2l-25 49q-12 25 -12 36t10 23q17 22 30 22q2 0 4 -1q14 -4 42 -43q66 -87 84 -145q16 -52 16 -157v-24q-2 -152 -26 -192 q-84 -137 -130.5 -192.5t-115.5 -109.5q-51 -37 -73.5 -95t-53.5 -195.5t-68 -251.5q-20 -63 -20 -100t-31 -64q-20 -17 -28 -19q-1 0 -1 -1q-8 0 -22 18q-15 15 -15 31v6zM324 544q-3 -10 -2 -18q0 -13 8 -18q1 -1 3 -1q15 1 67 63q58 70 83 126q29 59 39 165q4 41 4 73 q0 52 -10 84q-16 51 -27 51q-8 0 -45 -121q-35 -119 -63 -213q-49 -163 -57 -191zM395 498q-2 -3 -2 -6q0 -5 8 -5q15 0 15 13.5t-6 13.5q-8 0 -15 -16z" />
<glyph unicode="Q" horiz-adv-x="780" d="M24 105q9 90 54 239q33 113 91 254t87 184q31 43 31 52q0 14 62.5 105t111.5 148t118.5 111.5t92.5 54.5q10 0 28 37q15 33 35 33h4q16 -4 19 -27q2 -9 2 -24q0 -24 -4 -66q-4 -53 -4 -90q-8 -123 -25.5 -217t-77.5 -334q-76 -293 -130 -439t-120 -218q-29 -33 -35 -51.5 t1 -53.5q2 -11 2 -22q0 -36 -23 -55q-17 -15 -31 -15q-24 0 -41 43q-8 25 -18 26t-59 -16q-41 -14 -71 -14q-19 0 -34 6q-27 8 -35 31t-22 113q-12 77 -12 142q0 33 3 63zM96 102q6 -47 8 -99t4.5 -83t10.5 -47q12 -25 54 -25t71 23q20 18 22 35v4q0 20 -14 84 q-11 53 -11 84q0 13 2 22q7 31 38 31q18 0 33.5 -26.5t15.5 -55.5q0 -25 14 -47q8 -12 14.5 -11t20.5 19q49 59 127 274.5t131 436.5q29 117 47 254q12 88 12 126q0 21 -4 27q-10 10 -26 10t-38 -10q-44 -20 -105.5 -80.5t-110.5 -136.5q-76 -115 -121 -211t-103 -264 q-25 -74 -47 -136t-31.5 -81.5t-14.5 -42.5q-4 -20 -4 -31q0 -6 5 -43z" />
<glyph unicode="R" horiz-adv-x="720" d="M26 -257q9 36 44 110q47 102 186 534q74 231 129 457.5t79.5 330t47.5 123.5q26 27 10 54q-12 19 -12 34q0 17 14 29q12 11 25 11q25 0 57 -37q4 -6 8 -11q82 -111 82 -331q0 -86 -8 -124t-41 -110q-51 -117 -81.5 -167t-88.5 -111l-67 -74l22 -113q18 -90 25.5 -152.5 t17.5 -244.5q4 -74 4 -113v-22q-2 -37 -18 -66q-25 -45 -37 -45q-23 0 -32 59.5t-15 231.5q-10 348 -51 348q-14 0 -15 -29q0 -12 -2 -20t-11 -33.5t-22.5 -58.5t-40 -109t-59.5 -170q-86 -252 -117 -262q-3 -1 -5 -1l-27 26q-5 11 -5 25t4 31zM412 575q12 0 37 33 q43 61 92 160t63 152q17 58 17 150q0 18 -1 38q-4 118 -34 129h-1q-12 -1 -43 -101q-32 -104 -70 -254.5t-52 -193.5q-21 -62 -21 -90q0 -22 13 -23z" />
<glyph unicode="S" horiz-adv-x="675" d="M24 -93q12 73 39 79q14 2 19.5 -7.5t5.5 -39.5q0 -55 22.5 -103.5t57.5 -60.5q14 -5 26 -5q30 0 48 30q26 42 59 198q31 131 36 211t5 364q0 240 4 335.5t21 154.5q20 86 56 149.5t75 90.5q37 20 82 21h4q42 0 59 -19q13 -17 13 -69q0 -21 -2 -47q-7 -93 -29 -114 q-15 -15 -27 -15q-23 0 -27 64v33q0 84 -14 84t-51 -48t-43 -79q-8 -37 -24.5 -65.5t-16.5 -434.5q-2 -322 -16.5 -465t-61.5 -280q-29 -84 -29 -100q0 -18 -42 -55.5t-64 -37.5q-25 0 -88.5 44t-85.5 77q-15 25 -15 65q0 21 4 45z" />
<glyph unicode="T" horiz-adv-x="608" d="M55 -119q63 203 121 406q8 33 46 159.5t64.5 220t52.5 203t28 164.5q0 14 -84 15q-63 0 -74.5 5t-11.5 38v41l100 6q99 4 113 16q9 13 23 13h3q16 -1 23.5 -8t29 -17t43.5 -13q40 -2 50 -13q4 -5 5 -14q0 -12 -7 -30q-14 -39 -43 -35l-45 6h-2q-19 0 -46 -88l-188 -618 q-86 -291 -111.5 -392.5t-25.5 -144.5q0 -51 -29 -75q-20 -18 -28 -20h-2q-8 0 -23 18q-16 18 -16 36t34 121z" />
<glyph unicode="U" horiz-adv-x="628" d="M25 223q8 221 73.5 624.5t100.5 444.5q13 16 24 16q3 0 6 -1q20 -6 20 -59q0 -56 -22 -140q-43 -154 -78.5 -413t-46.5 -466q-4 -109 -5 -162q0 -18 1 -30q2 -47 19 -82q25 -50 45 -50q6 0 12 5q29 23 94 211q59 166 120 435t98.5 458.5t53 204t39 -2t27.5 -45.5 q1 -3 1 -8q-1 -28 -25 -86q-28 -67 -31 -86q-61 -240 -91 -405.5t-40 -230t-39 -132.5q-4 -8 -29.5 -88t-51.5 -150.5t-66.5 -133t-81.5 -62.5q-23 0 -67 51t-54 88q-9 35 -9 145q0 63 3 150z" />
<glyph unicode="V" horiz-adv-x="585" d="M20 -274q8 172 48.5 552t50.5 685q6 121 9 182t9 98t14.5 45t24.5 8q25 0 37 -36q9 -27 9 -68q0 -14 -1 -29q-4 -37 -13 -172t-21.5 -267t-24.5 -216q-18 -109 -29.5 -252t-15.5 -166q-8 -31 -2 -33q16 0 41 70q244 737 317 1061q8 37 31.5 47t42.5 -16q18 -25 18 -57v-7 q-2 -37 -26 -63q-18 -20 -40 -87t-76 -248.5t-114 -363.5q-113 -336 -155 -528q-24 -103 -48 -147q-22 -41 -52 -40h-5q-18 2 -23.5 12.5t-5.5 35.5z" />
<glyph unicode="W" horiz-adv-x="821" d="M22 -208q2 15 2.5 31.5t2.5 47.5t4 62.5t5 80.5t5 103q6 145 21.5 371.5t21.5 379.5q6 195 16.5 257.5t36 78t43.5 -9.5q15 -21 15 -105q-1 -8 -1 -16q-2 -98 -20 -188q-18 -92 -34.5 -273.5t-18.5 -306.5v-34q0 -94 10 -111q10 0 52 79.5t61 86.5q7 3 13 3q21 0 38 -32 q22 -41 22 -104q0 -76 11 -76q2 0 6 5t10 21.5t13.5 37t20.5 60.5t27.5 83t39 112.5t49.5 143.5q201 564 217 673q6 51 20 77q12 23 33 23q3 0 6 -1q27 -6 30 -37q1 -5 1 -11q-1 -29 -13 -71q-14 -51 -33.5 -105.5t-42 -124t-32.5 -118.5q-6 -29 -15.5 -49.5t-22.5 -46 t-49 -116.5t-83 -233q-94 -281 -94 -360q0 -84 -16.5 -185.5t-34.5 -130.5q-24 -37 -42 -37q-17 0 -30 31q-18 41 -19 127q0 166 -34 244q-16 37 -27 -2q-4 -10 -24.5 -72.5t-39 -127t-24.5 -97.5q-8 -53 -35 -86q-18 -20 -26 -22q-1 0 -3 -1q-8 0 -22 11q-6 6 -9 10t-5 11 q-1 7 -3 15q-1 4 -1 10t1 14z" />
<glyph unicode="X" horiz-adv-x="745" d="M24 -246q10 38 87 215q57 133 76.5 203t131.5 320q16 35 22.5 52t11.5 34.5t4 46t-3 54.5t-8 93.5t-10 130.5q-10 125 -23 133q-12 7 -12 88q0 17 1 38q3 118 17 132q16 16 29 16q21 0 33 -44q14 -59 20 -234q12 -250 29 -250q2 0 6 4q10 12 152 355q35 84 52 109.5 t38 25.5q29 0 42 -26q6 -12 6 -24q0 -14 -9 -26q-10 -12 -108.5 -213t-123.5 -262q-35 -84 -36 -133q-1 -9 -1 -24q0 -119 41 -640q10 -123 9 -171q0 -51 -11 -74q-18 -35 -36.5 -35t-35 30.5t-9.5 53.5q2 9 2 48q0 74 -8 256q-12 277 -21 314q-8 37 -17 37q-14 -2 -69 -129 t-80 -219q-84 -301 -129 -346q-16 -16 -23.5 -16.5t-23.5 16.5q-16 16 -16 38q0 11 3 23z" />
<glyph unicode="Y" horiz-adv-x="628" d="M20 -184q5 43 20 85t32.5 83t17.5 47q0 20 47 174.5t99 300.5q51 150 56 178.5t-16 50.5q-23 23 -31.5 106t-19 203.5t-28.5 194.5q-14 61 -14.5 80.5t14.5 34.5q16 15 29 15q36 0 61 -97q18 -74 26 -189q14 -241 31 -241q6 0 20.5 42t36 113.5t33.5 108.5 q97 279 107 293q6 11 26 11q6 0 13 -1q18 -4 23 -15q4 -9 4 -28q0 -8 -1 -18q-2 -43 -26.5 -104.5t-73.5 -175.5t-88 -226q-29 -80 -52.5 -147.5t-39 -108.5t-28.5 -72t-19.5 -46t-10.5 -26.5t-5 -16.5t-1 -11q0 -20 -22.5 -90t-57.5 -199t-59 -270q-8 -53 -29 -77 q-14 -16 -32 -16q-9 0 -19 5q-23 5 -23 37v12z" />
<glyph unicode="Z" horiz-adv-x="620" d="M22 -245q-2 6 -2 15q0 42 50 152q131 301 233.5 585t142 428t35.5 159q-8 16 -62 17h-6q-49 -1 -65 -17q-5 -6 -12 -5q-16 0 -43 25q-23 23 -27 35t6 33q12 20 28 24q8 2 24 2t41 -2q29 -3 53 -3q20 0 36 2q36 5 58 13q20 7 36 6h4q17 -1 32 -16q16 -13 16 -43 q0 -8 -1 -16q-5 -43 -20.5 -82t-32 -79t-16.5 -50q0 -8 -7 -24.5t-29.5 -71t-47.5 -127.5q-12 -35 -80.5 -214t-101.5 -298q-14 -57 -38.5 -104.5t-37.5 -98.5q-14 -55 -28.5 -74.5t-14.5 -41t15.5 -26.5t87.5 -8h16q87 0 119 21q35 23 51 8q8 -8 7 -24q0 -15 -7 -39 l-12 -45l-111 -4q-111 -2 -178 -21q-42 -11 -68 -11q-36 0 -43 20z" />
<glyph unicode="[" />
<glyph unicode="\" horiz-adv-x="360" d="M25 1139q-16 47 18 67q33 14 49 -18q6 -18 10 -97t21.5 -215.5t52.5 -275.5q14 -51 31.5 -132t30 -132t18.5 -64q16 -27 50 -132t34 -124q0 -27 -23.5 -44t-42.5 -3q-29 16 -56.5 131t-60 302.5t-51.5 269.5q-20 84 -36.5 192.5t-26.5 181.5t-18 93z" />
<glyph unicode="]" />
<glyph unicode="a" horiz-adv-x="528" d="M20 250q-1 3 -1 7q0 23 30 89q51 119 156.5 244t154.5 125q25 0 40.5 13t21.5 29.5t20 28.5q12 11 28 11h5q29 -4 33 -30q1 -6 1 -12q1 -23 -11 -53q-14 -38 -33 -78t-35 -81t-16 -62q-2 -59 -31 -173.5t-45 -125.5q-15 -10 -25 -10q-21 0 -24 41q0 25 6 59q8 38 8 55 q0 15 -6 15q-8 0 -33 -29q-45 -47 -137 -71q-39 -10 -64 -11q-34 0 -43 19zM147 334q37 8 95 92q6 8 10 14q45 71 45 87q0 5 -5 6q-1 0 -3 -1q-33 -12 -105 -98q-23 -29 -30 -45q-18 -33 -19 -46q0 -9 9 -9h3z" />
<glyph unicode="b" horiz-adv-x="546" d="M20 254q-4 33 95 313q96 272 165.5 511t96.5 345.5t35 118.5q4 9 23 9q6 0 14 -1q20 -2 27 -17q4 -8 4 -24q0 -13 -3 -32q-6 -41 -24.5 -105.5t-57.5 -177.5q-92 -279 -92 -300.5t-37 -98.5q-31 -70 -31 -94q0 -9 5 -11q8 -4 30 2q9 2 17 2q29 0 49 -24q26 -30 33 -95 q1 -14 1 -27q0 -24 -4 -46q-8 -32 -32 -88q-50 -104 -106 -158q-45 -42 -83 -42q-10 0 -20 3q-16 4 -45 4t-42 6t-18 27zM150 346q-2 -11 -2 -17q0 -11 6 -12q2 0 6 2q37 14 92 107q41 70 43 111v9q0 49 -19 49q-2 0 -4 -1q-41 -10 -90 -145q-18 -49 -32 -103z" />
<glyph unicode="c" horiz-adv-x="571" d="M80 278v6q0 22 10 76q25 123 97.5 244t148.5 158q46 24 73 24q15 0 25 -8q15 -12 15 -46q0 -22 -7 -54q-20 -105 -52 -105h-1q-8 2 -14 13q-14 23 -15 45q0 32 -15 32q-13 0 -36 -24q-74 -78 -121 -221q-12 -37 -18 -72q-6 -31 -1 -41t30 -18q31 -12 54 3t37.5 29.5 t28.5 -0.5q12 -11 12 -25q0 -24 -36 -56q-52 -48 -108 -48q-15 0 -29 3q-35 10 -58 38q-18 27 -20 47z" />
<glyph unicode="d" horiz-adv-x="815" d="M20 211q0 68 70 177.5t160 192.5t145 83q20 0 33.5 8t27 36.5t26 61.5t42 104.5t64.5 145.5q4 10 31.5 82t56.5 136.5t45 84.5q11 15 34 15q5 0 11 -1q18 -4 23.5 -17t5.5 -60q0 -43 -6.5 -64.5t-16.5 -32t-33.5 -51.5t-48.5 -104q-39 -98 -155.5 -347t-139.5 -342 q-18 -78 -38.5 -100t-55.5 -6q-20 8 -37.5 0t-56.5 -41q-60 -53 -111 -53q-10 0 -18 2q-58 12 -58 90zM113 262q-4 -17 -4 -28q0 -25 20 -25q39 0 158 149.5t119 198.5q0 17 -14 17q-21 0 -75 -39q-41 -31 -86 -78q-94 -98 -118 -195z" />
<glyph unicode="e" horiz-adv-x="509" d="M20 205q0 18 3 196q0 121 7 163t33 100q33 74 89.5 135t117.5 96q57 30 104 30q45 0 81 -28t36 -54.5t-42 -113.5q-27 -55 -68 -105.5t-133 -142.5q-114 -111 -134 -139q-16 -22 -15 -48q0 -7 1 -15q8 -47 50 -76q35 -27 62.5 -29t40.5 9.5t28.5 15.5t27.5 -9 q16 -16 -3 -40.5t-60 -43t-78 -18.5q-31 0 -88 45t-60 72zM96 524q7 -16 27 -16q9 0 21 4q38 10 59 39q23 35 41 35q27 0 91 118q53 96 53 129q0 7 -3 11q-6 10 -16 10q-1 0 -5 -1q-14 -3 -57 -28q-72 -41 -128 -109.5t-56 -113.5q1 -16 -15 -40q-12 -19 -13 -31q0 -4 1 -7z " />
<glyph unicode="f" horiz-adv-x="733" d="M39 416q16 16 34.5 22t57.5 2l64 -4l51 150q55 164 154.5 396.5t134.5 281.5q16 22 35 22q39 0 92 -88q45 -70 50 -114q1 -6 1 -12q0 -38 -27 -75q-27 -38 -52 -38q-18 0 -34 20q-12 23 -3 36t27.5 30.5t18.5 27.5q0 12 -31.5 54t-42.5 42q-12 0 -49 -68.5t-59 -131.5 q-18 -53 -82 -199.5t-84 -218.5l-25 -84l41 -31q25 -20 29 -30.5t-8 -24.5q-20 -23 -64 -35q-27 -6 -40 -21.5t-27 -58.5q-25 -72 -27 -157q0 -68 -18.5 -158t-34.5 -107q-11 -11 -30 -11q-5 0 -11 1q-16 4 -23.5 17.5t-6.5 41t5 56t15.5 76t21.5 86.5t27.5 99t27.5 103 q2 8 -5 13.5t-22.5 8.5t-30.5 6t-31.5 9t-24.5 15q-11 13 -11 21t17 30z" />
<glyph unicode="g" horiz-adv-x="563" d="M20 -207q4 82 21 84q12 0 22 -70q8 -49 30 -77.5t46 -22.5q33 10 112 223t122 408q12 59 23.5 122.5t14.5 99.5t1 40q-6 0 -66 -57q-47 -43 -102 -61q-29 -9 -54 -9q-20 0 -36 7q-37 14 -37 57q0 55 127.5 165.5t193.5 110.5q12 0 26 21q14 20 37 20h5q31 -4 35 -47 q1 -6 1 -14q0 -32 -12 -97q-16 -82 -33.5 -153.5t-41 -161.5t-23.5 -94q-100 -412 -174 -533l-51 -82q-20 -33 -34.5 -43t-45.5 -10q-108 0 -108 152q0 11 1 22zM236 569q1 -3 4 -3q13 0 65 46q45 39 45 52q0 6 -10 6h-2q-20 0 -63 -40q-40 -38 -40 -56q0 -3 1 -5z" />
<glyph unicode="h" horiz-adv-x="481" d="M25 43q8 39 75 248q55 168 85 298t65 247q59 201 90 348q10 55 26.5 90t29 43t22.5 8q23 -1 36 -29q7 -16 7 -30q0 -11 -4 -21q-14 -27 -80 -239l-94 -299q-61 -197 -82 -320l-6 -49l57 61q37 39 55.5 49.5t48.5 6.5q33 -2 41.5 -11.5t12.5 -44.5v-7q0 -42 -20 -140 q-22 -106 -21 -129q0 -27 -33 -54.5t-51 -17.5q-13 17 -13 48q0 17 4 39q12 60 30 130q13 51 13 67q0 6 -2 7q-2 2 -5 2q-16 0 -56 -63q-29 -45 -61 -111q-59 -117 -97 -160q-25 -28 -45 -28q-10 0 -18 8q-12 10 -12 31q0 10 2 22z" />
<glyph unicode="i" horiz-adv-x="395" d="M20 62q-1 6 -1 13q0 27 14 52q12 23 35.5 122t65.5 238t93 250q37 80 51.5 94.5t36.5 -6.5q14 -14 14.5 -36.5t-9 -50t-25.5 -63.5t-32.5 -71t-33 -78t-26.5 -82q-2 -14 -31 -108t-42 -156q-6 -30 -6 -46q0 -17 7 -17q29 2 57 53q14 25 35 31t31 -13q2 -3 2 -9 q0 -16 -16 -52q-22 -49 -47 -72q-29 -27 -75 -39q-21 -6 -38 -6q-20 0 -33 8q-23 10 -27 44zM281 1077q8 20 29 19q13 0 30 -6q34 -15 35 -37q0 -7 -4 -15q-4 -10 -17 -20q-22 -17 -40 -17q-13 -1 -24 9q-15 13 -15 35q0 14 6 32z" />
<glyph unicode="j" horiz-adv-x="776" d="M29 -51q6 10 18 8q14 -2 19.5 -15.5t15.5 -38t33 -42.5q25 -25 33 -26t28 20q51 45 140.5 269t167.5 443.5t94 239.5q25 31 37 33t30 -19q7 -7 7 -25q0 -24 -14 -68q-22 -75 -67 -157q-29 -49 -60.5 -151.5t-70.5 -186.5q-49 -104 -49 -110t-31.5 -90t-85 -182.5 t-98.5 -112.5q-7 -2 -15 -2q-26 0 -60 22q-44 27 -60 68q-22 53 -22 86q0 23 10 37zM664 1073q4 13 14 23q17 17 34 17q13 0 26 -11q18 -15 18 -36q0 -15 -8 -32q-16 -36 -38 -36q-11 0 -24 10q-26 20 -26 45q0 10 4 20z" />
<glyph unicode="k" horiz-adv-x="602" d="M21 28q2 24 17 62.5t32.5 73.5t32 66.5t14.5 41.5q0 12 33.5 88t94 227.5t111.5 303.5q18 57 34 102t25 67.5t15 39t9 21.5t4 9.5t1 10.5q0 31 27 80q19 33 40 33q16 0 32 -21q10 -12 10 -35q0 -64 -76 -213q-72 -145 -126 -299t-72 -180q-20 -35 -17 -60q1 -4 4 -4 q18 0 115 112q115 132 135 163q16 23 24 25q6 1 24 -15q17 -15 17 -27t-22 -53q-29 -57 -153 -174l-125 -117l41 -73q45 -80 58 -93.5t36 -1.5q42 24 42 -18q0 -38 -40 -84q-32 -38 -56 -38q-4 0 -8 2q-26 9 -55 77q-27 59 -55.5 102t-42.5 43q-12 0 -35 -52t-37 -118 q-14 -56 -41 -86q-21 -24 -42 -24q-5 0 -11 2q-14 9 -14 28v6z" />
<glyph unicode="l" horiz-adv-x="679" d="M22 -74q-1 4 -2 12q0 14 4 38q6 36 17.5 65t36 82t49.5 115q20 53 38.5 98t40 102.5t64.5 175.5q45 133 112 299t107.5 265.5t40.5 107.5q0 36 41 50q13 5 23 4q22 0 31 -21q2 -5 2 -13q0 -30 -28 -104q-36 -94 -77 -155q-45 -70 -87 -171.5t-97 -258t-92 -252.5 q-72 -178 -92.5 -240t-20.5 -102q-1 -45 -33 -85q-26 -32 -48 -32q-6 0 -11 2q-15 6 -19 18z" />
<glyph unicode="m" horiz-adv-x="704" d="M23 77.5q0 28.5 16 59.5q18 33 106.5 283t98.5 266q6 11 26 11q6 0 13 -1q20 -2 25 -13t5 -48q-2 -55 -41 -137q-34 -75 -34 -92q0 -4 2 -6q1 -1 2 0q13 0 71 63q72 76 99 76h2q26 -2 43 -88l14 -86l64 81q47 61 73.5 75t50.5 -9q16 -16 16 -69q-1 -27 -5 -67 q-14 -112 -62 -274q-18 -68 -48 -102q-21 -24 -38 -25q-7 0 -14 5q-14 8 -14 29.5t9 53t21.5 67.5t25.5 86t19 93l11 70l-37 -41q-25 -29 -76 -129t-97 -167q-36 -52 -63 -52q-8 0 -14 4q-16 10 -12 43t30 129q47 157 47 202q0 19 -8 19q-16 0 -75.5 -79t-90.5 -138 q-35 -68 -79 -111q-32 -31 -51 -31q-8 0 -13 5q-18 16 -18 44.5z" />
<glyph unicode="n" horiz-adv-x="591" d="M21 -6q2 45 20 78q18 35 77.5 192.5t71.5 202.5q10 45 22 61q9 13 29 14q5 0 11 -1q31 -4 34 -36q1 -5 1 -11q-1 -27 -13 -57q-14 -36 -26 -67.5t-8 -35.5h1q13 0 138 80l131 86l33 -37q16 -18 21 -32.5t5 -24t-7 -43t-11 -62.5q-8 -55 -49 -142t-41 -96q0 -25 -39 -92 q-37 -63 -50 -63h-1q-32 10 -32 44q0 32 30 101q41 98 53 117q16 20 38 112q17 68 17 88q0 7 -2 9q-1 1 -4 1q-17 0 -73 -38q-64 -43 -128 -98q-66 -59 -114 -162q-41 -80 -72 -118t-49 -25q-14 9 -14 45v10z" />
<glyph unicode="o" horiz-adv-x="454" d="M23 311q12 51 79.5 160t118.5 158q64 62 64 78q1 41 63 49q12 1 21 2q44 0 59 -29q7 -13 7 -34q-1 -49 -43 -141q-60 -130 -152.5 -240.5t-147.5 -110.5q-34 1 -56 35q-16 25 -16 51q0 11 3 22zM119 319q2 -2 5 -2q15 1 57 47q50 56 93 124q38 59 38 80q0 3 -1 5 q-1 3 -4 3q-12 0 -56 -46q-54 -57 -100 -127q-35 -54 -36 -74q1 -7 4 -10z" />
<glyph unicode="p" horiz-adv-x="757" d="M20 -403q0 33 171 450.5t171 433.5q0 20 62 148q14 31 47 39t41 -19q12 -25 26.5 -19.5t38 19t45.5 26.5q14 8 30 8q9 0 20 -3q26 -8 47 -45q16 -25 18 -47v-10q0 -22 -6 -56q-12 -68 -48 -117t-105 -102q-111 -81 -157 -81q-14 0 -22 7q-20 20 -30 11q-16 -16 -115 -254 q-35 -90 -72 -185.5t-52 -137.5t-26 -54q-8 -8 -28 -15q-17 -5 -32 -5q-3 0 -6 1q-18 1 -18 7zM440 354q9 -22 30 -22q31 0 87 49q76 63 94 151q4 17 4 29q0 25 -19 25h-3q-31 -4 -90 -68q-104 -112 -104 -155q0 -5 1 -9z" />
<glyph unicode="q" horiz-adv-x="579" d="M20 188q0 78 216 293q98 100 143 132q34 24 59 24q8 0 15 -2q20 -8 30 8q9 14 32 14h6q28 -2 34 -20q2 -4 2 -10q0 -16 -13 -44q-18 -38 -128 -241q-102 -188 -170 -372q-49 -133 -49 -178q0 -18 8 -23q3 -2 9 -2q17 0 54 16q35 14 44.5 13t15.5 -15q2 -6 2 -12 q0 -31 -54 -67q-59 -39 -109 -39q-6 0 -13 1q-31 4 -36 16q-3 6 -3 28q0 18 2 46q2 86 22 144l51 133q29 78 29 87q0 5 -28 5q-19 0 -50 -2q-20 -2 -37 -2q-39 0 -58 10q-26 14 -26 59zM111 209q7 -18 25 -18q26 0 75 36q76 57 115 138q36 72 36 90q0 14 -9 14q-8 0 -23 -12 q-27 -20 -109 -105q-111 -111 -111 -139q0 -2 1 -4z" />
<glyph unicode="r" horiz-adv-x="536" d="M22 206q-1 5 -1 10q-1 17 7 39q10 30 24 60.5t33 84t34 106.5q14 53 31.5 76.5t31.5 56.5q22 53 45 86q17 30 38 30q4 0 7 -1q25 -6 21 -43q-2 -23 -37 -115q-10 -27 -4 -29q8 -2 39 25q47 38 103 66q49 24 76 25q4 0 7 -1q33 -4 37 -43q1 -7 1 -13q0 -20 -10 -27 q-13 -9 -81 -19q-35 -6 -65.5 -28t-92.5 -89q-72 -76 -98.5 -123t-35.5 -80t-36 -65q-20 -27 -30 -31q-2 -1 -5 -1q-8 0 -20 9q-15 14 -19 34z" />
<glyph unicode="s" horiz-adv-x="526" d="M20 137q-1 10 -1 19q0 60 24 69q23 8 43 -10t25 -51q4 -37 21 -42q18 -6 33 24q9 18 9 61q0 25 -3 58q-9 89 -17 174q-1 14 -1 28q0 73 33 158q23 47 84.5 97t112.5 62q50 11 79 11q18 0 28 -5q15 -8 15 -32q0 -15 -5 -35q-14 -57 -60 -80q-35 -16 -34 21q2 2 2 4 q2 33 -6.5 36t-49.5 -18q-33 -16 -47 -23.5t-29.5 -28t-19.5 -32.5t-9 -57t-5 -82v-125t1 -116v-13q0 -27 -3 -65q-4 -48 -6.5 -55t-14.5 -35.5t-20.5 -38t-32.5 -41.5q-19 -24 -39 -24l-11 2q-24 9 -63 64q-29 43 -33 121z" />
<glyph unicode="t" horiz-adv-x="475" d="M30 78q22 94 77 256t55 166q6 16 -11.5 21t-43 9.5t-35.5 12.5q-16 16 4 47t56 48t54 3q9 -7 17 -7q21 0 43 40q30 58 67 156t64 133q25 31 38 33q1 0 3 1q12 0 28 -18q8 -10 8 -26v-9q-2 -22 -22 -74q-29 -88 -57 -141l-27 -55l35 -23q33 -24 33 -52q0 -34 -41 -38 q-63 -8 -86 -23.5t-53 -76.5q-33 -66 -59.5 -178.5t-39.5 -128.5q-18 -29 -18 -54q0 -20 31.5 -30.5t48.5 6.5q12 12 36.5 12t32.5 -14q10 -16 -10 -45q-16 -25 -72.5 -39.5t-103.5 -17.5t-51 -3q-12 7 -12 36q1 27 11 73z" />
<glyph unicode="u" horiz-adv-x="653" d="M23 -25q-2 3 -2 13q0 27 16 102q14 68 50 158t136 307q25 55 46.5 68.5t43.5 -15.5q14 -18 1 -54t-95 -202q-101 -210 -101 -253q0 -11 7 -11q14 0 116.5 166t209 344t116.5 190q19 23 31 24h1q12 0 26 -17q8 -11 8 -27q0 -8 -2 -17q-6 -28 -45 -112 q-76 -164 -120 -313.5t-59.5 -209t-33.5 -67.5q-16 -6 -27.5 -17.5t-15.5 -17.5t-11.5 -5t-19.5 14q-12 16 -9 37.5t23 80.5q33 96 60 150q24 49 24 63q0 6 -4 6h-2q-12 -2 -41 -53q-66 -111 -134.5 -210t-90.5 -115q-27 -18 -59 -20q-4 0 -9 -1q-25 0 -34 14z" />
<glyph unicode="v" horiz-adv-x="505" d="M20 4v16q0 61 17 140q20 96 40.5 258.5t20.5 228.5q0 106 35 150q11 14 23 14q13 0 28 -18q8 -16 8 -58q0 -29 -4 -73q-10 -104 -25.5 -202t-17.5 -106q-6 -25 7 -24q8 0 86.5 151.5t109.5 229.5q25 59 49 82q16 15 31 15q3 0 7 -1q18 -4 18 -27q0 -10 -67 -143 t-141.5 -292t-90.5 -220q-25 -87 -56 -141q-28 -50 -51 -50h-4q-21 4 -23 70z" />
<glyph unicode="w" horiz-adv-x="802" d="M22 42q4 30 11.5 65.5t15.5 97t8 123.5q0 94 14.5 197.5t30.5 133.5q10 20 38 25.5t38 -12.5q1 -1 1 -7q0 -22 -13 -115q-16 -116 -28 -209q-6 -44 -6 -71q0 -30 7 -39q12 0 114.5 134.5t123.5 134.5q19 0 29 -58q6 -30 5 -59q-1 -27 -5 -53q-10 -56 8 -58q10 -2 20 33 q20 70 69.5 198t86.5 223q37 94 37 118q0 25 30 47q28 20 43.5 19.5t20.5 -19.5q1 -4 1 -9q0 -33 -36 -83q-37 -51 -52.5 -118t-21.5 -73q-12 -16 -69.5 -185t-77.5 -255q-41 -166 -94 -166q-41 0 -45 143q-2 131 -17 146q-4 3 -8 3q-27 0 -86 -97q-18 -29 -39 -66 q-47 -86 -71.5 -114.5t-49.5 -28.5q-23 0 -30 12q-4 7 -4 21q-1 9 1 21z" />
<glyph unicode="x" horiz-adv-x="624" d="M36 196q30 52 140 171l150 163l-25 93q-17 56 -17 91q0 22 7 36q17 37 37 37q12 0 24 -13q23 -23 33 -78q10 -53 21.5 -53t85.5 94q66 83 93 83q10 0 15 -11q4 -13 4 -20q0 -22 -36 -78q-40 -62 -101 -131l-49 -54l12 -157q10 -158 21 -195q3 -9 3 -19q0 -22 -12 -52 q-16 -44 -32 -44q-18 0 -33 26t-15 56q0 78 -9 176.5t-17 98.5q-12 0 -73.5 -83t-69 -107.5t-73.5 -68.5q-54 -36 -75 -36q-5 0 -8 2q-16 10 -16 29q0 18 15 44z" />
<glyph unicode="y" horiz-adv-x="507" d="M24 -124q9 16 42 16q8 0 18 -1h10q93 0 146 103q25 49 70.5 192.5t54.5 198.5q4 22 4 36q0 21 -10 21q-3 0 -7 -2q-16 -10 -45 -51q-45 -61 -105 -105q-46 -33 -70 -33q-8 0 -13 3q-25 17 -25 58v6q2 47 39 178q45 164 74 184q19 13 31 13q22 0 22 -41q0 -42 -27 -124 q-29 -78 -28 -104q-2 -20 2 -20.5t26 20.5q18 16 52 69.5t71 118t41 70.5q18 29 45 29h7q32 -4 36 -39q1 -9 1 -21q0 -41 -15 -123q-20 -106 -55 -227l-64 -219q-23 -78 -72 -157t-81 -91q-90 -35 -113 -37h-3q-21 0 -40 23q-23 27 -23 45q0 6 4 11z" />
<glyph unicode="z" horiz-adv-x="622" d="M115 109q88 104 88 127q0 5 -4 6q-6 2 -31 -4q-42 -13 -66 -13q-2 1 -4 1q-24 2 -37 22q-16 23 2.5 45t53.5 22q23 0 42 14.5t83 14.5q55 0 74.5 10.5t68.5 61.5q58 63 58 80q0 2 -1 4q-6 10 -77.5 21t-141.5 14q-39 2 -58.5 22.5t-8.5 48.5q8 20 58 22q6 0 11 1 q42 0 72 -17q31 -18 166 -18q123 0 136 -20q2 -3 2 -7q0 -24 -58 -90q-66 -74 -66 -84q0 -8 19.5 -24.5t32 -28.5t-7 -26.5t-85.5 -22.5q-53 -4 -77.5 -19.5t-82.5 -72.5q-83 -85 -83 -99q-1 -8 37 -11q16 -1 33 -1q22 0 46 2q41 4 51 14q16 16 27 -8q2 -7 2 -13 q0 -27 -38 -57q-46 -36 -92 -36h-5h-12q-49 0 -119 -27q-53 -21 -79 -21q-24 0 -24 19q0 36 95 148z" />
<glyph unicode="{" />
<glyph unicode="|" />
<glyph unicode="}" />
<glyph unicode="~" horiz-adv-x="1069" d="M29 457q-18 18 6.5 57t81.5 84q35 27 56.5 35t35.5 7t52 -6t79 -5t77 -17.5t82 -48.5t81 -47q16 -6 37.5 -16.5t28.5 -13.5t23.5 -8t34 -5h46.5q51 0 75.5 9.5t73.5 49.5q86 70 101.5 77t33.5 -9q16 -14 15.5 -24.5t-21.5 -36.5q-31 -39 -121 -103q-57 -41 -85.5 -52 t-76.5 -11h-43t-35.5 7t-28.5 10t-46 22.5t-62 29.5q-45 23 -96 49.5t-67.5 33.5t-43 12.5t-65.5 5.5q-51 0 -76.5 -8.5t-68.5 -42.5q-41 -31 -57.5 -38.5t-26.5 3.5z" />
<glyph unicode="&#xa2;" />
<glyph unicode="&#xa3;" horiz-adv-x="937" d="M20 70q0 100 62 172q31 35 87 32.5t96 -40t52 -23.5q12 12 43 114.5t31 131.5q0 20 -14.5 25t-73.5 5q-111 4 -143.5 15.5t-32.5 48.5q0 25 6 35t27 12q33 4 51 -10q20 -18 101 -24.5t98 7.5q20 16 30 68q12 72 64.5 241t75.5 216q31 61 86 110q37 35 55 41t55 0 q49 -6 95.5 -45t46.5 -74q0 -27 -31 -64.5t-45.5 -28.5t-5.5 40q8 33 -15.5 63.5t-56.5 30.5q-90 0 -162 -235l-78 -246q-35 -104 -26.5 -117.5t145.5 -15.5q125 0 167 -10t42 -39q0 -18 -21 -23q-25 -4 -155 -4q-125 0 -153.5 -5t-47.5 -28q-29 -35 -29 -59.5t-43 -142.5 l-43 -121l46 -37q41 -35 113.5 -44t111.5 15q33 20 53 11q14 -4 13 -13.5t-15 -36.5q-20 -43 -71.5 -52t-145.5 7.5t-121 38.5q-14 14 -21.5 16.5t-13.5 -5t-13 -18.5t-28.5 -28.5t-52.5 -29.5q-39 -18 -56.5 -19.5t-52.5 13.5q-51 23 -68.5 48t-17.5 81zM96 100 q-8 -53 21.5 -74.5t70.5 -8t60 50.5q14 23 10 35.5t-31 41.5q-49 51 -83.5 39t-47.5 -84z" />
<glyph unicode="&#xa7;" horiz-adv-x="69" d="M20 1012.5q0 13.5 14.5 13.5t14.5 -13.5t-14.5 -13.5t-14.5 13.5zM20 1489.5q0 21.5 14.5 21.5t14.5 -21.5t-14.5 -21.5t-14.5 21.5z" />
<glyph unicode="&#xab;" horiz-adv-x="833" d="M20 453q0 10 13.5 21t65 52t108.5 95q94 86 149 131q47 39 66.5 44t37 -16.5t2 -56.5t-45.5 -45q-27 -8 -105 -66.5t-131 -109.5l-49 -47l33 -33q31 -35 49 -35q20 0 23.5 -37t-17.5 -55q-25 -23 -33 -23q-14 0 -90 83t-76 98zM377 498q0 18 36 50t107.5 85t116.5 96 q63 55 98 77.5t44 19.5t20 -15l4 -4q16 -20 7 -43t-34 -23q-14 0 -39.5 -21.5t-76 -68.5t-95.5 -84q-76 -59 -76 -69q0 -8 37 -43t72 -76t33 -66q-6 -33 -27 -37q-25 -4 -126 95.5t-101 126.5z" />
<glyph unicode="&#xad;" horiz-adv-x="321" d="M21 484.5q0 25.5 16 41.5t119 17q63 0 87.5 -5.5t41.5 -23.5q25 -29 10 -53q-29 -25 -137.5 -23t-122.5 11q-14 10 -14 35.5z" />
<glyph unicode="&#xbb;" horiz-adv-x="704" d="M28.5 326.5q18.5 27.5 106.5 101.5q106 90 107 100q0 4 -34 41t-75 92.5t-55 94.5q-8 31 16 59q20 23 28.5 25t35 -12.5t26.5 -51.5q0 -33 86 -142.5t86 -123.5t-22.5 -36.5t-48.5 -33.5q-20 -8 -125 -96q-70 -57 -91.5 -69.5t-33.5 -0.5q-25 25 -6.5 52.5zM299 250 q0 20 139 149l137 129l-102 105q-78 78 -93.5 108.5t9.5 57.5q16 16 60 6q45 -8 55 -17.5t4 -31.5q-6 -25 85 -112t91 -105q0 -25 -43 -71t-98 -85q-66 -45 -133 -107q-86 -82 -107 -45q-4 8 -4 19z" />
<glyph unicode="&#xbf;" />
<glyph unicode="&#xc0;" />
<glyph unicode="&#xc1;" />
<glyph unicode="&#xc2;" />
<glyph unicode="&#xc4;" />
<glyph unicode="&#xc7;" />
<glyph unicode="&#xc8;" />
<glyph unicode="&#xc9;" />
<glyph unicode="&#xca;" />
<glyph unicode="&#xcb;" />
<glyph unicode="&#xce;" />
<glyph unicode="&#xcf;" />
<glyph unicode="&#xd1;" />
<glyph unicode="&#xd3;" />
<glyph unicode="&#xd4;" />
<glyph unicode="&#xd6;" horiz-adv-x="77" d="M24 1068.5q-7 13.5 1 21.5q12 12 22 8t10 -21q0 -23 -12 -22q-14 0 -21 13.5z" />
<glyph unicode="&#xd9;" />
<glyph unicode="&#xda;" />
<glyph unicode="&#xdb;" />
<glyph unicode="&#xdc;" />
<glyph unicode="&#xdf;" horiz-adv-x="69" d="M20 24.5q0 120.5 14.5 120.5t14.5 -120.5t-14.5 -120.5t-14.5 120.5zM20 216q0 28 14.5 28t14.5 -28t-14.5 -28t-14.5 28zM20 -323.5q0 14.5 14.5 14.5t14.5 -14.5t-14.5 -14.5t-14.5 14.5zM20 686q0 14 14.5 14t14.5 -14t-14.5 -14t-14.5 14zM20 956.5q0 14.5 14.5 14.5 t14.5 -14.5t-14.5 -14.5t-14.5 14.5z" />
<glyph unicode="&#xe0;" />
<glyph unicode="&#xe1;" />
<glyph unicode="&#xe2;" />
<glyph unicode="&#xe4;" />
<glyph unicode="&#xe7;" />
<glyph unicode="&#xe8;" />
<glyph unicode="&#xe9;" />
<glyph unicode="&#xea;" />
<glyph unicode="&#xeb;" horiz-adv-x="69" d="M20 643q0 14 14.5 14t14.5 -14t-14.5 -14t-14.5 14zM20 1026q0 14 14.5 14t14.5 -14t-14.5 -14t-14.5 14z" />
<glyph unicode="&#xee;" />
<glyph unicode="&#xef;" />
<glyph unicode="&#xf3;" />
<glyph unicode="&#xf4;" />
<glyph unicode="&#xf6;" />
<glyph unicode="&#xf9;" />
<glyph unicode="&#xfa;" horiz-adv-x="51" d="M20 793v20q0 31 5 31q8 -6 4 -45q0 -6 -2 -11q-4 -14 -7 5zM20 1040q0 20 5 23l6 -12q2 -14 -4 -27q-5 -2 -7 16zM20 1133q0 39 5 38l2 -6q8 -29 0 -59q-2 -10 -4 2q-3 9 -3 25zM23 1255v41l2 56q10 -39 2 -101q-2 -27 -4 4z" />
<glyph unicode="&#xfb;" />
<glyph unicode="&#xfc;" />
<glyph unicode="&#x2000;" horiz-adv-x="776" />
<glyph unicode="&#x2001;" horiz-adv-x="1552" />
<glyph unicode="&#x2002;" horiz-adv-x="776" />
<glyph unicode="&#x2003;" horiz-adv-x="1552" />
<glyph unicode="&#x2004;" horiz-adv-x="517" />
<glyph unicode="&#x2005;" horiz-adv-x="388" />
<glyph unicode="&#x2006;" horiz-adv-x="258" />
<glyph unicode="&#x2007;" horiz-adv-x="258" />
<glyph unicode="&#x2008;" horiz-adv-x="194" />
<glyph unicode="&#x2009;" horiz-adv-x="310" />
<glyph unicode="&#x200a;" horiz-adv-x="86" />
<glyph unicode="&#x2010;" horiz-adv-x="321" d="M21 484.5q0 25.5 16 41.5t119 17q63 0 87.5 -5.5t41.5 -23.5q25 -29 10 -53q-29 -25 -137.5 -23t-122.5 11q-14 10 -14 35.5z" />
<glyph unicode="&#x2011;" horiz-adv-x="321" d="M21 484.5q0 25.5 16 41.5t119 17q63 0 87.5 -5.5t41.5 -23.5q25 -29 10 -53q-29 -25 -137.5 -23t-122.5 11q-14 10 -14 35.5z" />
<glyph unicode="&#x2012;" horiz-adv-x="321" d="M21 484.5q0 25.5 16 41.5t119 17q63 0 87.5 -5.5t41.5 -23.5q25 -29 10 -53q-29 -25 -137.5 -23t-122.5 11q-14 10 -14 35.5z" />
<glyph unicode="&#x2013;" horiz-adv-x="1065" d="M21 484.5q0 25.5 59 41.5q58 16 435 17q231 0 321 -5.5t152 -23.5q91 -29 36 -53q-106 -25 -503 -23t-449 11q-51 10 -51 35.5z" />
<glyph unicode="&#x2014;" horiz-adv-x="2088" d="M21 484.5q0 25.5 117 41.5t872 17q461 0 640.5 -5.5t304.5 -23.5q183 -29 73 -53q-213 -25 -1007.5 -23t-896.5 11q-103 10 -103 35.5z" />
<glyph unicode="&#x201c;" horiz-adv-x="593" d="M20 1013q2 89 41 130q25 25 39.5 25.5t30.5 -21.5q10 -12 9 -26.5t-17 -47.5q-16 -37 -16.5 -47t24.5 -25q27 -18 29 -49.5t-23 -64.5q-37 -53 -80 -4q-39 41 -37 130zM395 915q-12 47 3 88.5t81 141.5q41 63 56.5 74.5t33.5 -11.5q14 -16 -13.5 -62t-50 -85t2.5 -76 q16 -18 16 -30.5t-14 -47.5q-14 -33 -25.5 -42t-35.5 -7q-25 4 -35.5 15.5t-18.5 41.5z" />
<glyph unicode="&#x201e;" horiz-adv-x="606" d="M27 -63l39 57q20 29 23 58t-7 95q-8 53 10.5 79t45 18t42.5 -37q29 -55 -0.5 -167t-83.5 -146q-18 -12 -28.5 -12.5t-28.5 14.5q-27 20 -12 41zM371.5 -172q23.5 43 62.5 88t52.5 95t-33.5 83q-33 20 -34 51t30 58q29 25 52 25.5t54 -19.5q33 -23 32 -102.5t-36 -145.5 t-97.5 -134.5t-76.5 -59.5q-29 18 -5.5 61z" />
<glyph unicode="&#x2022;" />
<glyph unicode="&#x202f;" horiz-adv-x="310" />
<glyph unicode="&#x205f;" horiz-adv-x="388" />
<glyph unicode="&#x20ac;" horiz-adv-x="1101" d="M25 709q-10 20 8 41q14 14 29.5 14t62.5 -14q84 -25 105.5 -15t62.5 99q66 139 198 280t220 164q35 8 129 -23l96 -30l25 30q25 31 24.5 47.5t22.5 49.5q16 25 27.5 27.5t33.5 -9.5q16 -10 10 -56t-30 -83q-20 -33 -21 -55q0 -14 -11 -40t-32.5 -71t-36.5 -80 q-25 -66 -53 -90q-18 -18 -26.5 -18t-22.5 14t-15.5 26.5t11.5 43.5q55 135 49 157q-2 12 -29 33q-39 31 -83 38t-70.5 0t-60.5 -22.5t-36 -15.5q-35 -12 -108.5 -106.5t-126.5 -190.5t-37 -113q12 -12 144 9.5t151 15.5q20 -8 22 -33.5t-18 -54.5q-12 -16 -23.5 -18.5 t-40.5 10.5q-20 8 -32.5 10t-21.5 -1t-40.5 -9t-74.5 -11q-96 -10 -96.5 -30.5t98.5 -30.5q80 -8 102 -20.5t16 -42.5q-2 -16 -17 -20.5t-69 -2.5q-90 4 -113.5 -15.5t-23.5 -99.5q2 -104 22.5 -154t75.5 -85q102 -61 177 -33q14 6 35.5 33.5t38 48t24.5 10.5q14 -12 3 -57 t-38 -78q-29 -37 -100.5 -37t-149.5 39q-94 47 -122.5 90t-37.5 154q-12 127 -21 144t-77 7q-66 -8 -94.5 10.5t-9.5 57.5q10 25 27.5 32t70.5 11q53 2 68.5 7t15.5 24q0 29 -43 30q-121 10 -143 58z" />
<glyph unicode="&#xe000;" horiz-adv-x="819" d="M0 0v819h819v-819h-819z" />
</font>
</defs>
</svg>
