<?xml version="1.0" encoding="utf-8"?>
<!-- Generator: Adobe Illustrator 18.0.0, SVG Export Plug-In . SVG Version: 6.00 Build 0)  -->
<!DOCTYPE svg PUBLIC "-//W3C//DTD SVG 1.1//EN" "http://www.w3.org/Graphics/SVG/1.1/DTD/svg11.dtd">
<svg version="1.1" id="Layer_1" xmlns="http://www.w3.org/2000/svg" xmlns:xlink="http://www.w3.org/1999/xlink" x="0px" y="0px"
	 viewBox="0 0 182 180.4" style="enable-background:new 0 0 182 180.4;" xml:space="preserve">
<path id="SVGID_x5F_1_x5F_" style="fill:none;" d="M-509.4-130.9c0-29.9-24.2-54.1-54.1-54.1c-29.9,0-54.1,24.2-54.1,54.1
	c0,29.9,24.2,54.1,54.1,54.1C-533.7-76.8-509.5-101-509.4-130.9z"/>
<text style="display:none;"><textPath  xlink:href="#SVGID_x5F_1_x5F_" startOffset="113.8427%"  style="display:inline;">
<tspan  style="font-family:'Futura-Book'; font-size:6.2269; letter-spacing:-160;">SSSSSSSSSSSSSSSSSSSSSSSSSSSSSSSSSSSSSSSSSSSSSSSSSSSSSSSSSSSSSSSSSSSSSSSSSSSSSSSSSSSSSSSSSSSSSSSSSSS</tspan></textPath>
</text>
<g>
	<g>
		<g>
			<g>
				<g>
					<g>
						<g>
							<path d="M80.3,84.8l2.3,3.7l4.2-5.4C84.5,83.7,82.4,84.3,80.3,84.8z"/>
						</g>
					</g>
					<g>
						<path d="M144.8,62.9c0,0-0.9-2.1-2.3-3.4c-2-2.5-7.2-3.4-9.6-3.4c-0.3,0-0.8,0-1.3,0c-0.9,0-1.7,0.1-2.5,0.3
							c-4.7,0.3-10.7,2.1-19.3,7.5c-7.8,4.9-15.6,12.6-21.7,19.5c-0.3,0.4-0.8,1-1.1,1.3l-0.1,0.1c0,0-28.4,39.4-42.1,29.2
							c-0.2-0.1-0.7-1.1-0.9-1.5c-0.5-1-0.1-2.9,0-3.2c1.2-2.8,4.7-4.8,4.7-4.8s2.3-1.8,9.2-4.8l-3.2-5.5l-2.2,0.8
							c-12.3,5.7-15.2,12.7-15.9,17.3c-0.5,3.3,1.6,6.2,1.6,6.2s8.1,12.2,32.3-2.8c8.3-5.1,16.7-13.8,22.9-20.8l0.1-0.1
							c0,0,1.8-2.1,2.4-2.8c5-6.2,27.9-33.2,40.7-26.2c0.5,0.3,0.8,0.5,1,1c2.2,5.9-8.8,11.6-13.9,13.8l2.8,5
							c0.6-0.2,0.6-0.3,1.2-0.5c4.2-1.8,7.4-3.7,9.9-5.5c3.6-2.7,5.6-5.4,6.7-7.9C145.7,67.9,145.4,64.9,144.8,62.9z"/>
					</g>
					<g>
						<path d="M98.6,90.8L95.1,95c0.6,0,1.4-0.1,1.9-0.1c0.5-0.1,1.2,0,3-0.2c0,0,0.2,0,0.6-0.1L98.6,90.8l2.1,3.8"/>
					</g>
					<g>
						<g>
							<path d="M68.9,39.4L65,32.8l-12.5,7.4l0,0L31.8,52.3l32.4,55.1c6.7-5.4,13.2-12.7,17.4-17.8L56.4,46.8L68.9,39.4z"/>
						</g>
						<g>
							<path d="M109.2,62.6c0.6-0.4,1.2-0.8,1.8-1.1l-8.9-15.1l12.5-7.4l-3.9-6.7l-12.5,7.4l0,0L77.5,51.9l14.7,25.1
								C97.4,71.6,103.3,66.3,109.2,62.6z"/>
						</g>
					</g>
					<g>
						<g>
							<path d="M71.6,116.6c-0.5,0.3-1.1,0.6-1.6,1l8.9,15.2l-12.6,7.4l3.9,6.7l12.6-7.4l0,0l20.7-12.2L88.7,102
								C83.5,107.4,77.5,112.9,71.6,116.6z"/>
						</g>
						<g>
							<path d="M117.4,72.5c-7.1,5.3-13.8,12.6-17.8,17.2l25.1,42.6l-12.6,7.4l3.9,6.7l12.6-7.4l0,0l20.7-12.2L117.4,72.5z"/>
						</g>
					</g>
				</g>
			</g>
			<g>
				<g>
					<path d="M148.7,142.5c-0.6-0.1-1.1-0.1-1.6,0.4c-0.5,0.5-0.5,1.3,0,1.8c0.5,0.5,1.2,0.2,1.8-0.1l0.5-0.2c1-0.4,2-0.7,2.9,0.1
						c1,1,1,2.5,0.1,3.5c-0.9,0.9-2.1,1.1-3.2,0.4l0.4-0.8c0.7,0.5,1.6,0.5,2.2-0.1c0.6-0.6,0.6-1.6,0-2.3c-0.7-0.6-1.4-0.3-2.2,0
						l-0.5,0.2c-0.9,0.4-1.8,0.6-2.7-0.1c-0.9-0.8-0.8-2.1,0.1-3c0.6-0.6,1.5-0.9,2.3-0.6L148.7,142.5z"/>
					<path d="M151.5,139.4c-0.6-0.1-1.1,0-1.5,0.5c-0.5,0.5-0.5,1.3,0.1,1.8c0.5,0.4,1.2,0.1,1.8-0.1l0.5-0.3c1-0.5,2-0.8,2.9,0
						c1.1,0.9,1.1,2.4,0.2,3.5c-0.8,1-2.1,1.2-3.2,0.6l0.4-0.8c0.7,0.4,1.6,0.4,2.2-0.3c0.6-0.7,0.6-1.7-0.1-2.2
						c-0.7-0.6-1.4-0.3-2.2,0.1l-0.5,0.2c-0.9,0.4-1.8,0.7-2.7,0c-0.9-0.8-0.9-2.1-0.1-3c0.6-0.7,1.4-0.9,2.3-0.8L151.5,139.4z"/>
					<path d="M154,136.1c-0.6-0.1-1.1,0-1.5,0.6c-0.4,0.6-0.4,1.4,0.2,1.8c0.5,0.4,1.2,0,1.7-0.2l0.5-0.3c1-0.5,1.9-0.9,2.9-0.2
						c1.1,0.8,1.3,2.4,0.4,3.5c-0.8,1-2,1.3-3.1,0.7l0.3-0.8c0.7,0.4,1.6,0.3,2.1-0.4c0.5-0.7,0.5-1.7-0.2-2.2
						c-0.7-0.6-1.4-0.2-2.1,0.2l-0.5,0.3c-0.9,0.5-1.8,0.8-2.7,0.1c-1-0.7-1-2.1-0.3-3c0.5-0.7,1.4-1,2.2-0.9L154,136.1z"/>
					<path d="M156.4,132.8c-0.6,0-1.1,0.1-1.5,0.6c-0.4,0.6-0.3,1.4,0.3,1.8c0.6,0.4,1.2,0,1.7-0.3l0.5-0.3c1-0.6,1.9-1,2.9-0.3
						c1.1,0.8,1.4,2.3,0.6,3.4c-0.7,1.1-1.9,1.4-3.1,0.9l0.3-0.8c0.7,0.4,1.6,0.2,2.1-0.5c0.5-0.7,0.4-1.7-0.4-2.2
						c-0.8-0.5-1.4-0.1-2.1,0.3l-0.4,0.3c-0.9,0.5-1.7,0.9-2.7,0.3c-1-0.7-1.1-2-0.4-3c0.5-0.7,1.3-1.1,2.2-1L156.4,132.8z"/>
					<path d="M158.5,129.2c-0.6,0-1.1,0.1-1.5,0.7c-0.4,0.6-0.3,1.4,0.4,1.8c0.6,0.4,1.2-0.1,1.7-0.4l0.5-0.3
						c0.9-0.6,1.8-1.1,2.9-0.5c1.2,0.7,1.5,2.2,0.8,3.4c-0.7,1.1-1.9,1.5-3,1.1l0.2-0.9c0.8,0.3,1.6,0.1,2.1-0.6
						c0.4-0.7,0.3-1.7-0.5-2.2c-0.8-0.5-1.4,0-2.1,0.4l-0.4,0.3c-0.8,0.6-1.7,1-2.6,0.4c-1.1-0.6-1.2-1.9-0.6-3
						c0.5-0.8,1.2-1.2,2.1-1.1L158.5,129.2z"/>
					<path d="M160.5,125.6c-0.6,0-1.1,0.2-1.4,0.8c-0.3,0.6-0.2,1.4,0.5,1.7c0.6,0.3,1.2-0.1,1.7-0.5l0.5-0.4
						c0.9-0.7,1.8-1.2,2.9-0.6c1.2,0.7,1.6,2.1,1,3.4c-0.6,1.1-1.8,1.6-3,1.2l0.2-0.9c0.8,0.3,1.7,0,2.1-0.7
						c0.4-0.8,0.2-1.7-0.6-2.2c-0.8-0.4-1.4,0.1-2.1,0.5l-0.4,0.3c-0.8,0.6-1.6,1.1-2.6,0.6c-1.1-0.6-1.3-1.9-0.7-2.9
						c0.4-0.8,1.2-1.2,2.1-1.2L160.5,125.6z"/>
					<path d="M162.3,121.9c-0.6,0-1.1,0.3-1.4,0.9c-0.3,0.6-0.1,1.4,0.6,1.7c0.6,0.3,1.2-0.2,1.7-0.6l0.4-0.4
						c0.9-0.7,1.7-1.3,2.8-0.8c1.3,0.6,1.7,2.1,1.2,3.3c-0.5,1.2-1.7,1.7-2.9,1.4l0.2-0.9c0.8,0.2,1.7,0,2-0.8
						c0.4-0.8,0.1-1.8-0.7-2.1c-0.8-0.4-1.4,0.1-2.1,0.7l-0.4,0.3c-0.8,0.7-1.5,1.2-2.6,0.7c-1.1-0.5-1.4-1.8-0.9-2.9
						c0.4-0.8,1.1-1.3,2-1.3L162.3,121.9z"/>
					<path d="M163.9,118.1c-0.6,0.1-1.1,0.3-1.3,0.9c-0.3,0.7,0,1.4,0.6,1.7c0.6,0.3,1.2-0.3,1.6-0.7l0.4-0.4
						c0.8-0.8,1.6-1.4,2.8-0.9c1.3,0.5,1.9,2,1.3,3.2c-0.5,1.2-1.6,1.8-2.8,1.5l0.1-0.9c0.8,0.2,1.6-0.1,2-0.9
						c0.3-0.8,0-1.8-0.8-2.1c-0.9-0.4-1.4,0.2-2,0.8l-0.4,0.4c-0.7,0.7-1.5,1.3-2.5,0.8c-1.1-0.5-1.5-1.7-1-2.8
						c0.3-0.8,1-1.3,1.9-1.4L163.9,118.1z"/>
					<path d="M165.3,114.2c-0.6,0.1-1,0.4-1.3,1c-0.2,0.7,0,1.4,0.7,1.7c0.6,0.2,1.2-0.3,1.6-0.8l0.4-0.4c0.8-0.8,1.5-1.5,2.7-1.1
						c1.3,0.5,2,1.9,1.5,3.2c-0.4,1.2-1.5,1.8-2.8,1.7l0.1-0.9c0.8,0.2,1.6-0.2,1.9-1c0.3-0.8-0.1-1.8-0.9-2.1
						c-0.9-0.3-1.4,0.3-2,0.9l-0.4,0.4c-0.7,0.7-1.4,1.3-2.5,1c-1.2-0.4-1.6-1.7-1.2-2.8c0.3-0.8,1-1.4,1.8-1.5L165.3,114.2z"/>
					<path d="M166.5,110.2c-0.6,0.2-1,0.4-1.2,1.1c-0.2,0.7,0.1,1.4,0.8,1.6c0.7,0.2,1.2-0.4,1.5-0.8l0.4-0.4
						c0.7-0.9,1.5-1.6,2.7-1.2c1.3,0.4,2,1.8,1.7,3.1c-0.4,1.2-1.4,1.9-2.7,1.8l0-0.9c0.8,0.1,1.6-0.3,1.9-1.1c0.2-0.8-0.2-1.8-1-2
						c-0.9-0.3-1.4,0.4-1.9,1l-0.3,0.4c-0.7,0.8-1.3,1.4-2.4,1.1c-1.2-0.3-1.7-1.6-1.3-2.7c0.2-0.9,0.9-1.4,1.8-1.6L166.5,110.2z"/>
					<path d="M167.4,106.2c-0.6,0.2-1,0.5-1.2,1.1c-0.2,0.7,0.2,1.4,0.9,1.6c0.7,0.2,1.1-0.5,1.5-0.9l0.3-0.5
						c0.7-0.9,1.4-1.6,2.6-1.3c1.4,0.3,2.1,1.7,1.8,3c-0.3,1.2-1.3,2-2.6,1.9l0-0.9c0.8,0.1,1.6-0.4,1.8-1.2
						c0.2-0.8-0.3-1.7-1.1-1.9c-0.9-0.2-1.4,0.4-1.9,1.1l-0.3,0.4c-0.6,0.8-1.3,1.5-2.4,1.2c-1.2-0.3-1.7-1.5-1.5-2.6
						c0.2-0.9,0.8-1.5,1.7-1.7L167.4,106.2z"/>
					<path d="M168.2,102.2c-0.6,0.2-1,0.5-1.1,1.2c-0.1,0.7,0.3,1.4,1,1.5c0.7,0.1,1.1-0.5,1.4-1l0.3-0.5c0.6-0.9,1.3-1.7,2.5-1.5
						c1.4,0.2,2.2,1.5,2,2.9c-0.2,1.3-1.2,2-2.5,2.1l-0.1-0.9c0.8,0,1.6-0.5,1.7-1.3c0.2-0.8-0.4-1.7-1.2-1.9
						c-0.9-0.2-1.4,0.5-1.8,1.2l-0.3,0.4c-0.6,0.8-1.2,1.5-2.3,1.3c-1.2-0.2-1.8-1.4-1.6-2.6c0.2-0.9,0.7-1.5,1.6-1.8L168.2,102.2z"
						/>
					<path d="M168.8,98.1c-0.6,0.2-0.9,0.6-1,1.2c-0.1,0.7,0.3,1.4,1.1,1.5c0.7,0.1,1.1-0.6,1.4-1.1l0.3-0.5c0.6-1,1.2-1.8,2.5-1.6
						c1.4,0.2,2.3,1.4,2.1,2.8c-0.2,1.3-1.1,2.1-2.4,2.2l-0.1-0.9c0.8,0,1.6-0.5,1.7-1.4c0.1-0.8-0.4-1.7-1.3-1.8
						c-0.9-0.1-1.3,0.6-1.8,1.3l-0.3,0.5c-0.5,0.9-1.1,1.6-2.2,1.5c-1.2-0.2-1.9-1.3-1.7-2.5c0.1-0.9,0.7-1.6,1.5-1.9L168.8,98.1z"
						/>
					<path d="M169.1,94c-0.6,0.3-0.9,0.6-1,1.3c-0.1,0.7,0.4,1.4,1.1,1.4c0.7,0,1.1-0.6,1.3-1.1l0.3-0.5c0.5-1,1.1-1.8,2.4-1.7
						c1.4,0.1,2.4,1.3,2.3,2.7c-0.1,1.3-1,2.2-2.2,2.3l-0.2-0.9c0.8-0.1,1.5-0.6,1.6-1.5c0.1-0.8-0.5-1.7-1.4-1.7
						c-0.9-0.1-1.3,0.6-1.7,1.3l-0.2,0.5c-0.5,0.9-1,1.7-2.2,1.6c-1.2-0.1-1.9-1.2-1.9-2.4c0.1-0.9,0.6-1.6,1.4-2L169.1,94z"/>
					<path d="M169.2,89.8c-0.6,0.3-0.9,0.7-0.9,1.4c0,0.7,0.5,1.3,1.2,1.3c0.7,0,1-0.7,1.3-1.2l0.2-0.5c0.5-1,1-1.9,2.3-1.9
						c1.4,0,2.4,1.2,2.4,2.6c0,1.3-0.9,2.2-2.1,2.4l-0.2-0.9c0.8-0.1,1.5-0.7,1.5-1.6c0-0.9-0.6-1.6-1.5-1.7c-0.9,0-1.3,0.7-1.6,1.4
						l-0.2,0.5c-0.4,0.9-0.9,1.7-2.1,1.7c-1.2,0-2-1.1-2-2.3c0-0.9,0.5-1.6,1.3-2L169.2,89.8z"/>
					<path d="M169.1,85.7c-0.5,0.3-0.8,0.7-0.8,1.4c0,0.7,0.5,1.3,1.3,1.3c0.7,0,1-0.7,1.2-1.3l0.2-0.5c0.4-1,0.9-1.9,2.2-2
						c1.4,0,2.5,1,2.5,2.4c0,1.3-0.8,2.2-2,2.5l-0.3-0.9c0.8-0.1,1.5-0.8,1.4-1.6c0-0.9-0.7-1.6-1.6-1.6c-0.9,0-1.2,0.8-1.5,1.5
						l-0.2,0.5c-0.4,0.9-0.8,1.8-2,1.8c-1.2,0-2.1-1-2.1-2.2c0-0.9,0.4-1.7,1.2-2.1L169.1,85.7z"/>
					<path d="M168.8,81.6c-0.5,0.4-0.8,0.8-0.7,1.4c0.1,0.7,0.6,1.3,1.3,1.2c0.7-0.1,0.9-0.8,1.1-1.3l0.2-0.5c0.4-1.1,0.8-2,2.1-2.1
						c1.4-0.1,2.5,0.9,2.7,2.3c0.1,1.3-0.6,2.3-1.8,2.6l-0.3-0.8c0.8-0.2,1.4-0.9,1.3-1.7c-0.1-0.9-0.8-1.6-1.7-1.5
						c-0.9,0.1-1.2,0.8-1.5,1.6l-0.2,0.5c-0.3,1-0.8,1.8-1.9,1.9c-1.2,0.1-2.1-0.9-2.2-2.1c-0.1-0.9,0.3-1.7,1.1-2.2L168.8,81.6z"/>
					<path d="M168.3,77.5c-0.5,0.4-0.8,0.8-0.7,1.5c0.1,0.7,0.7,1.2,1.4,1.1c0.7-0.1,0.9-0.8,1.1-1.4l0.2-0.6c0.3-1.1,0.7-2,2-2.2
						c1.4-0.2,2.6,0.8,2.8,2.1c0.2,1.3-0.5,2.3-1.7,2.7l-0.4-0.8c0.8-0.2,1.4-0.9,1.2-1.8c-0.1-0.8-0.9-1.5-1.8-1.4
						c-0.9,0.1-1.1,0.9-1.4,1.7l-0.1,0.5c-0.3,1-0.7,1.8-1.8,2c-1.2,0.2-2.1-0.8-2.3-1.9c-0.1-0.9,0.2-1.7,0.9-2.2L168.3,77.5z"/>
					<path d="M167.6,73.5c-0.5,0.4-0.7,0.8-0.6,1.5c0.1,0.7,0.7,1.2,1.5,1.1c0.7-0.1,0.9-0.9,1-1.5l0.1-0.6c0.3-1.1,0.6-2.1,1.8-2.3
						c1.4-0.3,2.6,0.6,2.9,2c0.2,1.3-0.4,2.3-1.6,2.8l-0.4-0.8c0.8-0.3,1.3-1,1.2-1.8c-0.2-0.8-0.9-1.5-1.8-1.3
						c-0.9,0.2-1.1,0.9-1.3,1.7l-0.1,0.5c-0.2,1-0.6,1.9-1.7,2.1c-1.2,0.2-2.2-0.6-2.4-1.8c-0.2-0.9,0.1-1.7,0.8-2.3L167.6,73.5z"/>
					<path d="M166.6,69.4c-0.5,0.4-0.7,0.9-0.5,1.5c0.2,0.7,0.8,1.2,1.5,1c0.7-0.2,0.8-0.9,0.9-1.5l0.1-0.6c0.2-1.1,0.5-2.1,1.7-2.4
						c1.4-0.3,2.7,0.5,3,1.8c0.3,1.2-0.3,2.4-1.4,2.9l-0.4-0.8c0.8-0.3,1.3-1.1,1.1-1.9c-0.2-0.8-1-1.4-1.9-1.2
						c-0.9,0.2-1,1-1.2,1.8l-0.1,0.5c-0.2,1-0.5,1.9-1.6,2.2c-1.2,0.3-2.2-0.5-2.5-1.7c-0.2-0.9,0.1-1.7,0.7-2.3L166.6,69.4z"/>
					<path d="M165.4,65.5c-0.4,0.5-0.6,0.9-0.4,1.6c0.2,0.7,0.9,1.1,1.6,0.9c0.7-0.2,0.8-1,0.8-1.6l0.1-0.6c0.1-1.1,0.4-2.1,1.6-2.5
						c1.3-0.4,2.7,0.4,3.1,1.7c0.4,1.2-0.1,2.4-1.3,3l-0.5-0.8c0.7-0.3,1.2-1.1,1-2c-0.2-0.8-1.1-1.4-2-1.1c-0.9,0.3-1,1.1-1.1,1.9
						l-0.1,0.5c-0.1,1-0.4,1.9-1.5,2.2c-1.2,0.4-2.2-0.4-2.6-1.5c-0.3-0.9,0-1.7,0.6-2.3L165.4,65.5z"/>
					<path d="M164.1,61.6c-0.4,0.5-0.6,0.9-0.3,1.6c0.2,0.7,0.9,1.1,1.6,0.8c0.6-0.2,0.7-1,0.7-1.6l0-0.6c0.1-1.1,0.3-2.1,1.5-2.6
						c1.3-0.5,2.7,0.2,3.2,1.5c0.4,1.2,0,2.4-1.1,3l-0.5-0.7c0.7-0.4,1.1-1.2,0.8-2c-0.3-0.8-1.2-1.3-2-1c-0.9,0.3-0.9,1.1-1,1.9
						l0,0.5c-0.1,1-0.3,1.9-1.3,2.3c-1.2,0.4-2.3-0.3-2.7-1.4c-0.3-0.8-0.1-1.7,0.5-2.4L164.1,61.6z"/>
					<path d="M162.5,57.7c-0.4,0.5-0.5,1-0.3,1.6c0.3,0.7,1,1,1.7,0.7c0.6-0.3,0.6-1,0.7-1.6l0-0.6c0-1.1,0.2-2.1,1.3-2.6
						c1.3-0.5,2.7,0.1,3.2,1.3c0.5,1.2,0.1,2.4-0.9,3.1l-0.6-0.7c0.7-0.4,1.1-1.3,0.7-2c-0.3-0.8-1.2-1.3-2.1-0.9
						c-0.9,0.4-0.9,1.2-0.9,2l0,0.5c0,1-0.2,1.9-1.2,2.4c-1.1,0.5-2.3-0.2-2.7-1.3c-0.3-0.8-0.2-1.7,0.3-2.4L162.5,57.7z"/>
					<path d="M160.7,54c-0.4,0.5-0.5,1-0.2,1.6c0.3,0.6,1,1,1.7,0.7c0.6-0.3,0.6-1.1,0.6-1.7l0-0.6c0-1.1,0-2.1,1.2-2.7
						c1.3-0.6,2.7-0.1,3.3,1.2c0.6,1.2,0.2,2.4-0.8,3.1l-0.6-0.7c0.7-0.5,1-1.3,0.6-2.1c-0.4-0.8-1.3-1.2-2.1-0.8
						c-0.8,0.4-0.8,1.2-0.8,2l0,0.5c0,1-0.1,1.9-1.1,2.4c-1.1,0.5-2.3-0.1-2.8-1.1c-0.4-0.8-0.3-1.7,0.2-2.4L160.7,54z"/>
					<path d="M158.8,50.4c-0.3,0.5-0.4,1-0.1,1.6c0.3,0.6,1.1,0.9,1.7,0.6c0.6-0.3,0.5-1.1,0.5-1.7l-0.1-0.6c-0.1-1.1-0.1-2.1,1-2.8
						c1.2-0.7,2.7-0.2,3.4,1c0.6,1.1,0.4,2.3-0.6,3.2l-0.6-0.6c0.7-0.5,0.9-1.4,0.5-2.1c-0.4-0.7-1.4-1.1-2.1-0.7
						c-0.8,0.4-0.7,1.2-0.7,2l0,0.5c0.1,1,0.1,1.9-0.9,2.5c-1.1,0.6-2.3,0.1-2.8-1c-0.4-0.8-0.4-1.6,0.1-2.4L158.8,50.4z"/>
					<path d="M156.6,46.9c-0.3,0.6-0.4,1,0,1.6c0.4,0.6,1.1,0.9,1.7,0.5c0.6-0.4,0.5-1.1,0.4-1.7l-0.1-0.6c-0.2-1.1-0.2-2.1,0.9-2.8
						c1.2-0.7,2.7-0.3,3.4,0.8c0.7,1.1,0.5,2.3-0.4,3.2l-0.7-0.6c0.6-0.5,0.9-1.4,0.4-2.1c-0.5-0.7-1.4-1-2.2-0.6
						c-0.8,0.5-0.7,1.3-0.6,2.1l0.1,0.5c0.1,1,0.2,1.9-0.8,2.5c-1,0.6-2.3,0.2-2.9-0.8c-0.5-0.8-0.5-1.6,0-2.4L156.6,46.9z"/>
					<path d="M154.3,43.5c-0.3,0.6-0.3,1.1,0.1,1.6c0.4,0.6,1.2,0.8,1.8,0.4c0.6-0.4,0.4-1.2,0.3-1.7l-0.1-0.6
						c-0.2-1.1-0.3-2.1,0.7-2.8c1.1-0.8,2.7-0.5,3.4,0.6c0.7,1,0.6,2.3-0.3,3.2l-0.7-0.6c0.6-0.6,0.8-1.4,0.3-2.1
						c-0.5-0.7-1.5-1-2.2-0.5c-0.8,0.5-0.6,1.3-0.5,2.1l0.1,0.5c0.2,1,0.3,1.9-0.7,2.6c-1,0.7-2.3,0.3-2.9-0.7
						c-0.5-0.7-0.6-1.6-0.2-2.4L154.3,43.5z"/>
					<path d="M151.8,40.2c-0.2,0.6-0.3,1.1,0.2,1.6c0.4,0.6,1.2,0.7,1.8,0.3c0.5-0.4,0.4-1.2,0.2-1.7l-0.1-0.6
						c-0.3-1.1-0.4-2.1,0.6-2.9c1.1-0.8,2.6-0.6,3.5,0.5c0.8,1,0.7,2.3-0.1,3.2l-0.7-0.5c0.6-0.6,0.7-1.5,0.2-2.2
						c-0.5-0.7-1.5-0.9-2.2-0.3c-0.7,0.6-0.5,1.3-0.4,2.1l0.1,0.5c0.2,1,0.4,1.9-0.5,2.6c-1,0.8-2.2,0.4-3-0.5
						c-0.5-0.7-0.6-1.6-0.3-2.4L151.8,40.2z"/>
					<path d="M149.1,37.1c-0.2,0.6-0.2,1.1,0.2,1.6c0.5,0.5,1.2,0.7,1.8,0.2c0.5-0.4,0.3-1.2,0.1-1.8l-0.2-0.5
						c-0.3-1.1-0.5-2.1,0.4-2.9c1.1-0.9,2.6-0.8,3.5,0.3c0.8,1,0.8,2.2,0.1,3.2l-0.7-0.5c0.5-0.6,0.6-1.5,0.1-2.2
						c-0.6-0.6-1.6-0.8-2.2-0.2c-0.7,0.6-0.5,1.4-0.2,2.1l0.2,0.5c0.3,1,0.5,1.9-0.4,2.6c-0.9,0.8-2.2,0.5-3-0.4
						c-0.6-0.7-0.7-1.5-0.4-2.4L149.1,37.1z"/>
					<path d="M146.3,34c-0.2,0.6-0.1,1.1,0.3,1.6c0.5,0.5,1.3,0.6,1.8,0.1c0.5-0.5,0.2-1.2,0-1.8l-0.2-0.5c-0.4-1.1-0.6-2,0.3-2.9
						c1-1,2.5-0.9,3.5,0.1c0.9,0.9,0.9,2.2,0.2,3.2l-0.8-0.5c0.5-0.6,0.6-1.6,0-2.2c-0.6-0.6-1.6-0.7-2.3-0.1
						c-0.7,0.6-0.4,1.4-0.1,2.2l0.2,0.5c0.3,1,0.6,1.9-0.3,2.7c-0.9,0.9-2.2,0.7-3-0.2c-0.6-0.6-0.8-1.5-0.5-2.3L146.3,34z"/>
					<path d="M143.3,31.2c-0.1,0.6-0.1,1.1,0.4,1.6c0.5,0.5,1.3,0.5,1.8,0c0.5-0.5,0.2-1.2-0.1-1.8l-0.2-0.5c-0.4-1-0.7-2,0.1-2.9
						c1-1,2.5-1,3.5-0.1c0.9,0.9,1.1,2.1,0.4,3.2l-0.8-0.4c0.5-0.7,0.5-1.6-0.1-2.2c-0.6-0.6-1.6-0.6-2.3,0c-0.6,0.7-0.3,1.4,0,2.2
						l0.2,0.5c0.4,0.9,0.6,1.8-0.1,2.7c-0.8,0.9-2.1,0.8-3,0c-0.6-0.6-0.9-1.4-0.7-2.3L143.3,31.2z"/>
					<path d="M140.2,28.5c-0.1,0.6,0,1.1,0.5,1.5c0.5,0.5,1.3,0.5,1.8-0.1c0.4-0.5,0.1-1.2-0.1-1.8l-0.3-0.5c-0.5-1-0.8-2,0-2.9
						c0.9-1.1,2.4-1.2,3.5-0.3c1,0.8,1.2,2.1,0.6,3.2l-0.8-0.4c0.4-0.7,0.4-1.6-0.3-2.2c-0.7-0.5-1.7-0.6-2.2,0.1
						c-0.6,0.7-0.2,1.4,0.1,2.2l0.2,0.5c0.4,0.9,0.7,1.8,0,2.7c-0.8,0.9-2.1,0.9-3,0.1c-0.7-0.6-1-1.4-0.8-2.3L140.2,28.5z"/>
					<path d="M136.9,26c-0.1,0.6,0,1.1,0.6,1.5c0.6,0.4,1.4,0.4,1.8-0.2c0.4-0.5,0-1.2-0.2-1.7l-0.3-0.5c-0.5-1-0.9-1.9-0.2-2.9
						c0.8-1.1,2.4-1.3,3.5-0.5c1,0.8,1.3,2,0.7,3.1l-0.8-0.3c0.4-0.7,0.3-1.6-0.4-2.1c-0.7-0.5-1.7-0.5-2.2,0.2
						c-0.6,0.7-0.2,1.4,0.2,2.1l0.3,0.5c0.5,0.9,0.8,1.8,0.1,2.7c-0.7,1-2.1,1-3,0.3c-0.7-0.5-1-1.3-0.9-2.2L136.9,26z"/>
					<path d="M133.5,23.7c0,0.6,0.1,1.1,0.7,1.5c0.6,0.4,1.4,0.3,1.8-0.3c0.4-0.6,0-1.2-0.3-1.7l-0.3-0.5c-0.6-1-1-1.9-0.3-2.9
						c0.8-1.2,2.3-1.4,3.4-0.6c1.1,0.7,1.4,1.9,0.9,3.1l-0.9-0.3c0.4-0.7,0.2-1.6-0.5-2.1c-0.7-0.5-1.7-0.4-2.2,0.4
						c-0.5,0.8-0.1,1.4,0.3,2.1l0.3,0.4c0.5,0.9,0.9,1.7,0.3,2.7c-0.7,1-2,1.1-3,0.4c-0.7-0.5-1.1-1.3-1-2.2L133.5,23.7z"/>
					<path d="M130,21.5c0,0.6,0.1,1.1,0.7,1.4c0.6,0.4,1.4,0.2,1.8-0.4c0.4-0.6-0.1-1.2-0.4-1.7l-0.3-0.5c-0.6-0.9-1.1-1.8-0.5-2.9
						c0.7-1.2,2.2-1.5,3.4-0.8c1.1,0.7,1.5,1.9,1.1,3l-0.9-0.2c0.3-0.8,0.1-1.6-0.6-2.1c-0.7-0.4-1.7-0.3-2.2,0.5
						c-0.5,0.8,0,1.4,0.4,2.1l0.3,0.4c0.6,0.8,1,1.7,0.4,2.6c-0.6,1.1-1.9,1.2-3,0.6c-0.8-0.5-1.2-1.2-1.1-2.1L130,21.5z"/>
					<path d="M126.3,19.5c0,0.6,0.2,1.1,0.8,1.4c0.6,0.3,1.4,0.2,1.7-0.5c0.3-0.6-0.2-1.2-0.5-1.7l-0.4-0.5
						c-0.7-0.9-1.2-1.8-0.6-2.9c0.7-1.2,2.1-1.6,3.4-1c1.1,0.6,1.6,1.8,1.2,3l-0.9-0.2c0.3-0.8,0-1.7-0.7-2.1
						c-0.8-0.4-1.8-0.2-2.2,0.6c-0.4,0.8,0.1,1.4,0.5,2.1l0.3,0.4c0.6,0.8,1.1,1.6,0.6,2.6c-0.6,1.1-1.9,1.3-2.9,0.7
						c-0.8-0.4-1.2-1.2-1.2-2.1L126.3,19.5z"/>
					<path d="M122.6,17.8c0.1,0.6,0.3,1.1,0.9,1.4c0.6,0.3,1.4,0.1,1.7-0.6c0.3-0.6-0.2-1.2-0.6-1.7l-0.4-0.4
						c-0.7-0.8-1.3-1.7-0.8-2.8c0.6-1.3,2.1-1.8,3.3-1.2c1.2,0.5,1.7,1.7,1.4,2.9l-0.9-0.1c0.2-0.8,0-1.6-0.8-2
						c-0.8-0.4-1.8-0.1-2.1,0.7c-0.4,0.8,0.1,1.4,0.7,2.1l0.4,0.4c0.7,0.8,1.2,1.5,0.7,2.6c-0.5,1.1-1.8,1.4-2.9,0.9
						c-0.8-0.4-1.3-1.1-1.3-2L122.6,17.8z"/>
					<path d="M118.8,16.2c0.1,0.6,0.3,1.1,0.9,1.3c0.7,0.3,1.4,0,1.7-0.7c0.3-0.6-0.3-1.2-0.7-1.6l-0.4-0.4
						c-0.8-0.8-1.4-1.6-0.9-2.8c0.5-1.3,2-1.9,3.2-1.3c1.2,0.5,1.8,1.6,1.5,2.8l-0.9-0.1c0.2-0.8-0.1-1.6-0.9-2
						c-0.8-0.3-1.8,0-2.1,0.8c-0.4,0.9,0.2,1.4,0.8,2l0.4,0.4c0.7,0.7,1.3,1.5,0.8,2.5c-0.5,1.1-1.7,1.5-2.8,1
						c-0.8-0.3-1.3-1-1.4-1.9L118.8,16.2z"/>
					<path d="M114.9,14.8c0.1,0.6,0.4,1,1,1.3c0.7,0.2,1.4,0,1.6-0.7c0.2-0.6-0.3-1.2-0.8-1.6l-0.4-0.4c-0.8-0.8-1.5-1.5-1.1-2.7
						c0.5-1.3,1.9-2,3.2-1.5c1.2,0.4,1.8,1.5,1.7,2.7l-0.9-0.1c0.2-0.8-0.2-1.6-1-1.9c-0.8-0.3-1.8,0.1-2,0.9
						c-0.3,0.9,0.3,1.4,0.9,2l0.4,0.4c0.7,0.7,1.3,1.4,1,2.5c-0.4,1.2-1.6,1.6-2.8,1.2c-0.8-0.3-1.4-1-1.5-1.8L114.9,14.8z"/>
					<path d="M111,13.6c0.2,0.6,0.4,1,1.1,1.2c0.7,0.2,1.4-0.1,1.6-0.8c0.2-0.7-0.4-1.2-0.8-1.5l-0.4-0.4c-0.9-0.7-1.6-1.5-1.2-2.7
						c0.4-1.3,1.8-2.1,3.1-1.7c1.2,0.4,1.9,1.4,1.8,2.7l-0.9,0c0.1-0.8-0.3-1.6-1.1-1.9c-0.8-0.2-1.8,0.2-2,1
						c-0.3,0.9,0.4,1.4,1,1.9l0.4,0.3c0.8,0.7,1.4,1.3,1.1,2.4c-0.3,1.2-1.6,1.7-2.7,1.3c-0.9-0.2-1.4-0.9-1.6-1.8L111,13.6z"/>
					<path d="M107,12.7c0.2,0.6,0.5,1,1.1,1.2c0.7,0.2,1.4-0.2,1.6-0.9c0.2-0.7-0.5-1.1-0.9-1.5l-0.5-0.3c-0.9-0.7-1.6-1.4-1.4-2.6
						c0.3-1.4,1.6-2.1,3-1.8c1.2,0.3,2,1.3,2,2.6l-0.9,0c0.1-0.8-0.4-1.6-1.2-1.8c-0.8-0.2-1.7,0.3-1.9,1.1
						c-0.2,0.9,0.4,1.4,1.1,1.9l0.4,0.3c0.8,0.6,1.5,1.3,1.2,2.4c-0.3,1.2-1.5,1.7-2.6,1.5c-0.9-0.2-1.5-0.8-1.7-1.7L107,12.7z"/>
					<path d="M102.9,11.9c0.2,0.6,0.5,1,1.2,1.1c0.7,0.1,1.4-0.3,1.5-1c0.1-0.7-0.5-1.1-1-1.4l-0.5-0.3c-0.9-0.6-1.7-1.3-1.5-2.5
						c0.2-1.4,1.5-2.2,2.9-2c1.3,0.2,2,1.2,2.1,2.5l-0.9,0.1c0-0.8-0.5-1.6-1.3-1.7c-0.8-0.2-1.7,0.4-1.9,1.2
						c-0.2,0.9,0.5,1.4,1.2,1.8l0.4,0.3c0.8,0.6,1.5,1.2,1.3,2.3c-0.2,1.2-1.4,1.8-2.5,1.6c-0.9-0.2-1.5-0.7-1.8-1.6L102.9,11.9z"/>
					<path d="M98.8,11.4c0.2,0.6,0.6,0.9,1.3,1c0.7,0.1,1.4-0.3,1.5-1.1c0.1-0.7-0.6-1.1-1.1-1.4l-0.5-0.3c-1-0.6-1.8-1.2-1.6-2.5
						c0.2-1.4,1.4-2.3,2.8-2.1c1.3,0.2,2.1,1.1,2.2,2.4l-0.9,0.1c0-0.8-0.5-1.6-1.4-1.7c-0.8-0.1-1.7,0.4-1.8,1.3
						c-0.1,0.9,0.6,1.3,1.3,1.8l0.5,0.3c0.9,0.5,1.6,1.1,1.5,2.2c-0.2,1.2-1.3,1.9-2.5,1.7c-0.9-0.1-1.6-0.7-1.9-1.5L98.8,11.4z"/>
					<path d="M94.7,11c0.3,0.6,0.6,0.9,1.3,1c0.7,0,1.4-0.4,1.4-1.1c0-0.7-0.6-1-1.2-1.3l-0.5-0.3c-1-0.5-1.8-1.1-1.7-2.4
						c0.1-1.4,1.3-2.4,2.7-2.3c1.3,0.1,2.2,1,2.3,2.2L98.1,7c-0.1-0.8-0.6-1.5-1.5-1.6c-0.9-0.1-1.7,0.5-1.7,1.4
						c-0.1,0.9,0.6,1.3,1.3,1.7l0.5,0.2c0.9,0.5,1.7,1,1.6,2.2c-0.1,1.2-1.2,1.9-2.4,1.9c-0.9-0.1-1.6-0.6-2-1.4L94.7,11z"/>
					<path d="M90.6,10.9c0.3,0.6,0.7,0.9,1.4,0.9c0.7,0,1.3-0.5,1.3-1.2c0-0.7-0.7-1-1.2-1.3l-0.5-0.2c-1-0.5-1.9-1-1.9-2.3
						c0-1.4,1.2-2.4,2.5-2.4c1.3,0,2.2,0.9,2.4,2.1l-0.9,0.2c-0.1-0.8-0.7-1.5-1.6-1.5c-0.9,0-1.6,0.6-1.7,1.5
						c0,0.9,0.7,1.3,1.4,1.6l0.5,0.2c0.9,0.4,1.7,0.9,1.7,2.1c0,1.2-1.1,2-2.3,2c-0.9,0-1.6-0.5-2-1.3L90.6,10.9z"/>
					<path d="M86.4,11c0.3,0.5,0.7,0.8,1.4,0.8c0.7,0,1.3-0.5,1.3-1.3c0-0.7-0.7-1-1.3-1.2l-0.5-0.2c-1-0.4-1.9-0.9-2-2.2
						c0-1.4,1-2.5,2.4-2.5c1.3,0,2.3,0.7,2.5,2l-0.9,0.3c-0.1-0.8-0.8-1.5-1.6-1.4S86.1,6,86.2,6.9c0,0.9,0.8,1.2,1.5,1.5l0.5,0.2
						c0.9,0.4,1.8,0.8,1.8,2c0,1.2-1,2.1-2.2,2.1c-0.9,0-1.7-0.4-2.1-1.2L86.4,11z"/>
					<path d="M82.3,11.4c0.4,0.5,0.8,0.8,1.4,0.7c0.7-0.1,1.3-0.6,1.2-1.3c-0.1-0.7-0.8-0.9-1.3-1.1L83,9.4c-1.1-0.4-2-0.8-2.1-2.1
						c-0.1-1.4,0.9-2.5,2.3-2.7c1.3-0.1,2.3,0.6,2.6,1.8L85,6.9c-0.2-0.8-0.9-1.4-1.7-1.3c-0.9,0.1-1.6,0.8-1.5,1.7
						c0.1,0.9,0.8,1.2,1.6,1.5l0.5,0.2c1,0.3,1.8,0.7,1.9,1.9c0.1,1.2-0.9,2.1-2,2.2c-0.9,0.1-1.7-0.3-2.2-1.1L82.3,11.4z"/>
					<path d="M78.2,11.9c0.4,0.5,0.8,0.8,1.5,0.7c0.7-0.1,1.2-0.7,1.1-1.4c-0.1-0.7-0.8-0.9-1.4-1.1l-0.6-0.2c-1.1-0.3-2-0.7-2.2-2
						c-0.2-1.4,0.8-2.6,2.1-2.8c1.3-0.2,2.3,0.5,2.7,1.7l-0.8,0.4c-0.2-0.8-0.9-1.4-1.8-1.2c-0.8,0.1-1.5,0.9-1.4,1.8
						c0.1,0.9,0.9,1.1,1.7,1.4l0.5,0.1c1,0.3,1.8,0.6,2,1.8c0.2,1.2-0.8,2.2-1.9,2.3c-0.9,0.1-1.7-0.2-2.2-0.9L78.2,11.9z"/>
					<path d="M74.2,12.6c0.4,0.5,0.8,0.7,1.5,0.6c0.7-0.1,1.2-0.7,1.1-1.5c-0.1-0.7-0.9-0.8-1.5-1l-0.6-0.1
						c-1.1-0.3-2.1-0.6-2.3-1.8c-0.3-1.4,0.6-2.6,2-2.9c1.3-0.2,2.3,0.4,2.8,1.6l-0.8,0.4c-0.3-0.8-1-1.3-1.8-1.1
						c-0.8,0.2-1.5,0.9-1.3,1.8c0.2,0.9,0.9,1.1,1.7,1.3l0.5,0.1c1,0.2,1.9,0.6,2.1,1.7c0.2,1.2-0.6,2.2-1.8,2.4
						c-0.9,0.2-1.7-0.1-2.3-0.8L74.2,12.6z"/>
					<path d="M70.1,13.6c0.4,0.5,0.9,0.7,1.5,0.5c0.7-0.2,1.2-0.8,1-1.5c-0.2-0.7-0.9-0.8-1.5-0.9l-0.6-0.1
						c-1.1-0.2-2.1-0.5-2.4-1.7c-0.3-1.4,0.5-2.7,1.8-3c1.2-0.3,2.4,0.3,2.9,1.4l-0.8,0.4c-0.3-0.8-1.1-1.3-1.9-1
						c-0.8,0.2-1.4,1-1.2,1.9c0.2,0.9,1,1,1.8,1.2l0.5,0.1c1,0.2,1.9,0.5,2.2,1.6c0.3,1.2-0.5,2.2-1.7,2.5c-0.9,0.2-1.7,0-2.3-0.7
						L70.1,13.6z"/>
					<path d="M66.2,14.8c0.5,0.4,0.9,0.6,1.6,0.4c0.7-0.2,1.1-0.9,0.9-1.6c-0.2-0.7-1-0.8-1.6-0.8l-0.6-0.1
						c-1.1-0.1-2.1-0.4-2.5-1.6c-0.4-1.3,0.4-2.7,1.7-3.1c1.2-0.4,2.4,0.1,3,1.2L68,9.8c-0.3-0.7-1.1-1.2-2-0.9
						c-0.8,0.3-1.4,1.1-1.1,2c0.3,0.9,1.1,1,1.9,1.1l0.5,0.1c1,0.1,1.9,0.4,2.2,1.4c0.4,1.2-0.4,2.2-1.5,2.6c-0.8,0.3-1.7,0-2.3-0.6
						L66.2,14.8z"/>
					<path d="M62.3,16.1c0.5,0.4,1,0.6,1.6,0.3c0.7-0.2,1.1-0.9,0.8-1.6c-0.2-0.6-1-0.7-1.6-0.7l-0.6,0c-1.1-0.1-2.1-0.3-2.6-1.4
						c-0.5-1.3,0.2-2.7,1.5-3.2c1.2-0.4,2.4,0,3,1.1l-0.7,0.5c-0.4-0.7-1.2-1.1-2-0.8c-0.8,0.3-1.3,1.2-1,2c0.3,0.9,1.1,0.9,1.9,1
						l0.5,0c1,0.1,1.9,0.3,2.3,1.3c0.4,1.2-0.3,2.3-1.4,2.7c-0.8,0.3-1.7,0.1-2.4-0.5L62.3,16.1z"/>
					<path d="M58.5,17.7c0.5,0.4,1,0.5,1.6,0.3c0.7-0.3,1-1,0.7-1.7c-0.3-0.6-1-0.6-1.6-0.7l-0.6,0c-1.1,0-2.1-0.1-2.6-1.3
						c-0.5-1.3,0.1-2.7,1.3-3.2c1.2-0.5,2.4-0.1,3.1,0.9l-0.7,0.6c-0.4-0.7-1.3-1.1-2-0.7c-0.8,0.3-1.2,1.2-0.9,2.1
						c0.4,0.9,1.2,0.9,2,0.9l0.5,0c1,0,1.9,0.1,2.4,1.2c0.5,1.1-0.2,2.3-1.3,2.7c-0.8,0.3-1.7,0.2-2.4-0.3L58.5,17.7z"/>
					<path d="M54.8,19.5c0.5,0.4,1,0.5,1.6,0.2c0.6-0.3,1-1,0.6-1.7c-0.3-0.6-1.1-0.6-1.7-0.6l-0.6,0c-1.1,0-2.1,0-2.7-1.2
						C51.5,15,52,13.6,53.3,13c1.1-0.6,2.4-0.2,3.1,0.8l-0.7,0.6c-0.5-0.7-1.3-1-2.1-0.6c-0.8,0.4-1.2,1.3-0.8,2.1
						c0.4,0.8,1.2,0.8,2,0.8l0.5,0c1,0,1.9,0,2.4,1.1c0.5,1.1-0.1,2.3-1.1,2.8c-0.8,0.4-1.7,0.3-2.4-0.2L54.8,19.5z"/>
					<path d="M51.1,21.5c0.5,0.3,1,0.4,1.6,0.1c0.6-0.3,0.9-1.1,0.6-1.7c-0.3-0.6-1.1-0.5-1.7-0.5L51,19.4c-1.1,0.1-2.1,0.1-2.8-1
						c-0.7-1.2-0.2-2.7,1-3.4c1.1-0.6,2.3-0.4,3.2,0.6l-0.6,0.6c-0.5-0.7-1.4-0.9-2.1-0.5c-0.7,0.4-1.1,1.4-0.7,2.2
						c0.5,0.8,1.2,0.7,2.1,0.7l0.5,0c1-0.1,2-0.1,2.5,0.9c0.6,1.1,0.1,2.3-1,2.9c-0.8,0.4-1.7,0.4-2.4-0.1L51.1,21.5z"/>
					<path d="M47.7,23.6c0.6,0.3,1,0.4,1.6,0c0.6-0.4,0.8-1.1,0.5-1.7c-0.4-0.6-1.1-0.5-1.7-0.4l-0.6,0.1c-1.1,0.2-2.1,0.2-2.8-0.9
						c-0.7-1.2-0.4-2.7,0.8-3.4c1.1-0.7,2.3-0.5,3.2,0.4L48,18.4c-0.5-0.6-1.4-0.9-2.1-0.4c-0.7,0.5-1,1.4-0.6,2.2
						c0.5,0.8,1.3,0.7,2.1,0.6l0.5-0.1c1-0.1,1.9-0.2,2.5,0.8c0.7,1,0.2,2.3-0.8,2.9c-0.8,0.5-1.6,0.5-2.4,0L47.7,23.6z"/>
					<path d="M44.2,26c0.6,0.3,1.1,0.3,1.6-0.1c0.6-0.4,0.8-1.2,0.4-1.8c-0.4-0.6-1.2-0.4-1.7-0.3L43.9,24c-1.1,0.2-2.1,0.3-2.8-0.7
						c-0.8-1.1-0.5-2.7,0.6-3.4c1-0.7,2.3-0.6,3.2,0.3l-0.6,0.7c-0.6-0.6-1.5-0.8-2.1-0.3c-0.7,0.5-1,1.5-0.4,2.2
						c0.5,0.8,1.3,0.6,2.1,0.5l0.5-0.1c1-0.2,1.9-0.3,2.6,0.7c0.7,1,0.3,2.3-0.7,2.9c-0.7,0.5-1.6,0.6-2.4,0.2L44.2,26z"/>
					<path d="M41,28.5c0.6,0.2,1.1,0.3,1.6-0.2c0.6-0.4,0.7-1.2,0.3-1.8c-0.4-0.5-1.2-0.4-1.7-0.2l-0.6,0.1
						c-1.1,0.3-2.1,0.4-2.9-0.6c-0.9-1.1-0.6-2.6,0.5-3.5c1-0.8,2.3-0.7,3.2,0.1l-0.5,0.7c-0.6-0.6-1.5-0.7-2.2-0.2
						c-0.7,0.5-0.9,1.5-0.3,2.2c0.6,0.7,1.3,0.5,2.1,0.3l0.5-0.1c1-0.2,1.9-0.4,2.6,0.5c0.8,1,0.4,2.2-0.5,3
						c-0.7,0.5-1.6,0.6-2.4,0.3L41,28.5z"/>
					<path d="M37.8,31.2c0.6,0.2,1.1,0.2,1.6-0.2c0.5-0.5,0.7-1.2,0.2-1.8c-0.4-0.5-1.2-0.3-1.8-0.1l-0.6,0.2
						c-1.1,0.3-2.1,0.5-2.9-0.4c-0.9-1.1-0.8-2.6,0.3-3.5c1-0.8,2.2-0.8,3.2-0.1l-0.5,0.8c-0.6-0.5-1.5-0.6-2.2-0.1
						c-0.6,0.6-0.8,1.6-0.2,2.2c0.6,0.7,1.4,0.5,2.1,0.2l0.5-0.2c1-0.3,1.9-0.5,2.6,0.4c0.8,0.9,0.5,2.2-0.4,3
						c-0.7,0.6-1.5,0.7-2.4,0.4L37.8,31.2z"/>
					<path d="M34.8,34c0.6,0.2,1.1,0.1,1.6-0.3c0.5-0.5,0.6-1.3,0.1-1.8c-0.5-0.5-1.2-0.2-1.8,0l-0.5,0.2c-1.1,0.4-2.1,0.6-2.9-0.3
						c-1-1-0.9-2.5,0.1-3.5c0.9-0.9,2.2-1,3.2-0.2l-0.5,0.8c-0.6-0.5-1.6-0.5-2.2,0c-0.6,0.6-0.7,1.6-0.1,2.3
						c0.6,0.7,1.4,0.4,2.2,0.1l0.5-0.2c1-0.3,1.9-0.6,2.7,0.3c0.9,0.9,0.7,2.2-0.2,3c-0.6,0.6-1.5,0.8-2.3,0.5L34.8,34z"/>
					<path d="M32,37c0.6,0.1,1.1,0.1,1.6-0.4c0.5-0.5,0.5-1.3,0-1.8c-0.5-0.5-1.2-0.2-1.8,0.1l-0.5,0.2c-1,0.4-2,0.7-2.9-0.1
						c-1-1-1-2.5-0.1-3.5c0.9-0.9,2.1-1.1,3.2-0.4L31,31.8c-0.7-0.5-1.6-0.5-2.2,0.2c-0.6,0.6-0.6,1.6,0,2.3c0.7,0.6,1.4,0.3,2.2,0
						l0.5-0.2c0.9-0.4,1.8-0.7,2.7,0.1c0.9,0.8,0.8,2.1,0,3c-0.6,0.6-1.4,0.9-2.3,0.7L32,37z"/>
					<path d="M29.3,40.2c0.6,0.1,1.1,0,1.5-0.5c0.5-0.5,0.5-1.3-0.1-1.8c-0.5-0.4-1.2-0.1-1.8,0.2l-0.5,0.3c-1,0.5-2,0.8-2.9,0
						c-1.1-0.9-1.2-2.4-0.3-3.5c0.8-1,2.1-1.2,3.2-0.6l-0.4,0.8c-0.7-0.4-1.6-0.4-2.2,0.3C25.4,36,25.4,37,26,37.6
						c0.7,0.6,1.4,0.2,2.2-0.1l0.5-0.2c0.9-0.4,1.8-0.7,2.7,0c0.9,0.8,0.9,2.1,0.1,3c-0.6,0.7-1.4,1-2.3,0.8L29.3,40.2z"/>
					<path d="M26.8,43.5c0.6,0.1,1.1,0,1.5-0.6c0.4-0.6,0.4-1.4-0.2-1.8c-0.5-0.4-1.2,0-1.7,0.2l-0.5,0.3c-1,0.6-1.9,0.9-2.9,0.2
						c-1.1-0.8-1.3-2.4-0.5-3.5c0.8-1,2-1.3,3.1-0.7l-0.3,0.8c-0.7-0.4-1.6-0.3-2.1,0.4c-0.5,0.7-0.5,1.7,0.3,2.2
						c0.7,0.6,1.4,0.2,2.1-0.2l0.5-0.3c0.9-0.5,1.8-0.8,2.7-0.2c1,0.7,1,2.1,0.3,3c-0.5,0.7-1.3,1-2.2,0.9L26.8,43.5z"/>
					<path d="M24.5,46.8c0.6,0,1.1-0.1,1.5-0.7c0.4-0.6,0.3-1.4-0.3-1.8c-0.6-0.4-1.2,0-1.7,0.3l-0.5,0.3c-1,0.6-1.9,1-2.9,0.3
						c-1.2-0.8-1.4-2.3-0.6-3.4c0.7-1.1,1.9-1.4,3.1-0.9l-0.3,0.9c-0.7-0.4-1.6-0.2-2.1,0.5c-0.5,0.7-0.4,1.7,0.4,2.2
						c0.8,0.5,1.4,0.1,2.1-0.3l0.4-0.3c0.9-0.5,1.7-0.9,2.7-0.3c1,0.7,1.1,2,0.4,3c-0.5,0.7-1.3,1.1-2.2,1L24.5,46.8z"/>
					<path d="M22.3,50.4c0.6,0,1.1-0.2,1.4-0.7c0.4-0.6,0.2-1.4-0.4-1.8c-0.6-0.4-1.2,0.1-1.7,0.4l-0.5,0.3
						c-0.9,0.7-1.8,1.1-2.9,0.5c-1.2-0.7-1.5-2.2-0.8-3.4c0.7-1.1,1.8-1.5,3-1.1l-0.2,0.9c-0.8-0.3-1.6-0.1-2.1,0.6
						c-0.4,0.7-0.3,1.7,0.5,2.2c0.8,0.5,1.4,0,2.1-0.4l0.4-0.3c0.8-0.6,1.7-1,2.6-0.4c1.1,0.6,1.2,1.9,0.6,2.9
						c-0.5,0.8-1.2,1.2-2.1,1.1L22.3,50.4z"/>
					<path d="M20.4,54c0.6,0,1.1-0.2,1.4-0.8c0.3-0.6,0.2-1.4-0.5-1.7c-0.6-0.3-1.2,0.2-1.7,0.5l-0.5,0.4c-0.9,0.7-1.8,1.2-2.9,0.6
						c-1.2-0.7-1.6-2.1-1-3.4c0.6-1.1,1.8-1.6,3-1.2l-0.2,0.9c-0.8-0.3-1.7,0-2.1,0.7c-0.4,0.8-0.2,1.7,0.6,2.2
						c0.8,0.4,1.4-0.1,2.1-0.6l0.4-0.3c0.8-0.6,1.6-1.1,2.6-0.6c1.1,0.6,1.3,1.9,0.7,2.9c-0.4,0.8-1.2,1.2-2.1,1.2L20.4,54z"/>
					<path d="M18.6,57.7c0.6-0.1,1.1-0.3,1.4-0.9c0.3-0.6,0.1-1.4-0.6-1.7c-0.6-0.3-1.2,0.2-1.7,0.6l-0.4,0.4
						c-0.8,0.7-1.7,1.3-2.8,0.8c-1.3-0.6-1.8-2-1.2-3.3c0.5-1.2,1.7-1.7,2.9-1.4l-0.1,0.9c-0.8-0.2-1.7,0-2,0.8
						c-0.4,0.8-0.1,1.8,0.7,2.1c0.8,0.4,1.4-0.1,2.1-0.7l0.4-0.4c0.8-0.7,1.5-1.2,2.6-0.7c1.1,0.5,1.4,1.8,0.9,2.9
						c-0.4,0.8-1.1,1.3-2,1.3L18.6,57.7z"/>
					<path d="M17,61.6c0.6-0.1,1.1-0.3,1.3-1c0.3-0.7,0-1.4-0.7-1.7c-0.6-0.3-1.2,0.3-1.6,0.7L15.7,60c-0.8,0.8-1.6,1.4-2.8,0.9
						c-1.3-0.5-1.9-2-1.4-3.2c0.5-1.2,1.6-1.8,2.8-1.5l-0.1,0.9c-0.8-0.2-1.6,0.1-2,0.9c-0.3,0.8,0,1.8,0.8,2.1
						c0.9,0.3,1.4-0.2,2-0.8l0.4-0.4c0.7-0.7,1.5-1.3,2.5-0.8c1.1,0.5,1.5,1.7,1.1,2.8c-0.3,0.8-1,1.3-1.9,1.4L17,61.6z"/>
					<path d="M15.7,65.4c0.6-0.1,1-0.4,1.3-1c0.2-0.7-0.1-1.4-0.7-1.6c-0.6-0.2-1.2,0.3-1.6,0.8L14.2,64c-0.8,0.8-1.5,1.5-2.7,1.1
						c-1.3-0.4-2-1.9-1.5-3.2c0.4-1.2,1.5-1.8,2.8-1.7l0,0.9c-0.8-0.2-1.6,0.2-1.9,1c-0.3,0.8,0.1,1.8,0.9,2.1
						c0.9,0.3,1.4-0.3,2-0.9l0.4-0.4c0.7-0.7,1.4-1.3,2.5-1c1.2,0.4,1.6,1.6,1.2,2.8c-0.3,0.8-1,1.4-1.8,1.5L15.7,65.4z"/>
					<path d="M14.5,69.4c0.6-0.2,1-0.4,1.2-1.1c0.2-0.7-0.1-1.4-0.8-1.6c-0.7-0.2-1.2,0.4-1.5,0.9L13,68c-0.7,0.9-1.5,1.6-2.7,1.2
						c-1.3-0.4-2.1-1.7-1.7-3.1c0.3-1.2,1.4-1.9,2.7-1.8l0,0.9c-0.8-0.1-1.6,0.3-1.9,1.1c-0.2,0.8,0.2,1.8,1,2
						c0.9,0.3,1.4-0.4,1.9-1l0.3-0.4c0.7-0.8,1.3-1.4,2.4-1.1c1.2,0.3,1.7,1.6,1.3,2.7c-0.2,0.8-0.9,1.4-1.7,1.6L14.5,69.4z"/>
					<path d="M13.6,73.4c0.6-0.2,1-0.5,1.1-1.1c0.2-0.7-0.2-1.4-0.9-1.6c-0.7-0.2-1.1,0.5-1.5,0.9L12,72.1c-0.7,0.9-1.4,1.6-2.6,1.4
						c-1.4-0.3-2.1-1.6-1.8-3c0.3-1.2,1.3-2,2.6-2l0,0.9c-0.8-0.1-1.6,0.4-1.8,1.2c-0.2,0.8,0.3,1.7,1.1,1.9
						c0.9,0.2,1.4-0.4,1.9-1.1l0.3-0.4c0.6-0.8,1.3-1.5,2.4-1.2c1.2,0.3,1.7,1.5,1.5,2.6c-0.2,0.9-0.8,1.5-1.7,1.7L13.6,73.4z"/>
					<path d="M12.8,77.5c0.6-0.2,1-0.5,1.1-1.2c0.1-0.7-0.3-1.4-1-1.5c-0.7-0.1-1.1,0.5-1.4,1l-0.3,0.5c-0.6,0.9-1.3,1.7-2.5,1.5
						c-1.4-0.2-2.2-1.5-2-2.9c0.2-1.3,1.2-2.1,2.5-2.1l0.1,0.9c-0.8,0-1.6,0.5-1.7,1.3c-0.1,0.8,0.4,1.7,1.2,1.9
						c0.9,0.2,1.4-0.5,1.8-1.2l0.3-0.4c0.6-0.8,1.2-1.6,2.3-1.4c1.2,0.2,1.8,1.4,1.6,2.5c-0.2,0.9-0.7,1.5-1.6,1.8L12.8,77.5z"/>
					<path d="M12.3,81.6c0.6-0.2,0.9-0.6,1-1.3c0.1-0.7-0.3-1.4-1.1-1.5c-0.7-0.1-1.1,0.6-1.4,1.1l-0.3,0.5c-0.6,1-1.2,1.8-2.5,1.6
						c-1.4-0.2-2.3-1.4-2.1-2.8c0.2-1.3,1.1-2.1,2.3-2.2L8.5,78c-0.8,0-1.6,0.6-1.7,1.4c-0.1,0.8,0.5,1.7,1.3,1.8
						c0.9,0.1,1.3-0.6,1.7-1.3l0.3-0.5c0.5-0.9,1.1-1.6,2.2-1.5c1.2,0.2,1.9,1.3,1.7,2.5c-0.1,0.9-0.6,1.6-1.5,1.9L12.3,81.6z"/>
					<path d="M12,85.7c0.6-0.3,0.9-0.6,1-1.3c0-0.7-0.4-1.4-1.1-1.4c-0.7,0-1,0.6-1.3,1.2l-0.3,0.5c-0.5,1-1.1,1.8-2.4,1.7
						c-1.4-0.1-2.4-1.3-2.3-2.7c0.1-1.3,1-2.2,2.2-2.3L8,82.3c-0.8,0.1-1.5,0.6-1.6,1.5c-0.1,0.9,0.5,1.7,1.4,1.7
						c0.9,0.1,1.3-0.6,1.7-1.4l0.2-0.5c0.5-0.9,1-1.7,2.2-1.6c1.2,0.1,1.9,1.2,1.9,2.4c-0.1,0.9-0.6,1.6-1.4,2L12,85.7z"/>
					<path d="M11.9,89.8c0.6-0.3,0.9-0.7,0.9-1.4c0-0.7-0.5-1.3-1.2-1.3c-0.7,0-1,0.7-1.3,1.2L10,88.9c-0.5,1-1,1.9-2.3,1.9
						c-1.4,0-2.4-1.2-2.4-2.5c0-1.3,0.9-2.2,2.1-2.4l0.2,0.9c-0.8,0.1-1.5,0.7-1.5,1.6c0,0.9,0.6,1.6,1.5,1.7c0.9,0,1.3-0.7,1.6-1.4
						l0.2-0.5c0.4-0.9,0.9-1.7,2.1-1.7c1.2,0,2,1.1,2,2.3c0,0.9-0.5,1.6-1.3,2L11.9,89.8z"/>
					<path d="M12,94c0.5-0.3,0.8-0.7,0.8-1.4c0-0.7-0.6-1.3-1.3-1.3c-0.7,0-1,0.7-1.2,1.3l-0.2,0.5c-0.4,1.1-0.9,1.9-2.2,2
						c-1.4,0-2.5-1-2.5-2.4c0-1.3,0.7-2.3,2-2.6L7.6,91c-0.8,0.1-1.5,0.8-1.4,1.6c0,0.9,0.7,1.6,1.6,1.6c0.9,0,1.2-0.8,1.5-1.5
						l0.2-0.5c0.4-0.9,0.8-1.8,2-1.8c1.2,0,2.1,1,2.1,2.2c0,0.9-0.4,1.6-1.2,2.1L12,94z"/>
					<path d="M12.3,98c0.5-0.4,0.8-0.8,0.7-1.4c-0.1-0.7-0.6-1.3-1.3-1.2c-0.7,0.1-0.9,0.8-1.1,1.3l-0.2,0.5c-0.4,1.1-0.8,2-2.1,2.1
						c-1.4,0.1-2.5-0.9-2.7-2.3c-0.1-1.3,0.6-2.3,1.8-2.6l0.3,0.8C7,95.5,6.4,96.2,6.5,97c0.1,0.9,0.8,1.6,1.7,1.5
						c0.9-0.1,1.2-0.8,1.4-1.6l0.2-0.5c0.3-1,0.7-1.8,1.9-1.9c1.2-0.1,2.1,0.9,2.2,2c0.1,0.9-0.3,1.7-1.1,2.2L12.3,98z"/>
					<path d="M12.9,102.2c0.5-0.4,0.8-0.8,0.7-1.5c-0.1-0.7-0.7-1.2-1.4-1.1c-0.7,0.1-0.9,0.8-1.1,1.4l-0.2,0.6
						c-0.3,1.1-0.7,2-1.9,2.2c-1.4,0.2-2.6-0.8-2.8-2.1c-0.2-1.3,0.5-2.3,1.7-2.7l0.4,0.8c-0.8,0.2-1.4,0.9-1.2,1.8
						c0.1,0.8,0.9,1.5,1.8,1.4c0.9-0.1,1.1-0.9,1.4-1.7l0.1-0.5c0.3-1,0.6-1.8,1.8-2c1.2-0.2,2.2,0.8,2.3,1.9
						c0.1,0.9-0.2,1.7-0.9,2.2L12.9,102.2z"/>
					<path d="M13.6,106.2c0.5-0.4,0.7-0.8,0.6-1.5c-0.1-0.7-0.7-1.2-1.5-1.1c-0.7,0.1-0.8,0.9-1,1.5l-0.1,0.6
						c-0.2,1.1-0.6,2.1-1.8,2.3c-1.4,0.3-2.6-0.6-2.9-2c-0.2-1.3,0.4-2.3,1.5-2.8l0.4,0.8c-0.8,0.3-1.3,1-1.1,1.8
						c0.2,0.8,1,1.5,1.8,1.3c0.9-0.2,1.1-1,1.3-1.7l0.1-0.5c0.2-1,0.5-1.9,1.7-2.1c1.2-0.2,2.2,0.6,2.4,1.8c0.2,0.9-0.1,1.7-0.8,2.3
						L13.6,106.2z"/>
					<path d="M14.6,110.2c0.5-0.4,0.7-0.9,0.5-1.5c-0.2-0.7-0.8-1.2-1.5-1c-0.7,0.2-0.8,0.9-0.9,1.5l-0.1,0.6
						c-0.2,1.1-0.5,2.1-1.7,2.4c-1.3,0.3-2.7-0.5-3-1.8c-0.3-1.2,0.3-2.4,1.4-2.9l0.4,0.8c-0.8,0.3-1.3,1.1-1,1.9
						c0.2,0.8,1,1.4,1.9,1.2c0.9-0.2,1-1,1.2-1.8l0.1-0.5c0.2-1,0.4-1.9,1.6-2.2c1.2-0.3,2.2,0.5,2.5,1.7c0.2,0.9,0,1.7-0.7,2.3
						L14.6,110.2z"/>
					<path d="M15.8,114.2c0.4-0.5,0.6-0.9,0.4-1.6c-0.2-0.7-0.9-1.1-1.6-0.9c-0.7,0.2-0.7,1-0.8,1.6l-0.1,0.6
						c-0.1,1.1-0.4,2.1-1.6,2.5c-1.3,0.4-2.7-0.3-3.1-1.7c-0.4-1.2,0.1-2.4,1.2-3l0.5,0.8c-0.7,0.4-1.2,1.1-0.9,2
						c0.3,0.8,1.1,1.4,2,1.1c0.9-0.3,1-1.1,1.1-1.9l0.1-0.5c0.1-1,0.3-1.9,1.4-2.3c1.2-0.4,2.2,0.4,2.6,1.5c0.3,0.8,0,1.7-0.6,2.3
						L15.8,114.2z"/>
					<path d="M17.2,118c0.4-0.5,0.6-1,0.3-1.6c-0.2-0.7-0.9-1.1-1.6-0.8c-0.6,0.2-0.7,1-0.7,1.6l0,0.6c-0.1,1.1-0.3,2.1-1.4,2.6
						c-1.3,0.5-2.7-0.2-3.2-1.5c-0.4-1.2,0-2.4,1.1-3l0.5,0.7c-0.7,0.4-1.1,1.2-0.8,2c0.3,0.8,1.2,1.3,2,1c0.9-0.3,0.9-1.1,1-1.9
						l0-0.5c0.1-1,0.2-1.9,1.3-2.3c1.2-0.4,2.3,0.3,2.7,1.4c0.3,0.8,0.1,1.7-0.4,2.4L17.2,118z"/>
					<path d="M18.8,121.9c0.4-0.5,0.5-1,0.3-1.6c-0.3-0.6-1-1-1.7-0.7c-0.6,0.3-0.6,1-0.7,1.6l0,0.6c0,1.1-0.1,2.1-1.3,2.6
						c-1.3,0.5-2.7-0.1-3.2-1.3c-0.5-1.2-0.1-2.4,0.9-3.1l0.6,0.7c-0.7,0.4-1.1,1.3-0.7,2c0.3,0.8,1.2,1.2,2.1,0.9
						c0.9-0.4,0.9-1.2,0.9-2l0-0.5c0-1,0.1-1.9,1.2-2.4c1.1-0.5,2.3,0.2,2.7,1.2c0.3,0.8,0.2,1.7-0.3,2.4L18.8,121.9z"/>
					<path d="M20.6,125.6c0.4-0.5,0.5-1,0.2-1.6c-0.3-0.6-1-1-1.7-0.6c-0.6,0.3-0.6,1.1-0.6,1.7l0,0.6c0,1.1,0,2.1-1.2,2.7
						c-1.2,0.6-2.7,0.1-3.3-1.2c-0.6-1.1-0.2-2.4,0.7-3.1l0.6,0.7c-0.7,0.5-1,1.3-0.6,2.1c0.4,0.8,1.3,1.2,2.1,0.8
						c0.8-0.4,0.8-1.2,0.8-2l0-0.5c0-1,0-1.9,1.1-2.4c1.1-0.5,2.3,0,2.8,1.1c0.4,0.8,0.3,1.7-0.2,2.4L20.6,125.6z"/>
					<path d="M22.6,129.2c0.3-0.5,0.4-1,0.1-1.6c-0.3-0.6-1.1-0.9-1.7-0.5c-0.6,0.3-0.5,1.1-0.5,1.7l0.1,0.6c0.1,1.1,0.1,2.1-1,2.8
						c-1.2,0.7-2.7,0.2-3.4-1c-0.6-1.1-0.4-2.3,0.6-3.2l0.6,0.6c-0.7,0.5-0.9,1.4-0.5,2.1c0.4,0.7,1.4,1.1,2.2,0.7
						c0.8-0.5,0.7-1.2,0.7-2.1l-0.1-0.5c-0.1-1-0.1-2,0.9-2.5c1.1-0.6,2.3-0.1,2.9,1c0.4,0.8,0.4,1.6-0.1,2.4L22.6,129.2z"/>
					<path d="M24.7,132.7c0.3-0.6,0.4-1.1,0-1.6c-0.4-0.6-1.1-0.8-1.7-0.5c-0.6,0.4-0.5,1.1-0.4,1.7l0.1,0.6
						c0.2,1.1,0.2,2.1-0.9,2.8c-1.2,0.7-2.7,0.4-3.4-0.8c-0.7-1.1-0.5-2.3,0.4-3.2l0.7,0.6c-0.6,0.5-0.9,1.4-0.4,2.1
						c0.5,0.7,1.4,1,2.2,0.6c0.8-0.5,0.7-1.3,0.6-2.1l-0.1-0.5c-0.1-1-0.2-1.9,0.8-2.5c1-0.7,2.3-0.2,2.9,0.8
						c0.5,0.8,0.5,1.6,0.1,2.4L24.7,132.7z"/>
					<path d="M27.1,136.1c0.3-0.6,0.3-1.1-0.1-1.6c-0.4-0.6-1.2-0.8-1.8-0.4c-0.6,0.4-0.4,1.2-0.3,1.7l0.1,0.6
						c0.2,1.1,0.3,2.1-0.7,2.8c-1.1,0.8-2.7,0.5-3.4-0.6c-0.7-1-0.6-2.3,0.2-3.2l0.7,0.6c-0.6,0.6-0.8,1.5-0.3,2.2
						c0.5,0.7,1.5,1,2.2,0.4c0.8-0.5,0.6-1.3,0.4-2.1l-0.1-0.5c-0.2-1-0.3-1.9,0.7-2.6c1-0.7,2.3-0.3,2.9,0.6
						c0.5,0.7,0.6,1.6,0.2,2.4L27.1,136.1z"/>
					<path d="M29.6,139.4c0.2-0.6,0.2-1.1-0.2-1.6c-0.4-0.6-1.2-0.7-1.8-0.3c-0.5,0.4-0.4,1.2-0.2,1.7l0.1,0.6
						c0.3,1.1,0.4,2.1-0.6,2.9c-1.1,0.9-2.6,0.6-3.5-0.4c-0.8-1-0.7-2.3,0.1-3.2l0.7,0.5c-0.6,0.6-0.7,1.5-0.2,2.2
						c0.5,0.7,1.5,0.9,2.2,0.3c0.7-0.6,0.5-1.3,0.3-2.1l-0.1-0.5c-0.2-1-0.4-1.9,0.5-2.6c1-0.8,2.2-0.4,3,0.5
						c0.5,0.7,0.7,1.6,0.3,2.4L29.6,139.4z"/>
					<path d="M32.3,142.5c0.2-0.6,0.2-1.1-0.2-1.6c-0.5-0.5-1.2-0.7-1.8-0.2c-0.5,0.4-0.3,1.2-0.1,1.8l0.2,0.6
						c0.3,1.1,0.5,2.1-0.4,2.9c-1,0.9-2.6,0.8-3.5-0.3c-0.8-1-0.8-2.2-0.1-3.2l0.8,0.5c-0.5,0.6-0.6,1.5-0.1,2.2
						c0.6,0.6,1.6,0.8,2.2,0.2c0.7-0.6,0.5-1.4,0.2-2.1l-0.2-0.5c-0.3-1-0.5-1.9,0.4-2.6c0.9-0.8,2.2-0.5,3,0.3
						c0.6,0.7,0.7,1.5,0.4,2.4L32.3,142.5z"/>
					<path d="M35.1,145.5c0.2-0.6,0.1-1.1-0.3-1.6c-0.5-0.5-1.3-0.6-1.8-0.1c-0.5,0.5-0.2,1.2,0,1.8l0.2,0.5c0.4,1.1,0.6,2-0.3,2.9
						c-1,1-2.5,0.9-3.5-0.1c-0.9-0.9-1-2.2-0.2-3.2l0.8,0.5c-0.5,0.6-0.5,1.6,0,2.2c0.6,0.6,1.6,0.7,2.3,0.1
						c0.7-0.6,0.4-1.4,0.1-2.2l-0.2-0.5c-0.3-1-0.6-1.9,0.3-2.7c0.9-0.9,2.2-0.7,3,0.2c0.6,0.6,0.8,1.5,0.5,2.3L35.1,145.5z"/>
					<path d="M38.1,148.3c0.1-0.6,0.1-1.1-0.4-1.6c-0.5-0.5-1.3-0.5-1.8,0c-0.5,0.5-0.2,1.2,0.1,1.8l0.2,0.5c0.5,1,0.7,2-0.1,2.9
						c-0.9,1-2.5,1-3.5,0.1c-0.9-0.9-1.1-2.1-0.4-3.2l0.8,0.4c-0.5,0.7-0.5,1.6,0.2,2.2c0.6,0.6,1.6,0.6,2.3,0
						c0.6-0.7,0.3-1.4,0-2.2l-0.2-0.5c-0.4-0.9-0.7-1.8,0.1-2.7c0.8-0.9,2.1-0.8,3,0c0.6,0.6,0.9,1.4,0.7,2.3L38.1,148.3z"/>
				</g>
				<g>
					<path d="M54.9,159.7c0-0.6-0.2-1.1-0.8-1.4c-0.6-0.3-1.4-0.2-1.7,0.5c-0.3,0.6,0.2,1.2,0.5,1.7l0.4,0.5
						c0.7,0.9,1.2,1.8,0.6,2.9c-0.7,1.2-2.1,1.6-3.4,1c-1.1-0.6-1.6-1.8-1.2-3l0.9,0.2c-0.3,0.8,0,1.7,0.7,2.1
						c0.8,0.4,1.8,0.2,2.2-0.6c0.4-0.8-0.1-1.4-0.6-2.1l-0.3-0.4c-0.6-0.8-1.1-1.6-0.6-2.6c0.6-1.1,1.9-1.3,2.9-0.7
						c0.8,0.4,1.2,1.2,1.2,2.1L54.9,159.7z"/>
					<path d="M57.3,165.5l-1.7,1.7l-0.9-0.4l6.6-6.3l0.1,9.1l-0.9-0.4l0-2.4L57.3,165.5z M60.4,162.4l-2.5,2.4l2.5,1L60.4,162.4z"/>
					<path d="M66,162.7l1.3,0.4c1.4,0.4,2.4,1.3,1.9,2.8c-0.2,0.6-0.6,1.1-1.2,1.3c0.8,0.5,1.1,1.5,0.9,2.4
						c-0.5,1.5-1.9,1.7-3.4,1.3l-1.8-0.5L66,162.7z M64.7,169.8l0.8,0.3c0.9,0.3,2,0.4,2.4-0.8c0.4-1.2-0.7-1.7-1.6-2l-0.7-0.2
						L64.7,169.8z M65.8,166.3l0.3,0.1c1,0.3,1.8,0.4,2.2-0.8c0.4-1.2-0.3-1.5-1.4-1.8l-0.3-0.1L65.8,166.3z"/>
					<path d="M72.4,164.6l4,0.9l-0.2,0.8l-3.2-0.7l-0.5,2.3l3.1,0.7l-0.2,0.8l-3.1-0.7l-0.6,3.1l3.2,0.7l-0.2,0.8l-4-0.9L72.4,164.6
						z"/>
					<path d="M78.6,173.8l-0.9-0.1l1-7.9l1.1,0.1c1.5,0.2,2.8,0.8,2.6,2.5c-0.2,1.2-1,2-2.3,1.9l2.1,3.9l-1.1-0.1l-1.9-3.8l-0.2,0
						L78.6,173.8z M79.2,169.6l0.3,0c1,0.1,2,0.1,2.2-1.2c0.2-1.3-0.8-1.5-1.8-1.7l-0.3,0L79.2,169.6z"/>
					<path d="M97.2,168c-0.4-0.5-0.8-0.8-1.4-0.8c-0.7,0-1.3,0.6-1.2,1.3c0,0.7,0.8,1,1.3,1.2l0.5,0.2c1.1,0.4,2,0.8,2.1,2.1
						c0.1,1.4-1,2.5-2.3,2.6c-1.3,0.1-2.3-0.7-2.6-1.9l0.8-0.3c0.2,0.8,0.8,1.4,1.7,1.4c0.9-0.1,1.6-0.8,1.5-1.7
						c-0.1-0.9-0.8-1.2-1.6-1.5l-0.5-0.2c-1-0.4-1.8-0.8-1.9-1.9c-0.1-1.2,0.9-2.1,2.1-2.2c0.9-0.1,1.7,0.3,2.1,1.1L97.2,168z"/>
					<path d="M102.3,171.6l-0.6,2.4l-1,0.2l2.3-8.8l4.9,7.6l-1,0.2l-1.3-2.1L102.3,171.6z M103.3,167.4l-0.8,3.4l2.7-0.4
						L103.3,167.4z"/>
					<path d="M111.1,170.2l0.7-6.4l0.9-0.2l-1,9l-5.2-7.4l0.9-0.2L111.1,170.2z"/>
					<path d="M117.7,170.2l-0.8,0.3l-2.5-7.6l0.8-0.3L117.7,170.2z"/>
					<path d="M126.3,162.5c0.9,2.1-0.1,4.5-2.2,5.4c-2.1,0.9-4.5,0-5.4-2.1c-0.9-2.1,0.1-4.5,2.2-5.4
						C122.9,159.5,125.4,160.4,126.3,162.5z M119.5,165.4c0.7,1.6,2.6,2.5,4.3,1.7c1.7-0.7,2.4-2.7,1.7-4.3
						c-0.7-1.7-2.6-2.5-4.3-1.8C119.5,161.8,118.8,163.8,119.5,165.4z"/>
					<path d="M131,164.4l-0.8,0.4l-3.9-6.9l1-0.6c1.3-0.7,2.7-1.1,3.6,0.5c0.6,1.1,0.3,2.2-0.7,2.9l3.9,1.9l-0.9,0.5l-3.8-1.9
						l-0.2,0.1L131,164.4z M129,160.7l0.2-0.1c0.9-0.5,1.7-1.1,1.1-2.2c-0.6-1.1-1.5-0.8-2.5-0.3l-0.2,0.1L129,160.7z"/>
				</g>
				<path d="M141.2,153.7c0,0.9-0.7,1.7-1.7,1.7c-0.9,0-1.7-0.7-1.7-1.7c0-0.9,0.7-1.7,1.7-1.7C140.5,152,141.2,152.7,141.2,153.7z"
					/>
				<circle cx="42.7" cy="154.1" r="1.7"/>
			</g>
		</g>
	</g>
	<g>
		<path d="M47,83.2c0.1,0,0.1,0,0.2,0L47.1,83C47,83.1,47,83.1,47,83.2z"/>
		<path d="M60.7,49.6l0.1,0.1C60.7,49.7,60.7,49.6,60.7,49.6C60.7,49.6,60.7,49.6,60.7,49.6z"/>
		<path d="M40,42.8c0-0.5,0.6-0.9,0.9-1.4c0.3,0.4,0.6,0.8,1.1,1.3c-0.2,0.3-0.4,0.5-0.6,0.7l1.1-0.7c0-1.1-0.5-1.9-1.6-2.4
			c-1.1-0.5-2.2-0.5-3.1,0.5c-1.3,1.4-1.3,3.3-0.2,4.8l3.1-1.8C40.4,43.5,40,43.2,40,42.8z"/>
		<path d="M29.2,54.8c0.3,1.3,1.2,2,2.5,2.2l-2.4-4C29.1,53.5,29,54.1,29.2,54.8z"/>
		<path d="M48.2,34.6c0.6,1.2,1.3,2.4,1.9,3.7l2.1-1.2c-1-2.3-2.5-4.5-4-6.7c-2,3.7-1.9,6.8-0.5,9.4l1.3-0.8
			C48.5,37.5,48.1,35.9,48.2,34.6z"/>
		<path d="M81,44.3c0.1,0.1,0.2,0.1,0.2,0.2c-0.5,1-1.1,2-1.6,3l4.8-2.8c0.3-1.2,0.5-2.4,0.6-3.6c-5.2,1.8-8.7,4.7-9.8,9l2-1.2
			C78.5,47.3,79.8,45.8,81,44.3z"/>
		<path d="M37.2,68.1c-1.2-1.1-2.6-2.2-2.6-4c0-0.8,0-1.5,0.1-2.3l-1.4-2.3c-0.2,0.8-0.5,1.7-0.6,2.5c-0.4,2.3-1.7,3.8-3.6,4.9
			c-2.9,1.6-4.9,4-6,7.1c-0.8,2.1-1.5,4.3-2.3,6.7c3.7-1.4,6.8-3.3,9.1-6.5c2.3-3.2,2.9-6.9,3.6-10.6c1,4-0.1,8.2,2.1,12
			c2.1,3.7,4.6,6.7,8.7,8.5c0-0.8,0-1.2,0-1.7c-0.3-3.1-1.1-5.9-2.4-8.5L40.6,72C39.6,70.6,38.5,69.3,37.2,68.1z M30.7,68.6
			c-1.5,2.2-3,4.3-4.5,6.4c-0.1-0.1-0.2-0.2-0.3-0.3c1.5-2.6,3.1-5.2,4.6-7.8c0.2,0,0.3,0.1,0.5,0.1C31,67.6,31,68.2,30.7,68.6z
			 M35.7,68.6c1.6,3.4,3.3,6.7,4.8,9.9C37.8,76,34.6,69.8,35.7,68.6z"/>
		<path d="M59.6,47.8c6.6,1.9,11.3,6.4,15,12.1c0.5,0.8,0.8,1.6,1.3,2.4c-0.8-0.3-1.4-0.8-2-1.3c-1.7-1.2-3.5-2.5-5.8-2.3
			c-0.6,0-1.2,0.2-1.8,0.5l1.7,3c0.3-0.8,0.9-1.5,1.5-1.4c1.2,0.1,1.3,1.1,1.5,1.9c-0.2,0.9-0.3,2-1.4,2l1,1.7
			c1-0.6,1.8-1.8,1.8-3.2c0-0.4,0.1-0.8,0.1-1.2c4,1.9,8,8.5,9.2,15.1c-1.6,0-3.4-0.3-5.3-0.8l1.4,2.4c0.7,0.2,1.3,0.4,2,0.6
			c2.8,0.7,2.8,0.6,3.2,3.5c0,0.1,0.1,0.1,0.3,0.3c0.6-0.1,1.3-0.1,2-0.2l0.3-0.4c0.1-0.1,0.2-0.2,0.3-0.3c-0.4-1.5-0.7-2.9-1.1-4.2
			c-1.3-4.1-2.8-8.2-4.1-12.4c-0.5-1.4-0.8-2.9-0.3-4.4l-0.7-1.3c-0.1,0.2-0.2,0.3-0.3,0.6c-0.2,0.7-0.4,1.3-0.6,2.1
			c-1.8-2.3-2.3-4.7-1.6-6.8L75,52.1c-0.1,1.4,0,3,0.4,4.8c-1.8-1.9-3.5-3.5-5.1-5.3c-0.8-0.9-1.6-1.8-2-2.9
			c-0.6-1.4-1.2-2.9,0.1-4.5c0.1,0.5,0.1,0.9,0.2,1.3c0.5,1.6,1.7,2.6,3.1,2.6c1.2-0.1,2.5-1.1,2.7-2.3c0.4-1.6-0.4-3.3-1.8-3.9
			c-2.3-1-5.9,0.2-6.5,3c-0.2,1.1,0,2.4,0,3.7c-1.6-1-3.2-1.8-4.8-2.3l-2,1.2L59.6,47.8z M72,43c0.3,0,0.6,0.1,0.9,0.1
			c0.1,0.8,0.2,1.6,0.2,2.4c0,0.3-0.5,0.6-0.8,1c-0.3-0.4-0.9-0.8-0.9-1.1C71.4,44.5,71.7,43.8,72,43z"/>
		<path d="M115.1,134.5c0.2-1.1,0-2.2,0-3.3c1.2,0.7,2.4,1.2,3.7,1.8l2.2-1.3c-1-0.3-2-0.8-3-1.2c-5.4-2.6-9.1-6.9-12-12.1
			c-0.2-0.4-0.4-0.8-0.7-1.4c1.8,1.2,3.4,2.3,5.1,3.3c1.7,1,3,1,4.5,0l-1.8-3.1c-0.1,0.8-0.4,1.4-1.4,1.4c-0.5,0-1.1-0.8-1.9-1.5
			c0.8-1,1.2-2.1,1.8-2.3l-0.9-1.5c-0.8,0.5-1.4,1.4-1.7,2.8c-0.1,0.5-0.2,1-0.2,1.5c-4.1-1.7-9.8-11.5-9-15.4
			c1.7,0.2,3.3,0.5,4.9,1l-1.5-2.5c-0.2,0-0.3-0.1-0.5-0.1c-3.8-0.7-3.8-0.7-4.4-3.7c0-0.1-0.1-0.1-0.2-0.3c-0.4,0-0.8,0-1.2,0
			c-1.2,0-1.7,0.3-1.3,1.7c0.7,2,1.1,4.2,1.8,6.2c1.1,3.6,2.4,7.1,3.5,10.7c0.4,1.2,0.5,2.4,0.1,3.5l0.7,1.3c0.4-0.9,0.7-1.8,1-2.6
			c1.5,1.7,2.2,4.5,1.6,6.9l2,3.4c0.1-1.5,0-3.2-0.5-5.1c1.8,2,3.3,3.6,4.8,5.3c0.7,0.9,1.6,1.7,2.1,2.7c0.8,1.5,1.5,3.2,0.2,5.1
			c-0.1-0.6-0.2-1.1-0.3-1.5c-0.3-1.3-1.6-2.3-2.7-2.3c-1.3,0-2.4,0.8-2.8,2.2c-0.5,1.5,0.2,3.2,1.6,3.9c0.5,0.2,0.9,0.4,1.4,0.4
			l4.9-2.9C115,135,115.1,134.8,115.1,134.5z M108.9,136.5c-0.3-0.5-0.9-1.1-0.8-1.5c0.1-0.6,0.6-1.2,1-1.8c0.4,0.4,0.8,0.9,1.4,1.5
			C109.9,135.4,109.4,135.9,108.9,136.5z"/>
		<path d="M152,125.3c-0.1-1.3-0.7-2.2-2-2.5c-0.1,0-0.3,0-0.4-0.1l2.2,3.7C152,126.1,152.1,125.7,152,125.3z"/>
		<path d="M100.5,134.8c0.8-1.5,1.5-3.1,2.3-4.6l-5.3,3.1c-0.6,1.6-1,3.4-1.2,5.2c5.7-2.1,9.4-5.3,10-10.4l-1.2,0.7
			C104.2,131.3,102.5,133.1,100.5,134.8z"/>
		<path d="M138.6,136.6c0,1.3,0.8,2.3,2,2.7c1.3,0.4,2.4,0,3.2-1.1c0.8-1.1,1-2.8-0.1-3.9c-0.3-0.3-0.6-0.7-1-1l-3.9,2.3
			C138.7,135.8,138.6,136.1,138.6,136.6z M140.1,135.3c0.2,0,0.3,0,0.5,0c0.2,0.5,0.6,1,0.6,1.5c0,0.4-0.6,0.8-0.9,1.3
			c-0.3-0.5-0.7-1-0.8-1.6C139.4,136.1,139.9,135.7,140.1,135.3z"/>
		<path d="M133,144.7c-0.8-1.4-1.6-2.9-2.4-4.4l-2,1.2c1,2.6,2.7,5,4.3,7.4c2.4-2.7,2.3-6.1-0.2-9.8l-1,0.6
			C132.6,141.3,133.1,143.3,133,144.7z"/>
		<path d="M144.5,111.6c1.7,1.4,2.2,3.1,2.2,5.1c0,0.3,0,0.6-0.1,0.8l1.3,2.3c0.2-0.8,0.4-1.7,0.6-2.5c0.4-2.4,2-3.7,3.8-5
			c1.7-1.2,3.5-2.7,4.5-4.4c1.6-2.9,2.5-6.1,3.9-9.5c-2.5,0.6-4.4,1.8-6.1,3.2c-4.5,3.6-5.9,8.7-6.8,14.1c-0.3-1-0.7-2.1-0.6-3.1
			c0.7-5.1-1.1-9.4-4.1-13.3c-1.5-1.9-3.4-3.4-6-4.4c0,0.7,0,1.2,0,1.7c0.3,2.9,0.9,5.6,2.1,8.1l1.7,3
			C141.8,109.2,143,110.5,144.5,111.6z M150.2,111.1c0.9-1.5,1.9-3,2.9-4.5c0.6-0.8,1.3-1.6,1.9-2.3c0.1,0,0.1,0.1,0.2,0.1
			c-1,1.7-2,3.4-3,5.1c-0.4,0.7-0.7,1.4-1.2,2.1c-0.2,0.3-0.6,0.4-0.9,0.6C150.2,111.9,150.1,111.4,150.2,111.1z M145.5,111
			c-1.6-3.5-3.2-6.7-4.8-10.2C143.3,103.3,146.4,109.5,145.5,111z"/>
		<path d="M133.9,95.7c-0.1,0-0.1,0-0.2,0.1l0.2,0.3C134,96,133.9,95.9,133.9,95.7z"/>
		<path d="M19.8,87.2c0,0.9,0,1.6,0,2.4c10.5,0.2,21,0.3,31.5,0.5l-1.4-2.4C39.8,87.6,29.8,87.4,19.8,87.2z"/>
		<path d="M88.5,160.6c0.9,0,1.6,0,2.3,0c0.1-7.9,0.2-15.7,0.3-23.6l-2.3,1.4C88.7,145.8,88.6,153.2,88.5,160.6z"/>
		<path d="M92.7,27.3c0-2.9,0-5.7,0-8.7c-0.7,0-1.4,0-2.3,0c-0.1,7.6-0.2,15.2-0.3,22.8l2.4-1.4C92.6,35.7,92.7,31.5,92.7,27.3z"/>
		<path d="M89.9,77.5l-0.3-0.5c0,0.3,0,0.5,0,0.8C89.7,77.8,89.8,77.7,89.9,77.5z"/>
		<path d="M161.3,92c0-0.8,0-1.5,0-2.2c-0.3,0-0.5-0.1-0.7-0.1c-7.1-0.2-14.2-0.4-21.3-0.5c-3.1-0.1-6.3-0.1-9.4-0.2l1.4,2.4
			C141.2,91.6,151.2,91.8,161.3,92z"/>
		<path d="M91.6,102.5c0-1,0-1.9,0-2.9c-0.4,0.4-0.7,0.8-1.1,1.2L91.6,102.5z"/>
		<path d="M135.2,67.5c-0.2-0.1-0.4-0.1-0.5-0.2c-0.5,0.4-0.8,0.9-1.1,1.6c-0.3,0.8-0.3,1.4,0,2C134.8,69.5,135.4,68.4,135.2,67.5z"
			/>
		<path d="M146.2,72.2c-0.5,1.1-1.1,2.1-1.8,3.1c0.3,0,0.6,0.1,0.9,0.1c0.7,0.1,1.5-0.3,2-0.7c3.1-2.5,5.4-5.6,7.2-9.2
			c0.1-0.2,0.2-0.4,0.4-0.8c-0.4,2.9-2.1,5.8-6.7,11.7c2.1,1.4,4.5,1.3,6.9,1.4c0,0.1,0,0.3,0,0.4c-2.2,0-4.8,0.7-6.6-0.2
			c-1.6-0.8-3.4-1-5.1-1.4c-1.3,1.5-2.8,2.9-4.6,4.3c-0.6,0.5-1.3,0.9-2,1.4c0.3,0.2,0.6,0.4,0.9,0.7c0.5,0.4,1.3,0.7,1.9,0.9
			c1.8,0.5,2.6,0,3.3-1.8c0.2-0.7,0.4-1.4,0.8-1.9c0.5-0.7,1.1-1.3,1.8-1.8c0.1-0.1,0.7,0.3,0.7,0.3c-0.2,0.9-0.4,1.8-0.8,2.6
			c-0.4,0.8-1,1.6-1.4,2.4c-0.5,1,0,1.3,1,1.5c1.3,0.2,2.5,0.6,3.7,0.8c1.1,0.2,2.1,0.4,3.2,0.6c0.3,0,0.9-0.1,0.9-0.3
			c0.1-0.3,0-0.9-0.2-1.2c-0.5-0.6-1.3-0.9-1.7-1.5c-0.5-0.8-0.9-1.7-1.1-2.6c-0.1-0.2,0.5-0.6,0.8-0.9c0.2,0.3,0.5,0.5,0.6,0.8
			c0.9,2.2,2.6,3.5,4.7,4.2c0.7,0.2,1.5-0.1,2.4-0.2c-0.3-0.8-0.4-1.2-0.6-1.6c2.6-0.8,3.6-1.8,3.5-3.5c-0.9-0.1-1.8-0.1-2.7-0.2
			c1.6-1.3,2.6-2.6,2.8-4.5c0.1-0.7-0.3-1.8-1-1c-1.7,1.7-3.6,0.9-5.5,1c-0.9,0-1.3-0.3-1-1.4c0.5,0.1,1,0.2,1.5,0.3
			c1.8,0.4,3.2-0.2,4.3-1.6c0.3-0.3,0.3-0.9,0.4-1.4c-0.4,0-0.8,0-1.2,0.1c-0.3,0.1-0.6,0.2-1.3,0.4c1.6-1.6,2.6-3.1,2.5-5.2
			c-1,0.2-1.9,0.4-2.8,0.6c0.9-2.9,0.8-5.6-1.1-8.3c-0.5,1.7-1.3,2.8-2.7,3.2c-1.4,0.4-2.8,0.8-4.2,1.2c0.1-0.5,0.2-1.2,0.4-1.8
			c-1-0.2-1.6,0-2.6,1l0,0.1C147.7,64.2,148.1,67.8,146.2,72.2z"/>
		<path d="M48,112.6c-0.2-0.2-0.7-0.4-1.1-0.4c-0.1,0-0.3,0-0.4,0.1c0.5,0.3,1,0.5,1.5,0.7C48.1,112.8,48.1,112.6,48,112.6z"/>
		<path d="M45.9,109.9c-0.1,0.3-0.1,0.9-0.1,1.2c1.6-0.2,3-1.2,4.2-2.9c-0.7-0.2-1.4-0.5-2-0.7C47.1,108.2,46.3,109.1,45.9,109.9z"
			/>
		<path d="M35.9,119.6c-0.3-0.4-1.8-2.6-2-5.5c-0.1,0.1-0.2,0.1-0.3,0.2c-1.6,0.8-3.2,1.5-4.9,2.1c0.7-0.4,1.4-0.8,2-1.3
			c0.8-0.7,1.6-1.4,2.4-2.1c0.8-0.7,0.7-1.3,0-2c-1.6-1.7-3.3-3.4-4.7-5.3c-1.1-1.4-2-3-2.9-4.5c2.4,2.4,4.8,5,7.3,7.2
			c0.7,0.6,1.2,1,1.7,1.3c0.4-1.3,0.9-2.6,1.5-3.9c-0.4,0.3-0.9,0.4-1.4,0.1c-1-0.5-0.4-1.4-0.1-2.1c0.5-1,1-2,1.4-3.1
			c0.8-2.2-0.1-4.1-2-4.6c-0.4,2.2-0.9,3.1-2,3.5c0.1-3-0.6-4.7-2.9-4.9c0,1.2,0,2.4,0,3.2c-0.5-0.3-1.1-0.7-1.6-1.1
			c-1.2-0.9-2.4-1.9-3.9-3.1c-0.5,0.8-1.3,1.8-1.7,3c-0.7,2.1,0.2,4,1.2,6c-0.6-0.3-1.2-0.6-2.3-1.1c0.3,1,0.3,1.7,0.7,2.2
			c0.4,0.5,1.1,0.9,1.8,1.4c-0.7,0-1.3,0-1.9,0c0.1,1.3,0.9,2.1,1.9,2.4c0.9,0.3,2,0,3,0.2c0.8,0.1,1.7,0.4,2.2,0.9
			c0.4,0.4,0.2,1.3,0.2,1.8c-1.4-0.1-2.6-0.2-3.7-0.4c-1.2-0.2-2.3-0.7-3.9-1.2c0.4,1.5,0.4,2.9,1.1,3.9c1.1,1.5,2.7,2.2,4.7,1.7
			c0,0.1,0,0.3,0,0.4c-1.4,0.2-2.8,0.4-4.2,0.6c0.1,2.1,1.7,2.7,3.5,3.5c-0.7,0.5-1.2,0.8-1.7,1.2c1,1.5,2.2,1.8,4,0.6
			c1.4-1,2.5-2.4,3.8-3.5c0.4-0.3,1-0.4,1.4-0.6c-0.1,0.6,0.1,1.2-0.2,1.6c-0.5,0.8-1.3,1.3-1.9,2c-0.4,0.5-0.5,1.1-0.8,1.7
			c0.6,0.1,1.2,0.2,1.9,0.3c0.3,0,0.5-0.2,0.8-0.2c1.3-0.4,2.7-0.7,4-1.1C36.5,120.4,36.1,119.8,35.9,119.6z"/>
		<path d="M42,98.4c-0.4-0.3-0.9-0.6-1.5-0.9c-1-0.4-2-0.9-3.1-1.4c-1.1,1.6-0.6,3.3-0.2,5c0.2,0.8,0.2,1.6,0,2.4
			C38.5,101.7,40.1,100,42,98.4z"/>
		<path d="M123.1,54.8c-0.2-0.3-0.5-0.6-0.7-0.9c0.2-0.2,0.5-0.5,0.8-0.9c0.3,0.5,0.7,1,1,1.5c1.3-0.3,2.5-0.5,3.7-0.6
			c0.3-0.8,0.5-1.5,0.8-2.2c2.3-0.1,2.4-0.2,3.4-3c1.6,1,3.1,0.7,4.7-0.3c0.1,1.9,1.2,2.8,2.7,3.1c-0.4,1.5-0.4,2.6,0.2,3.3
			c0.7,0.2,1.3,0.5,1.9,0.8c0.9,0,1.7-0.5,2.1-1.2c0.8-1.5,0.3-2.5-1.9-4c0.8-1.4,0.6-2.7-0.5-3.9c-1.1-1.2-2.5-0.7-3.8-0.1
			c-0.2-1.6-0.7-2.9-2.2-3.5c-1.5-0.6-2.8,0-4,1.2c-0.5-1.6-1.5-2.5-2.7-2.4c-1.4,0.1-2.1,1.1-2.4,2.9c-1.1,0.2-2.3,0.2-2.9,0.7
			c-0.7,0.6-1,1.7-1.5,2.7c-2.8-0.6-4.6,1.6-3.8,4.6c-2.9-0.6-4.1,0.7-3.6,3.8c-1.2,0-2.3,0.4-3,1l1.1,1.9
			C116.3,57.2,119.8,55.7,123.1,54.8z M126.8,49.1c0,0.3,0.1,0.8,0.1,1c-1,0.3-2,0.5-3,0.8c-0.1-0.3-0.1-0.7-0.2-1
			C124.7,49.6,125.7,49.4,126.8,49.1z"/>
		<path d="M125.6,72.7c1.3,0,2.5-0.5,3-1.8c0.6-1.5,0.3-2.7-0.7-3.7c-1.7,0.5-3.6,1.4-5.6,2.6c0,0,0.1,0,0.1,0
			C122.7,71.4,123.6,72.7,125.6,72.7z"/>
		<path d="M115,41.1c0.1,0.1,0.1,0.3,0.2,0.4c1.1,1.7,2.8,2.7,4.6,0.8c0.9-0.9,2.4-1.3,3.7-1.9c0.4-0.2,0.9-0.2,1.2-0.5
			c0.3-0.2,0.5-0.6,0.5-0.9c0-0.2-0.5-0.5-0.8-0.5c-2,0-4,0.1-6,0c-0.5,0-1-0.1-1.5-0.3l0.7,1.2L115,41.1z"/>
		<path d="M108.6,45.4c-0.4,0.5-1,1-1.2,1.5c-0.2,0.5,0.2,1.6,0.3,1.6c1-0.1,2.2,0,2.9-0.5c1.2-1.1,2.4-2.1,4-2.5
			c0.6-0.1,1-0.8,1.5-1.2c-0.5-0.4-0.9-0.9-1.4-1.3c-0.4-0.4-0.8-0.7-1.2-1l-4.2,2.5C109.1,44.8,108.9,45.1,108.6,45.4z"/>
		<path d="M116.6,32.7c-0.2,0.9-0.6,1.9-1.2,2.9l0.8,1.4c0.2-0.2,0.6-0.4,0.9-0.4c0.4,0,0.8,0.3,1.2,0.2c0.8,0,1.8,0,2.3-0.4
			c1.6-1.1,2.7-2.7,3.2-4.7c0.1-0.3,0-0.7,0-1.1c-0.6,0.1-1,0.1-1.5,0.2c0-0.7,0.1-1.2,0.1-1.8c0-0.6,0-1.2-0.3-1.7
			c-0.3-0.7-0.7-1.3-1.1-2c-0.6,0.5-1.2,1.1-1.7,1.6c-0.1,0.1-0.2,0.1-0.2,0.1c-0.6-2.7-1.7-4-3.4-4.1c-0.5,1.1-0.9,2.2-1.5,3.2
			c-0.7,1.1-1.3,2.1-0.9,3.4c0.1,0.3,0.1,0.7,0,1c-0.1,0.3-0.3,0.6-0.5,0.8l1.9,3.2C115.4,33.9,116,33.3,116.6,32.7z"/>
		<path d="M101.5,25.7c0-0.1,0-0.3,0-0.3c1.5,2,2.9,4.1,4.6,5.9c0.1,0.2,0.3,0.3,0.4,0.4l5-2.9l0.2,0.3c0.1-0.2,0.2-0.3,0.3-0.5
			c1.1-2,0.5-5.4-1.2-6.8c-0.4,0.4-0.8,0.9-1.2,1.3c-1.1-1.8-3-2.7-4.5-2.1c0.4,0.7,0.8,1.4,1.4,2.4c-2.9-1.5-5.3-2.7-8-4.1
			c1.3,2.8-1.2,5.9,1.1,8.7c-0.5-0.4-1.1-0.7-1.7-1.1c-0.9,2,0.6,3.1,2,4.3c-0.1,0.1-0.2,0.1-0.3,0.2c-0.8-0.1-1.6-0.2-2.3-0.3
			c-0.2,1.9,1.3,3.8,3.3,4.1l4.6-2.7C103.6,30.5,102.4,28.2,101.5,25.7z"/>
		<path d="M96.9,35.9c-0.1,0.6-0.1,1.1,0,1.5l1.9-1.1C98.1,36.2,97.5,36,96.9,35.9z"/>
		<path d="M55.4,125.3c-0.2,0.3-0.6,0.6-0.8,0.9c-0.4-0.4-0.7-0.9-1.1-1.3c-1.6,0.3-3.1,0.4-4.5,0.4c-2.2,0-4.2-0.3-5.8-0.8
			c-0.3,0.9-0.3,1.9,0.2,2.6c0.4,0.6,1.1,1.3,1.7,1.3c1.2,0,2.4-0.4,3.5-0.7c0.7,0.5,1.6,1.3,2.4,1.5c0.9,0.1,2-0.5,3-0.8
			c0.7,2.5,2.5,3.2,5.3,1.8c0.8,2.4,2,3.5,3.6,3.4c1.5-0.1,2.7-1,3-2.6c0.1-0.8-0.1-1.7-0.4-2.4c-0.4-0.7-1.2-1.2-1.6-1.6
			c0.5-0.8,1.3-1.6,1.6-2.6c0.4-1.3-0.1-2.4-0.9-3.3c-3.4,1.6-6.6,2.8-9.7,3.4C55.1,124.8,55.2,125,55.4,125.3z M58.7,124.1
			c1,1.1,1.8,2.1,2.7,3.1c-0.2,0.1-0.6,0.4-0.8,0.6c-0.8-1.1-1.5-2.1-2.4-3.2C58.3,124.5,58.6,124.2,58.7,124.1z"/>
		<path d="M59.1,108.5c-3.2-0.2-4.5,1.3-4.3,3.5c2.1-0.9,4.4-2.2,6.8-4.1l-1.2-2.1C59.8,106.2,59.4,107.1,59.1,108.5z"/>
		<path d="M66.7,136.9c-0.1,0.1-0.2,0.3-0.4,0.4l0.4-0.3C66.7,137,66.7,136.9,66.7,136.9z"/>
		<path d="M81.9,142.5l-9.1,5.4c-0.6,0.6-1.1,1.1-1.8,1.6c1.7,0.9,3.2,1.7,4.7,2.5c-1.5,0.5-4.8-0.3-6.2-1.5
			c-0.3-0.3-0.8-0.5-1.2-0.6c-3-0.9-4.8-3.1-6.3-5.6c1.8,1.2,3.6,2.5,5.4,3.6c0.2,0.2,0.5,0.3,0.7,0.3l-4.7-8
			c-0.1,0.1-0.1,0.1-0.2,0.2c-0.2-0.2-0.7-0.5-1.1-0.8c-1-0.8-1.8-0.6-2.2,0.5c-0.5,1.3-0.7,2.8-1.1,4.4c-0.3,0-1-0.1-1.6,0
			c-0.5,0.1-1.2,0.6-1.3,1c-0.2,1.3,2,3.3,3.5,3.3c0.6,0,1.1-0.1,1.7-0.1c0.7-0.1,1.4,0,1.3,0.8c-0.1,0.5-0.8,0.9-1.3,1.1
			c-0.3,0.2-0.8-0.1-1.1,0.1c-1,0.4-2.1,0.7-3,1.3c-0.9,0.6-0.8,1.3,0.4,1.7c1.2,0.5,2.4,1,3.6,1.7c1.3,0.7,2.4,0.6,3.4-0.5
			c0.6-0.7,1-1.5,1.6-2.1c0.3-0.3,0.9-0.4,1.3-0.6c0.2,0.5,0.5,1.1,0.4,1.6c-0.1,0.5-0.5,1-0.9,1.4c-0.6,0.7-1.4,1.2-2.1,1.9
			c1.8,1.4,3.9,1.7,6,1.9c1.9,0.2,2.9-1.9,2-3.3c-0.3-0.5-0.5-1.2-0.6-1.9c0-0.3,0.3-0.6,0.5-0.9c0.3,0.2,0.8,0.3,0.8,0.5
			c0.2,0.7,0.3,1.4,0.4,2.1c0.2,1.9,0.9,2.5,2.7,2.8c1.5,0.2,2.9,0.6,4.6,1c1-0.9,0-2.1-0.1-2.9c1.2-0.9,2.3-1.5,3.1-2.4
			c0.9-0.9,0.7-1.6-0.5-2.1c-0.7-0.3-1.4-0.4-2.2-0.6c2.5-2.1,2.8-2.5,2.6-4.1c-2.4,0-4.8,0-7.3,0c0.6-1.2,1.4-1.2,2.4-1
			c2.5,0.6,4.4-0.3,5-2.3c-0.5-0.2-1-0.4-1.3-0.5c0.3-0.7,0.6-1.5,1-2.2L81.9,142.5L81.9,142.5z"/>
		<path d="M119.7,71.8l0.4,0.6c0.2-0.3,0.5-0.7,0.7-1C120.3,71.4,120,71.6,119.7,71.8z"/>
		<path d="M60,32.5c-1.3-0.1-2.3,0.3-2.8,1.5c0,0.1,0,0.1-0.1,0.2L60,32.5C60,32.5,60,32.5,60,32.5z"/>
		<path d="M65.8,29.7c-0.3-1.4-0.5-2.7-0.8-4.1c0.8,1.7,1.5,3.5,1.5,5.4l1.2,2c0.6-1.9,0.8-3.7,0.1-5.7C67,24.7,65.5,23,63,22
			c0,1.6-0.2,3.1,0.1,4.5c0.2,1.2,0.5,2.5,1,3.7l1.6-0.9L65.8,29.7z"/>
		<path d="M73.5,35.2c3.5,2.3,7.5,2.9,11.6,3.1c-1.1-3.3-3.7-4.8-6.7-5.9c-3.1-1.1-6,0.2-8.9,1.3c1.7-1.3,3.5-2.5,5.4-3.3
			c2.7-1.2,5.1-2.7,6.7-5.2c1.1-1.7,2-3.6,3.1-5.8c-1.2,0.2-1.8,0.3-2.5,0.3c-5.5,0.7-9.1,4-10.9,9c-0.7,2-1.8,3.6-3.3,4.9l1.1,1.8
			C70.6,34.5,72.2,34.3,73.5,35.2z M74.7,33.1c2.4,0.8,4.8,1.7,7.3,2.5c0,0.1-0.1,0.3-0.1,0.4c-2.8-0.8-5.5-1.5-8.3-2.3
			c0-0.1-0.1-0.2-0.1-0.3C73.9,33.3,74.4,33,74.7,33.1z M81.5,21.2c-1.2,1.9-8.8,9-9.8,9C74,26,77.8,23.9,81.5,21.2z"/>
		<path d="M120.5,146.8c1.3,0.4,2.4,0.2,3.3-0.9c0.4-0.6,0.6-1.2,0.6-1.9l-4.4,2.6C120.1,146.7,120.3,146.7,120.5,146.8z"/>
		<path d="M116.1,153.6c-0.9-1.7-1.6-3.4-1.7-5.3l-0.9-1.5c-1.2,5.3,0.4,8.7,4.7,10.4c0-1.3,0.2-2.8-0.1-4.2
			c-0.3-1.6-0.7-3.2-1.4-4.7l-1.5,0.9C115.6,150.8,115.8,152.2,116.1,153.6z"/>
		<path d="M107.2,144.2c-0.9-0.5-1.9-1.2-2.9-1.4c-2.6-0.6-5.3-1-7.9-1.5c-0.1,0.2-0.1,0.3-0.2,0.5c1.3,2.9,3.8,4.5,6.7,5.5
			c3.1,1.1,6-0.1,8.8-1.5c-1.1,1-2.2,1.9-3.4,2.6c-1.7,1-3.6,1.8-5.3,2.8c-3.3,2-4.8,5.2-6.1,8.7c7.3-0.3,11.5-4.1,13.2-9.6
			c0.6-1.8,1.6-3,2.8-4.4l-1-1.7C110.4,145.2,109,145.2,107.2,144.2z M106.9,146.4c-2.6-0.5-5.2-1.3-7.4-2.9
			c2.9,0.8,5.7,1.6,8.9,2.4C107.6,146.2,107.2,146.5,106.9,146.4z M100.6,157.5c3-2.6,5.3-5.9,8.4-8.4c0.2,0.2,0.4,0.4,0.6,0.6
			C107.4,153.2,103.8,155.2,100.6,157.5z"/>
		<path d="M68.7,124.7c0.1,0.9,0.6,1.5,1.7,1.6c-1.2-1.4-1.2-2.7,0-3.4l-0.5-0.9C69,122.5,68.5,123.3,68.7,124.7z"/>
		<path d="M51.5,105.9c1.4-1,2.8-1.9,4.2-2.9c-3,1.5-5,2.6-5.8,3.1c0,0.4-0.1,0.8-0.1,1.2C50.5,106.6,51,106.2,51.5,105.9z"/>
		<path d="M144.5,58.1c0.4-0.4,0.9-0.9,1.2-1.4c0.6-0.8,1-1.7,1.6-2.6c1.6,2.2,3,2.7,4.5,1.7c1.4-0.9,1.8-2.6,0.9-4.1
			c0,0.7,0.1,1.3,0,1.8c-0.2,1.1-0.8,1.8-2,1.9c-1.2,0.1-1.8-0.6-2-1.6c-0.2-1.5-0.2-3-0.4-4.5c-0.2-2,0-4.1-0.7-5.8
			c-2.3-5.6-6.4-8.9-12.6-9.5c-0.5,0-1-0.2-1.5-0.3c0.7-2.3,0.2-4-1.2-5c-1.4-0.9-2.7-0.9-4,0.2c0.6,0,1.1,0,1.6,0
			c1.4,0.1,2.4,1,2.5,2.5c0.1,1.2-0.5,2.1-1.7,2.5c-0.7,0.2-1.4,0.5-2,0.5c-1.9,0.1-3.3,0.7-3.5,2.5c2.6-0.3,5.4-0.7,8.1-0.8
			c5.4-0.1,9.7,2,12.2,7c2.1,4.3,1.6,8.7-0.8,12.7c-0.3,0.6-0.7,1-1.1,1.5c0.2,0.2,0.4,0.4,0.6,0.6
			C144.3,57.8,144.4,57.9,144.5,58.1z"/>
		<path d="M48.7,139.3c3.7-0.6,8.9-4.5,9.4-7.4c-0.6,0.4-1,0.7-1.3,1c-1.4,1.2-2.6,2.6-4.1,3.7c-2.3,1.7-5.7,2.4-8,1.7
			c4.9-2.3,7.4-5.1,6.9-8c-1.2-0.3-1,0.8-1.1,1.3c-1.2,4-4.9,6.3-8.6,5.5c-3.6-0.9-5.8-4.6-5-8.6c0.3-1.4,1-2.8,1.5-4.1
			c-2.3,0.2-2.8,0.6-3.5,2.7c-0.2,0.6-0.4,1.3-0.7,1.9c-0.7,1.3-2,1.7-3.1,1.1c-1.1-0.7-1.2-1.7-0.2-3c0.1-0.1,0.1-0.2,0.1-0.5
			c-1.4,0.4-1.6,1.4-1.5,2.4c0.3,1.9,1.6,2.6,3.9,2.6c0.9,2.3,1.3,4.6,2.5,6.5c2.8,4.7,7.2,6.9,12.5,7.5c0.6,0.1,1.4,0.6,1.7,1.2
			c0.2,0.4,0,1.4-0.3,1.6c-0.4,0.3-1.2,0.1-1.8,0.1c0,0.1-0.1,0.2-0.1,0.3c0.7,0.1,1.5,0.5,2.1,0.3c1.7-0.5,1.2-2.1,1.4-3.4
			c0.8-0.1,1.5-0.2,2.2-0.3c0-0.1,0-0.3,0.1-0.4c-0.5-0.1-0.9-0.4-1.4-0.4c-5.2,0.2-9.7-1.3-13.3-5.2c-0.8-0.9-1.4-2-2.1-3
			C42.2,139.4,44.3,140,48.7,139.3z"/>
	</g>
</g>
</svg>
