<?xml version="1.0" encoding="utf-8"?>
<!-- Generator: Adobe Illustrator 18.0.0, SVG Export Plug-In . SVG Version: 6.00 Build 0)  -->
<!DOCTYPE svg PUBLIC "-//W3C//DTD SVG 1.1//EN" "http://www.w3.org/Graphics/SVG/1.1/DTD/svg11.dtd">
<svg version="1.1" id="Layer_1" xmlns="http://www.w3.org/2000/svg" xmlns:xlink="http://www.w3.org/1999/xlink" x="0px" y="0px"
	 viewBox="0 0 600 200" style="enable-background:new 0 0 600 200;" xml:space="preserve">
<path id="SVGID_x5F_1_x5F_" d="M-365.6-145.1c0-33.1-26.8-60-60-60s-60,26.8-60,60s26.8,60,60,60C-392.6-85.1-365.7-112-365.6-145.1
	z"/>
<g>
	<g>
		<g>
			<g>
				<g>
					<g>
						<g>
							<path style="fill:#FFFFFF;" d="M288.1,94l2.5,4.1l4.7-6C292.8,92.8,290.5,93.5,288.1,94z"/>
						</g>
					</g>
					<g>
						<path style="fill:#FFFFFF;" d="M359.6,69.7c0,0-1-2.3-2.5-3.8c-2.2-2.8-8-3.8-10.6-3.8c-0.3,0-0.9,0-1.4,0
							c-1,0-1.9,0.1-2.8,0.3c-5.2,0.3-11.9,2.3-21.4,8.3c-8.6,5.4-17.3,14-24.1,21.6c-0.3,0.4-0.9,1.1-1.2,1.4l-0.1,0.1
							c0,0-31.5,43.7-46.7,32.4c-0.2-0.1-0.8-1.2-1-1.7c-0.6-1.1-0.1-3.2,0-3.5c1.3-3.1,5.2-5.3,5.2-5.3s2.5-2,10.2-5.3l-3.5-6.1
							l-2.4,0.9c-13.6,6.3-16.9,14.1-17.6,19.2c-0.6,3.7,1.8,6.9,1.8,6.9s9,13.5,35.8-3.1c9.2-5.7,18.5-15.3,25.4-23.1l0.1-0.1
							c0,0,2-2.3,2.7-3.1c5.5-6.9,30.9-36.8,45.1-29c0.6,0.3,0.9,0.6,1.1,1.1c2.4,6.5-9.8,12.9-15.4,15.3l3.1,5.5
							c0.7-0.2,0.7-0.3,1.3-0.6c4.7-2,8.2-4.1,11-6.1c4-3,6.2-6,7.4-8.8C360.6,75.3,360.3,72,359.6,69.7z"/>
					</g>
					<g>
						<path style="fill:#FFFFFF;" d="M308.4,100.7l-3.9,4.7c0.7,0,1.6-0.1,2.1-0.1c0.6-0.1,1.3,0,3.3-0.2c0,0,0.2,0,0.7-0.1
							L308.4,100.7l2.3,4.2"/>
					</g>
					<g>
						<g>
							<path style="fill:#FFFFFF;" d="M275.5,43.7l-4.3-7.3l-13.9,8.2l0,0L234.4,58l35.9,61.1c7.4-6,14.6-14.1,19.3-19.7l-27.9-47.5
								L275.5,43.7z"/>
						</g>
						<g>
							<path style="fill:#FFFFFF;" d="M320.2,69.4c0.7-0.4,1.3-0.9,2-1.2l-9.9-16.7l13.9-8.2l-4.3-7.4L308,44l0,0L285,57.5
								l16.3,27.8C307.1,79.4,313.6,73.5,320.2,69.4z"/>
						</g>
					</g>
					<g>
						<g>
							<path style="fill:#FFFFFF;" d="M278.5,129.3c-0.6,0.3-1.2,0.7-1.8,1.1l9.9,16.9l-14,8.2l4.3,7.4l14-8.2l0,0l22.9-13.5
								l-16.4-28C291.7,119.1,285,125.2,278.5,129.3z"/>
						</g>
						<g>
							<path style="fill:#FFFFFF;" d="M329.3,80.4c-7.9,5.9-15.3,14-19.7,19.1l27.8,47.2l-14,8.2l4.3,7.4l14-8.2l0,0l22.9-13.5
								L329.3,80.4z"/>
						</g>
					</g>
				</g>
			</g>
			<g>
				<g>
					<path style="fill:#FFFFFF;" d="M364,158c-0.7-0.1-1.2-0.1-1.8,0.4c-0.6,0.6-0.6,1.4,0,2c0.6,0.6,1.3,0.2,2-0.1l0.6-0.2
						c1.1-0.4,2.2-0.8,3.2,0.1c1.1,1.1,1.1,2.8,0.1,3.9c-1,1-2.3,1.2-3.5,0.4l0.4-0.9c0.8,0.6,1.8,0.6,2.4-0.1s0.7-1.8,0-2.5
						c-0.8-0.7-1.6-0.3-2.4,0l-0.6,0.2c-1,0.4-2,0.7-3-0.1c-1-0.9-0.9-2.3,0.1-3.3c0.7-0.7,1.7-1,2.5-0.7L364,158z"/>
					<path style="fill:#FFFFFF;" d="M367.1,154.5c-0.7-0.1-1.2,0-1.7,0.6c-0.6,0.6-0.6,1.4,0.1,2c0.6,0.4,1.3,0.1,2-0.1l0.6-0.3
						c1.1-0.6,2.2-0.9,3.2,0c1.2,1,1.2,2.7,0.2,3.9c-0.9,1.1-2.3,1.3-3.5,0.7l0.4-0.9c0.8,0.4,1.8,0.4,2.4-0.3
						c0.7-0.8,0.7-1.9-0.1-2.4c-0.8-0.7-1.6-0.3-2.4,0.1l-0.6,0.2c-1,0.4-2,0.8-3,0c-1-0.9-1-2.3-0.1-3.3c0.7-0.8,1.6-1,2.5-0.9
						L367.1,154.5z"/>
					<path style="fill:#FFFFFF;" d="M369.8,150.9c-0.7-0.1-1.2,0-1.7,0.7s-0.4,1.6,0.2,2c0.6,0.4,1.3,0,1.9-0.2l0.6-0.3
						c1.1-0.6,2.1-1,3.2-0.2c1.2,0.9,1.4,2.7,0.4,3.9c-0.9,1.1-2.2,1.4-3.4,0.8l0.3-0.9c0.8,0.4,1.8,0.3,2.3-0.4s0.6-1.9-0.2-2.4
						c-0.8-0.7-1.6-0.2-2.3,0.2l-0.6,0.3c-1,0.6-2,0.9-3,0.1c-1.1-0.8-1.1-2.3-0.3-3.3c0.6-0.8,1.6-1.1,2.4-1L369.8,150.9z"/>
					<path style="fill:#FFFFFF;" d="M372.5,147.2c-0.7,0-1.2,0.1-1.7,0.7c-0.4,0.7-0.3,1.6,0.3,2c0.7,0.4,1.3,0,1.9-0.3l0.6-0.3
						c1.1-0.7,2.1-1.1,3.2-0.3c1.2,0.9,1.6,2.5,0.7,3.8c-0.8,1.2-2.1,1.6-3.4,1l0.3-0.9c0.8,0.4,1.8,0.2,2.3-0.6s0.4-1.9-0.4-2.4
						c-0.9-0.6-1.6-0.1-2.3,0.3l-0.4,0.3c-1,0.6-1.9,1-3,0.3c-1.1-0.8-1.2-2.2-0.4-3.3c0.6-0.8,1.4-1.2,2.4-1.1V147.2z"/>
					<path style="fill:#FFFFFF;" d="M374.8,143.2c-0.7,0-1.2,0.1-1.7,0.8s-0.3,1.6,0.4,2c0.7,0.4,1.3-0.1,1.9-0.4l0.6-0.3
						c1-0.7,2-1.2,3.2-0.6c1.3,0.8,1.7,2.4,0.9,3.8c-0.8,1.2-2.1,1.7-3.3,1.2l0.2-1c0.9,0.3,1.8,0.1,2.3-0.7
						c0.4-0.8,0.3-1.9-0.6-2.4s-1.6,0-2.3,0.4l-0.4,0.3c-0.9,0.7-1.9,1.1-2.9,0.4c-1.2-0.7-1.3-2.1-0.7-3.3c0.6-0.9,1.3-1.3,2.3-1.2
						L374.8,143.2z"/>
					<path style="fill:#FFFFFF;" d="M377.1,139.2c-0.7,0-1.2,0.2-1.6,0.9c-0.3,0.7-0.2,1.6,0.6,1.9c0.7,0.3,1.3-0.1,1.9-0.6l0.6-0.4
						c1-0.8,2-1.3,3.2-0.7c1.3,0.8,1.8,2.3,1.1,3.8c-0.7,1.2-2,1.8-3.3,1.3l0.2-1c0.9,0.3,1.9,0,2.3-0.8c0.4-0.9,0.2-1.9-0.7-2.4
						c-0.9-0.4-1.6,0.1-2.3,0.6l-0.4,0.3c-0.9,0.7-1.8,1.2-2.9,0.7c-1.2-0.7-1.4-2.1-0.8-3.2c0.4-0.9,1.3-1.3,2.3-1.3L377.1,139.2z"
						/>
					<path style="fill:#FFFFFF;" d="M379,135.1c-0.7,0-1.2,0.3-1.6,1c-0.3,0.7-0.1,1.6,0.7,1.9c0.7,0.3,1.3-0.2,1.9-0.7l0.4-0.4
						c1-0.8,1.9-1.4,3.1-0.9c1.4,0.7,1.9,2.3,1.3,3.7s-1.9,1.9-3.2,1.6l0.2-1c0.9,0.2,1.9,0,2.2-0.9c0.4-0.9,0.1-2-0.8-2.3
						c-0.9-0.4-1.6,0.1-2.3,0.8l-0.4,0.3c-0.9,0.8-1.7,1.3-2.9,0.8c-1.2-0.6-1.6-2-1-3.2c0.4-0.9,1.2-1.4,2.2-1.4L379,135.1z"/>
					<path style="fill:#FFFFFF;" d="M380.8,130.9c-0.7,0.1-1.2,0.3-1.4,1c-0.3,0.8,0,1.6,0.7,1.9s1.3-0.3,1.8-0.8l0.4-0.4
						c0.9-0.9,1.8-1.6,3.1-1c1.4,0.6,2.1,2.2,1.4,3.5c-0.6,1.3-1.8,2-3.1,1.7l0.1-1c0.9,0.2,1.8-0.1,2.2-1c0.3-0.9,0-2-0.9-2.3
						c-1-0.4-1.6,0.2-2.2,0.9l-0.4,0.4c-0.8,0.8-1.7,1.4-2.8,0.9c-1.2-0.6-1.7-1.9-1.1-3.1c0.3-0.9,1.1-1.4,2.1-1.6L380.8,130.9z"/>
					<path style="fill:#FFFFFF;" d="M382.4,126.6c-0.7,0.1-1.1,0.4-1.4,1.1c-0.2,0.8,0,1.6,0.8,1.9c0.7,0.2,1.3-0.3,1.8-0.9l0.4-0.4
						c0.9-0.9,1.7-1.7,3-1.2c1.4,0.6,2.2,2.1,1.7,3.5c-0.4,1.3-1.7,2-3.1,1.9l0.1-1c0.9,0.2,1.8-0.2,2.1-1.1c0.3-0.9-0.1-2-1-2.3
						c-1-0.3-1.6,0.3-2.2,1l-0.4,0.4c-0.8,0.8-1.6,1.4-2.8,1.1c-1.3-0.4-1.8-1.9-1.3-3.1c0.3-0.9,1.1-1.6,2-1.7L382.4,126.6z"/>
					<path style="fill:#FFFFFF;" d="M383.7,122.2c-0.7,0.2-1.1,0.4-1.3,1.2c-0.2,0.8,0.1,1.6,0.9,1.8c0.8,0.2,1.3-0.4,1.7-0.9
						l0.4-0.4c0.8-1,1.7-1.8,3-1.3c1.4,0.4,2.2,2,1.9,3.4c-0.4,1.3-1.6,2.1-3,2v-1c0.9,0.1,1.8-0.3,2.1-1.2c0.2-0.9-0.2-2-1.1-2.2
						c-1-0.3-1.6,0.4-2.1,1.1l-0.3,0.4c-0.8,0.9-1.4,1.6-2.7,1.2c-1.3-0.3-1.9-1.8-1.4-3c0.2-1,1-1.6,2-1.8V122.2z"/>
					<path style="fill:#FFFFFF;" d="M384.7,117.7c-0.7,0.2-1.1,0.6-1.3,1.2c-0.2,0.8,0.2,1.6,1,1.8c0.8,0.2,1.2-0.6,1.7-1l0.3-0.6
						c0.8-1,1.6-1.8,2.9-1.4c1.6,0.3,2.3,1.9,2,3.3c-0.3,1.3-1.4,2.2-2.9,2.1v-1c0.9,0.1,1.8-0.4,2-1.3c0.2-0.9-0.3-1.9-1.2-2.1
						c-1-0.2-1.6,0.4-2.1,1.2l-0.3,0.4c-0.7,0.9-1.4,1.7-2.7,1.3c-1.3-0.3-1.9-1.7-1.7-2.9c0.2-1,0.9-1.7,1.9-1.9L384.7,117.7z"/>
					<path style="fill:#FFFFFF;" d="M385.6,113.3c-0.7,0.2-1.1,0.6-1.2,1.3c-0.1,0.8,0.3,1.6,1.1,1.7c0.8,0.1,1.2-0.6,1.6-1.1
						l0.3-0.6c0.7-1,1.4-1.9,2.8-1.7c1.6,0.2,2.4,1.7,2.2,3.2c-0.2,1.4-1.3,2.2-2.8,2.3l-0.1-1c0.9,0,1.8-0.6,1.9-1.4
						c0.2-0.9-0.4-1.9-1.3-2.1c-1-0.2-1.6,0.6-2,1.3l-0.3,0.4c-0.7,0.9-1.3,1.7-2.5,1.4c-1.3-0.2-2-1.6-1.8-2.9c0.2-1,0.8-1.7,1.8-2
						L385.6,113.3z"/>
					<path style="fill:#FFFFFF;" d="M386.3,108.8c-0.7,0.2-1,0.7-1.1,1.3c-0.1,0.8,0.3,1.6,1.2,1.7c0.8,0.1,1.2-0.7,1.6-1.2l0.3-0.6
						c0.7-1.1,1.3-2,2.8-1.8c1.6,0.2,2.5,1.6,2.3,3.1c-0.2,1.4-1.2,2.3-2.7,2.4l-0.1-1c0.9,0,1.8-0.6,1.9-1.6c0.1-0.9-0.4-1.9-1.4-2
						c-1-0.1-1.4,0.7-2,1.4l-0.3,0.6c-0.6,1-1.2,1.8-2.4,1.7c-1.3-0.2-2.1-1.4-1.9-2.8c0.1-1,0.8-1.8,1.7-2.1L386.3,108.8z"/>
					<path style="fill:#FFFFFF;" d="M386.6,104.2c-0.7,0.3-1,0.7-1.1,1.4s0.4,1.6,1.2,1.6c0.8,0,1.2-0.7,1.4-1.2l0.3-0.6
						c0.6-1.1,1.2-2,2.7-1.9c1.6,0.1,2.7,1.4,2.5,3c-0.1,1.4-1.1,2.4-2.4,2.5l-0.2-1c0.9-0.1,1.7-0.7,1.8-1.7
						c0.1-0.9-0.6-1.9-1.6-1.9c-1-0.1-1.4,0.7-1.9,1.4l-0.2,0.6c-0.6,1-1.1,1.9-2.4,1.8c-1.3-0.1-2.1-1.3-2.1-2.7
						c0.1-1,0.7-1.8,1.6-2.2L386.6,104.2z"/>
					<path style="fill:#FFFFFF;" d="M386.7,99.6c-0.7,0.3-1,0.8-1,1.6s0.6,1.4,1.3,1.4c0.8,0,1.1-0.8,1.4-1.3l0.2-0.6
						c0.6-1.1,1.1-2.1,2.5-2.1c1.6,0,2.7,1.3,2.7,2.9c0,1.4-1,2.4-2.3,2.7l-0.2-1c0.9-0.1,1.7-0.8,1.7-1.8c0-1-0.7-1.8-1.7-1.9
						c-1,0-1.4,0.8-1.8,1.6l-0.2,0.6c-0.4,1-1,1.9-2.3,1.9s-2.2-1.2-2.2-2.5c0-1,0.6-1.8,1.4-2.2L386.7,99.6z"/>
					<path style="fill:#FFFFFF;" d="M386.6,95c-0.6,0.3-0.9,0.8-0.9,1.6c0,0.8,0.6,1.4,1.4,1.4c0.8,0,1.1-0.8,1.3-1.4l0.2-0.6
						c0.4-1.1,1-2.1,2.4-2.2c1.6,0,2.8,1.1,2.8,2.7c0,1.4-0.9,2.4-2.2,2.8l-0.3-1c0.9-0.1,1.7-0.9,1.6-1.8c0-1-0.8-1.8-1.8-1.8
						c-1,0-1.3,0.9-1.7,1.7l-0.2,0.6c-0.4,1-0.9,2-2.2,2s-2.3-1.1-2.3-2.4c0-1,0.4-1.9,1.3-2.3L386.6,95z"/>
					<path style="fill:#FFFFFF;" d="M386.3,90.5c-0.6,0.4-0.9,0.9-0.8,1.6c0.1,0.8,0.7,1.4,1.4,1.3c0.8-0.1,1-0.9,1.2-1.4l0.2-0.6
						c0.4-1.2,0.9-2.2,2.3-2.3c1.6-0.1,2.8,1,3,2.5c0.1,1.4-0.7,2.5-2,2.9l-0.3-0.9c0.9-0.2,1.6-1,1.4-1.9c-0.1-1-0.9-1.8-1.9-1.7
						s-1.3,0.9-1.7,1.8l-0.2,0.6c-0.3,1.1-0.9,2-2.1,2.1c-1.3,0.1-2.3-1-2.4-2.3c-0.1-1,0.3-1.9,1.2-2.4L386.3,90.5z"/>
					<path style="fill:#FFFFFF;" d="M385.7,85.9c-0.6,0.4-0.9,0.9-0.8,1.7c0.1,0.8,0.8,1.3,1.6,1.2c0.8-0.1,1-0.9,1.2-1.6l0.2-0.7
						c0.3-1.2,0.8-2.2,2.2-2.4c1.6-0.2,2.9,0.9,3.1,2.3c0.2,1.4-0.6,2.5-1.9,3l-0.4-0.9c0.9-0.2,1.6-1,1.3-2c-0.1-0.9-1-1.7-2-1.6
						s-1.2,1-1.6,1.9l-0.1,0.6c-0.3,1.1-0.8,2-2,2.2c-1.3,0.2-2.3-0.9-2.5-2.1c-0.1-1,0.2-1.9,1-2.4L385.7,85.9z"/>
					<path style="fill:#FFFFFF;" d="M384.9,81.5c-0.6,0.4-0.8,0.9-0.7,1.7c0.1,0.8,0.8,1.3,1.7,1.2c0.8-0.1,1-1,1.1-1.7l0.1-0.7
						c0.3-1.2,0.7-2.3,2-2.5c1.6-0.3,2.9,0.7,3.2,2.2c0.2,1.4-0.4,2.5-1.8,3.1l-0.4-0.9c0.9-0.3,1.4-1.1,1.3-2c-0.2-0.9-1-1.7-2-1.4
						c-1,0.2-1.2,1-1.4,1.9l-0.1,0.6c-0.2,1.1-0.7,2.1-1.9,2.3c-1.3,0.2-2.4-0.7-2.7-2c-0.2-1,0.1-1.9,0.9-2.5L384.9,81.5z"/>
					<path style="fill:#FFFFFF;" d="M383.8,76.9c-0.6,0.4-0.8,1-0.6,1.7c0.2,0.8,0.9,1.3,1.7,1.1c0.8-0.2,0.9-1,1-1.7l0.1-0.7
						c0.2-1.2,0.6-2.3,1.9-2.7c1.6-0.3,3,0.6,3.3,2c0.3,1.3-0.3,2.7-1.6,3.2l-0.4-0.9c0.9-0.3,1.4-1.2,1.2-2.1
						c-0.2-0.9-1.1-1.6-2.1-1.3c-1,0.2-1.1,1.1-1.3,2l-0.1,0.6c-0.2,1.1-0.6,2.1-1.8,2.4c-1.3,0.3-2.4-0.6-2.8-1.9
						c-0.2-1,0.1-1.9,0.8-2.5L383.8,76.9z"/>
					<path style="fill:#FFFFFF;" d="M382.5,72.6c-0.4,0.6-0.7,1-0.4,1.8c0.2,0.8,1,1.2,1.8,1c0.8-0.2,0.9-1.1,0.9-1.8l0.1-0.7
						c0.1-1.2,0.4-2.3,1.8-2.8c1.4-0.4,3,0.4,3.4,1.9c0.4,1.3-0.1,2.7-1.4,3.3l-0.6-0.9c0.8-0.3,1.3-1.2,1.1-2.2
						c-0.2-0.9-1.2-1.6-2.2-1.2s-1.1,1.2-1.2,2.1l-0.1,0.6c-0.1,1.1-0.4,2.1-1.7,2.4c-1.3,0.4-2.4-0.4-2.9-1.7c-0.3-1,0-1.9,0.7-2.5
						L382.5,72.6z"/>
					<path style="fill:#FFFFFF;" d="M381,68.3c-0.4,0.6-0.7,1-0.3,1.8c0.2,0.8,1,1.2,1.8,0.9c0.7-0.2,0.8-1.1,0.8-1.8v-0.7
						c0.1-1.2,0.3-2.3,1.7-2.9c1.4-0.6,3,0.2,3.5,1.7c0.4,1.3,0,2.7-1.2,3.3l-0.6-0.8c0.8-0.4,1.2-1.3,0.9-2.2
						c-0.3-0.9-1.3-1.4-2.2-1.1c-1,0.3-1,1.2-1.1,2.1v0.6c-0.1,1.1-0.3,2.1-1.4,2.5c-1.3,0.4-2.5-0.3-3-1.6
						c-0.3-0.9-0.1-1.9,0.6-2.7L381,68.3z"/>
					<path style="fill:#FFFFFF;" d="M379.3,64c-0.4,0.6-0.6,1.1-0.3,1.8c0.3,0.8,1.1,1.1,1.9,0.8c0.7-0.3,0.7-1.1,0.8-1.8v-0.7
						c0-1.2,0.2-2.3,1.4-2.9c1.4-0.6,3,0.1,3.5,1.4c0.6,1.3,0.1,2.7-1,3.4l-0.7-0.8c0.8-0.4,1.2-1.4,0.8-2.2c-0.3-0.9-1.3-1.4-2.3-1
						c-1,0.4-1,1.3-1,2.2v0.6c0,1.1-0.2,2.1-1.3,2.7c-1.2,0.6-2.5-0.2-3-1.4c-0.3-0.9-0.2-1.9,0.3-2.7L379.3,64z"/>
					<path style="fill:#FFFFFF;" d="M377.3,59.9c-0.4,0.6-0.6,1.1-0.2,1.8c0.3,0.7,1.1,1.1,1.9,0.8c0.7-0.3,0.7-1.2,0.7-1.9v-0.7
						c0-1.2,0-2.3,1.3-3c1.4-0.7,3-0.1,3.7,1.3c0.7,1.3,0.2,2.7-0.9,3.4l-0.7-0.8c0.8-0.6,1.1-1.4,0.7-2.3s-1.4-1.3-2.3-0.9
						c-0.9,0.4-0.9,1.3-0.9,2.2v0.6c0,1.1-0.1,2.1-1.2,2.7c-1.2,0.6-2.5-0.1-3.1-1.2c-0.4-0.9-0.3-1.9,0.2-2.7L377.3,59.9z"/>
					<path style="fill:#FFFFFF;" d="M375.2,55.9c-0.3,0.6-0.4,1.1-0.1,1.8c0.3,0.7,1.2,1,1.9,0.7c0.7-0.3,0.6-1.2,0.6-1.9l-0.1-0.7
						c-0.1-1.2-0.1-2.3,1.1-3.1c1.3-0.8,3-0.2,3.8,1.1c0.7,1.2,0.4,2.5-0.7,3.5l-0.7-0.7c0.8-0.6,1-1.6,0.6-2.3
						c-0.4-0.8-1.6-1.2-2.3-0.8c-0.9,0.4-0.8,1.3-0.8,2.2v0.6c0.1,1.1,0.1,2.1-1,2.8c-1.2,0.7-2.5,0.1-3.1-1.1
						c-0.4-0.9-0.4-1.8,0.1-2.7L375.2,55.9z"/>
					<path style="fill:#FFFFFF;" d="M372.7,52c-0.3,0.7-0.4,1.1,0,1.8s1.2,1,1.9,0.6c0.7-0.4,0.6-1.2,0.4-1.9l-0.1-0.7
						c-0.2-1.2-0.2-2.3,1-3.1c1.3-0.8,3-0.3,3.8,0.9c0.8,1.2,0.6,2.5-0.4,3.5l-0.8-0.7c0.7-0.6,1-1.6,0.4-2.3
						c-0.6-0.8-1.6-1.1-2.4-0.7c-0.9,0.6-0.8,1.4-0.7,2.3l0.1,0.6c0.1,1.1,0.2,2.1-0.9,2.8s-2.5,0.2-3.2-0.9c-0.6-0.9-0.6-1.8,0-2.7
						L372.7,52z"/>
					<path style="fill:#FFFFFF;" d="M370.2,48.2c-0.3,0.7-0.3,1.2,0.1,1.8c0.4,0.7,1.3,0.9,2,0.4c0.7-0.4,0.4-1.3,0.3-1.9l-0.1-0.7
						c-0.2-1.2-0.3-2.3,0.8-3.1c1.2-0.9,3-0.6,3.8,0.7c0.8,1.1,0.7,2.5-0.3,3.5l-0.8-0.7c0.7-0.7,0.9-1.6,0.3-2.3
						c-0.6-0.8-1.7-1.1-2.4-0.6c-0.9,0.6-0.7,1.4-0.6,2.3l0.1,0.6c0.2,1.1,0.3,2.1-0.8,2.9c-1.1,0.8-2.5,0.3-3.2-0.8
						c-0.6-0.8-0.7-1.8-0.2-2.7L370.2,48.2z"/>
					<path style="fill:#FFFFFF;" d="M367.4,44.6c-0.2,0.7-0.3,1.2,0.2,1.8c0.4,0.7,1.3,0.8,2,0.3c0.6-0.4,0.4-1.3,0.2-1.9l-0.1-0.7
						c-0.3-1.2-0.4-2.3,0.7-3.2c1.2-0.9,2.9-0.7,3.9,0.6c0.9,1.1,0.8,2.5-0.1,3.5l-0.8-0.6c0.7-0.7,0.8-1.7,0.2-2.4
						c-0.6-0.8-1.7-1-2.4-0.3c-0.8,0.7-0.6,1.4-0.4,2.3l0.1,0.6c0.2,1.1,0.4,2.1-0.6,2.9c-1.1,0.9-2.4,0.4-3.3-0.6
						c-0.6-0.8-0.7-1.8-0.3-2.7L367.4,44.6z"/>
					<path style="fill:#FFFFFF;" d="M364.4,41.1c-0.2,0.7-0.2,1.2,0.2,1.8c0.6,0.6,1.3,0.8,2,0.2c0.6-0.4,0.3-1.3,0.1-2l-0.2-0.6
						c-0.3-1.2-0.6-2.3,0.4-3.2c1.2-1,2.9-0.9,3.9,0.3c0.9,1.1,0.9,2.4,0.1,3.5l-0.8-0.6c0.6-0.7,0.7-1.7,0.1-2.4
						c-0.7-0.7-1.8-0.9-2.4-0.2c-0.8,0.7-0.6,1.6-0.2,2.3l0.2,0.6c0.3,1.1,0.6,2.1-0.4,2.9c-1,0.9-2.4,0.6-3.3-0.4
						c-0.7-0.8-0.8-1.7-0.4-2.7L364.4,41.1z"/>
					<path style="fill:#FFFFFF;" d="M361.3,37.7c-0.2,0.7-0.1,1.2,0.3,1.8c0.6,0.6,1.4,0.7,2,0.1c0.6-0.6,0.2-1.3,0-2l-0.2-0.6
						c-0.4-1.2-0.7-2.2,0.3-3.2c1.1-1.1,2.8-1,3.9,0.1c1,1,1,2.4,0.2,3.5l-0.9-0.6c0.6-0.7,0.7-1.8,0-2.4s-1.8-0.8-2.5-0.1
						c-0.8,0.7-0.4,1.6-0.1,2.4l0.2,0.6c0.3,1.1,0.7,2.1-0.3,3c-1,1-2.4,0.8-3.3-0.2c-0.7-0.7-0.9-1.7-0.6-2.5L361.3,37.7z"/>
					<path style="fill:#FFFFFF;" d="M358,34.6c-0.1,0.7-0.1,1.2,0.4,1.8s1.4,0.6,2,0s0.2-1.3-0.1-2l-0.2-0.6
						c-0.4-1.1-0.8-2.2,0.1-3.2c1.1-1.1,2.8-1.1,3.9-0.1c1,1,1.2,2.3,0.4,3.5l-0.9-0.4c0.6-0.8,0.6-1.8-0.1-2.4s-1.8-0.7-2.5,0
						c-0.7,0.8-0.3,1.6,0,2.4l0.2,0.6c0.4,1,0.7,2-0.1,3c-0.9,1-2.3,0.9-3.3,0c-0.7-0.7-1-1.6-0.8-2.5H358z"/>
					<path style="fill:#FFFFFF;" d="M354.5,31.6c-0.1,0.7,0,1.2,0.6,1.7c0.6,0.6,1.4,0.6,2-0.1c0.4-0.6,0.1-1.3-0.1-2l-0.3-0.6
						c-0.6-1.1-0.9-2.2,0-3.2c1-1.2,2.7-1.3,3.9-0.3c1.1,0.9,1.3,2.3,0.7,3.5l-0.9-0.4c0.4-0.8,0.4-1.8-0.3-2.4
						c-0.8-0.6-1.9-0.7-2.4,0.1c-0.7,0.8-0.2,1.6,0.1,2.4l0.2,0.6c0.4,1,0.8,2,0,3c-0.9,1-2.3,1-3.3,0.1c-0.8-0.7-1.1-1.6-0.9-2.5
						L354.5,31.6z"/>
					<path style="fill:#FFFFFF;" d="M350.9,28.8c-0.1,0.7,0,1.2,0.7,1.7c0.7,0.4,1.6,0.4,2-0.2c0.4-0.6,0-1.3-0.2-1.9l-0.3-0.6
						c-0.6-1.1-1-2.1-0.2-3.2c0.9-1.2,2.7-1.4,3.9-0.6c1.1,0.9,1.4,2.2,0.8,3.4l-0.9-0.3c0.4-0.8,0.3-1.8-0.4-2.3
						c-0.8-0.6-1.9-0.6-2.4,0.2c-0.7,0.8-0.2,1.6,0.2,2.3l0.3,0.6c0.6,1,0.9,2,0.1,3c-0.8,1.1-2.3,1.1-3.3,0.3
						c-0.8-0.6-1.1-1.4-1-2.4H350.9z"/>
					<path style="fill:#FFFFFF;" d="M347.1,26.3c0,0.7,0.1,1.2,0.8,1.7c0.7,0.4,1.6,0.3,2-0.3c0.4-0.7,0-1.3-0.3-1.9l-0.3-0.6
						c-0.7-1.1-1.1-2.1-0.3-3.2c0.9-1.3,2.5-1.6,3.8-0.7c1.2,0.8,1.6,2.1,1,3.4l-1-0.3c0.4-0.8,0.2-1.8-0.6-2.3s-1.9-0.4-2.4,0.4
						s-0.1,1.6,0.3,2.3l0.3,0.4c0.6,1,1,1.9,0.3,3c-0.8,1.1-2.2,1.2-3.3,0.4c-0.8-0.6-1.2-1.4-1.1-2.4H347.1z"/>
					<path style="fill:#FFFFFF;" d="M343.2,23.8c0,0.7,0.1,1.2,0.8,1.6c0.7,0.4,1.6,0.2,2-0.4c0.4-0.7-0.1-1.3-0.4-1.9l-0.3-0.6
						c-0.7-1-1.2-2-0.6-3.2c0.8-1.3,2.4-1.7,3.8-0.9c1.2,0.8,1.7,2.1,1.2,3.3l-1-0.2c0.3-0.9,0.1-1.8-0.7-2.3
						c-0.8-0.4-1.9-0.3-2.4,0.6s0,1.6,0.4,2.3l0.3,0.4c0.7,0.9,1.1,1.9,0.4,2.9c-0.7,1.2-2.1,1.3-3.3,0.7c-0.9-0.6-1.3-1.3-1.2-2.3
						L343.2,23.8z"/>
					<path style="fill:#FFFFFF;" d="M339.1,21.6c0,0.7,0.2,1.2,0.9,1.6c0.7,0.3,1.6,0.2,1.9-0.6c0.3-0.7-0.2-1.3-0.6-1.9l-0.4-0.6
						c-0.8-1-1.3-2-0.7-3.2c0.8-1.3,2.3-1.8,3.8-1.1c1.2,0.7,1.8,2,1.3,3.3l-1-0.2c0.3-0.9,0-1.9-0.8-2.3c-0.9-0.4-2-0.2-2.4,0.7
						c-0.4,0.9,0.1,1.6,0.6,2.3l0.3,0.4c0.7,0.9,1.2,1.8,0.7,2.9c-0.7,1.2-2.1,1.4-3.2,0.8c-0.9-0.4-1.3-1.3-1.3-2.3L339.1,21.6z"/>
					<path style="fill:#FFFFFF;" d="M335,19.7c0.1,0.7,0.3,1.2,1,1.6s1.6,0.1,1.9-0.7c0.3-0.7-0.2-1.3-0.7-1.9l-0.4-0.4
						c-0.8-0.9-1.4-1.9-0.9-3.1c0.7-1.4,2.3-2,3.7-1.3c1.3,0.6,1.9,1.9,1.6,3.2l-1-0.1c0.2-0.9,0-1.8-0.9-2.2
						c-0.9-0.4-2-0.1-2.3,0.8c-0.4,0.9,0.1,1.6,0.8,2.3l0.4,0.4c0.8,0.9,1.3,1.7,0.8,2.9s-2,1.6-3.2,1c-0.9-0.4-1.4-1.2-1.4-2.2
						L335,19.7z"/>
					<path style="fill:#FFFFFF;" d="M330.8,18c0.1,0.7,0.3,1.2,1,1.4c0.8,0.3,1.6,0,1.9-0.8c0.3-0.7-0.3-1.3-0.8-1.8l-0.4-0.4
						c-0.9-0.9-1.6-1.8-1-3.1c0.6-1.4,2.2-2.1,3.5-1.4c1.3,0.6,2,1.8,1.7,3.1l-1-0.1c0.2-0.9-0.1-1.8-1-2.2c-0.9-0.3-2,0-2.3,0.9
						c-0.4,1,0.2,1.6,0.9,2.2l0.4,0.4c0.8,0.8,1.4,1.7,0.9,2.8c-0.6,1.2-1.9,1.7-3.1,1.1c-0.9-0.3-1.4-1.1-1.6-2.1L330.8,18z"/>
					<path style="fill:#FFFFFF;" d="M326.5,16.4c0.1,0.7,0.4,1.1,1.1,1.4c0.8,0.2,1.6,0,1.8-0.8c0.2-0.7-0.3-1.3-0.9-1.8l-0.4-0.4
						c-0.9-0.9-1.7-1.7-1.2-3c0.6-1.4,2.1-2.2,3.5-1.7c1.3,0.4,2,1.7,1.9,3l-1-0.1c0.2-0.9-0.2-1.8-1.1-2.1c-0.9-0.3-2,0.1-2.2,1
						c-0.3,1,0.3,1.6,1,2.2l0.4,0.4c0.8,0.8,1.4,1.6,1.1,2.8c-0.4,1.3-1.8,1.8-3.1,1.3c-0.9-0.3-1.6-1.1-1.7-2L326.5,16.4z"/>
					<path style="fill:#FFFFFF;" d="M322.2,15.1c0.2,0.7,0.4,1.1,1.2,1.3c0.8,0.2,1.6-0.1,1.8-0.9c0.2-0.8-0.4-1.3-0.9-1.7l-0.4-0.4
						c-1-0.8-1.8-1.7-1.3-3c0.4-1.4,2-2.3,3.4-1.9c1.3,0.4,2.1,1.6,2,3h-1c0.1-0.9-0.3-1.8-1.2-2.1c-0.9-0.2-2,0.2-2.2,1.1
						c-0.3,1,0.4,1.6,1.1,2.1l0.4,0.3c0.9,0.8,1.6,1.4,1.2,2.7c-0.3,1.3-1.8,1.9-3,1.4c-1-0.2-1.6-1-1.8-2H322.2z"/>
					<path style="fill:#FFFFFF;" d="M317.7,14.1c0.2,0.7,0.6,1.1,1.2,1.3c0.8,0.2,1.6-0.2,1.8-1c0.2-0.8-0.6-1.2-1-1.7l-0.6-0.3
						c-1-0.8-1.8-1.6-1.6-2.9c0.3-1.6,1.8-2.3,3.3-2c1.3,0.3,2.2,1.4,2.2,2.9h-1c0.1-0.9-0.4-1.8-1.3-2c-0.9-0.2-1.9,0.3-2.1,1.2
						c-0.2,1,0.4,1.6,1.2,2.1l0.4,0.3c0.9,0.7,1.7,1.4,1.3,2.7c-0.3,1.3-1.7,1.9-2.9,1.7c-1-0.2-1.7-0.9-1.9-1.9L317.7,14.1z"/>
					<path style="fill:#FFFFFF;" d="M313.2,13.2c0.2,0.7,0.6,1.1,1.3,1.2c0.8,0.1,1.6-0.3,1.7-1.1c0.1-0.8-0.6-1.2-1.1-1.6l-0.6-0.3
						c-1-0.7-1.9-1.4-1.7-2.8c0.2-1.6,1.7-2.4,3.2-2.2c1.4,0.2,2.2,1.3,2.3,2.8l-1,0.1c0-0.9-0.6-1.8-1.4-1.9
						c-0.9-0.2-1.9,0.4-2.1,1.3c-0.2,1,0.6,1.6,1.3,2l0.4,0.3c0.9,0.7,1.7,1.3,1.4,2.5c-0.2,1.3-1.6,2-2.8,1.8c-1-0.2-1.7-0.8-2-1.8
						L313.2,13.2z"/>
					<path style="fill:#FFFFFF;" d="M308.6,12.6c0.2,0.7,0.7,1,1.4,1.1c0.8,0.1,1.6-0.3,1.7-1.2c0.1-0.8-0.7-1.2-1.2-1.6l-0.6-0.3
						c-1.1-0.7-2-1.3-1.8-2.8c0.2-1.6,1.6-2.5,3.1-2.3c1.4,0.2,2.3,1.2,2.4,2.7l-1,0.1c0-0.9-0.6-1.8-1.6-1.9
						c-0.9-0.1-1.9,0.4-2,1.4s0.7,1.4,1.4,2l0.6,0.3c1,0.6,1.8,1.2,1.7,2.4c-0.2,1.3-1.4,2.1-2.8,1.9c-1-0.1-1.8-0.8-2.1-1.7
						L308.6,12.6z"/>
					<path style="fill:#FFFFFF;" d="M304.1,12.2c0.3,0.7,0.7,1,1.4,1.1c0.8,0,1.6-0.4,1.6-1.2s-0.7-1.1-1.3-1.4l-0.6-0.3
						c-1.1-0.6-2-1.2-1.9-2.7c0.1-1.6,1.4-2.7,3-2.5c1.4,0.1,2.4,1.1,2.5,2.4l-1,0.2c-0.1-0.9-0.7-1.7-1.7-1.8
						c-1-0.1-1.9,0.6-1.9,1.6c-0.1,1,0.7,1.4,1.4,1.9l0.6,0.2c1,0.6,1.9,1.1,1.8,2.4s-1.3,2.1-2.7,2.1c-1-0.1-1.8-0.7-2.2-1.6
						L304.1,12.2z"/>
					<path style="fill:#FFFFFF;" d="M299.6,12.1c0.3,0.7,0.8,1,1.6,1s1.4-0.6,1.4-1.3c0-0.8-0.8-1.1-1.3-1.4l-0.6-0.2
						c-1.1-0.6-2.1-1.1-2.1-2.5c0-1.6,1.3-2.7,2.8-2.7s2.4,1,2.7,2.3l-1,0.2c-0.1-0.9-0.8-1.7-1.8-1.7c-1,0-1.8,0.7-1.9,1.7
						c0,1,0.8,1.4,1.6,1.8l0.6,0.2c1,0.4,1.9,1,1.9,2.3s-1.2,2.2-2.5,2.2c-1,0-1.8-0.6-2.2-1.4L299.6,12.1z"/>
					<path style="fill:#FFFFFF;" d="M294.9,12.2c0.3,0.6,0.8,0.9,1.6,0.9s1.4-0.6,1.4-1.4c0-0.8-0.8-1.1-1.4-1.3l-0.6-0.2
						c-1.1-0.4-2.1-1-2.2-2.4c0-1.6,1.1-2.8,2.7-2.8c1.4,0,2.5,0.8,2.8,2.2l-1,0.3c-0.1-0.9-0.9-1.7-1.8-1.6
						c-0.9,0.1-1.8,0.8-1.7,1.8c0,1,0.9,1.3,1.7,1.7l0.6,0.2c1,0.4,2,0.9,2,2.2s-1.1,2.3-2.4,2.3c-1,0-1.9-0.4-2.3-1.3L294.9,12.2z"
						/>
					<path style="fill:#FFFFFF;" d="M290.4,12.6c0.4,0.6,0.9,0.9,1.6,0.8c0.8-0.1,1.4-0.7,1.3-1.4c-0.1-0.8-0.9-1-1.4-1.2l-0.7-0.3
						c-1.2-0.4-2.2-0.9-2.3-2.3c-0.1-1.6,1-2.8,2.5-3c1.4-0.1,2.5,0.7,2.9,2l-0.9,0.6c-0.2-0.9-1-1.6-1.9-1.4
						c-1,0.1-1.8,0.9-1.7,1.9s0.9,1.3,1.8,1.7l0.6,0.2c1.1,0.3,2,0.8,2.1,2.1s-1,2.3-2.2,2.4c-1,0.1-1.9-0.3-2.4-1.2L290.4,12.6z"/>
					<path style="fill:#FFFFFF;" d="M285.8,13.2c0.4,0.6,0.9,0.9,1.7,0.8c0.8-0.1,1.3-0.8,1.2-1.6c-0.1-0.8-0.9-1-1.6-1.2l-0.7-0.2
						c-1.2-0.3-2.2-0.8-2.4-2.2c-0.2-1.6,0.9-2.9,2.3-3.1c1.4-0.2,2.5,0.6,3,1.9L288.5,8c-0.2-0.9-1-1.6-2-1.3c-0.9,0.1-1.7,1-1.6,2
						c0.1,1,1,1.2,1.9,1.6l0.6,0.1c1.1,0.3,2,0.7,2.2,2c0.2,1.3-0.9,2.4-2.1,2.5c-1,0.1-1.9-0.2-2.4-1L285.8,13.2z"/>
					<path style="fill:#FFFFFF;" d="M281.4,14c0.4,0.6,0.9,0.8,1.7,0.7c0.8-0.1,1.3-0.8,1.2-1.7c-0.1-0.8-1-0.9-1.7-1.1l-0.7-0.1
						c-1.2-0.3-2.3-0.7-2.5-2c-0.3-1.6,0.7-2.9,2.2-3.2c1.4-0.2,2.5,0.4,3.1,1.8l-0.9,0.4c-0.3-0.9-1.1-1.4-2-1.2s-1.7,1-1.4,2
						c0.2,1,1,1.2,1.9,1.4l0.6,0.1c1.1,0.2,2.1,0.7,2.3,1.9c0.2,1.3-0.7,2.4-2,2.7c-1,0.2-1.9-0.1-2.5-0.9L281.4,14z"/>
					<path style="fill:#FFFFFF;" d="M276.8,15.1c0.4,0.6,1,0.8,1.7,0.6c0.8-0.2,1.3-0.9,1.1-1.7c-0.2-0.8-1-0.9-1.7-1l-0.7-0.1
						c-1.2-0.2-2.3-0.6-2.7-1.9c-0.3-1.6,0.6-3,2-3.3c1.3-0.3,2.7,0.3,3.2,1.6l-0.9,0.4c-0.3-0.9-1.2-1.4-2.1-1.1
						c-0.9,0.2-1.6,1.1-1.3,2.1c0.2,1,1.1,1.1,2,1.3l0.6,0.1c1.1,0.2,2.1,0.6,2.4,1.8c0.3,1.3-0.6,2.4-1.9,2.8c-1,0.2-1.9,0-2.5-0.8
						L276.8,15.1z"/>
					<path style="fill:#FFFFFF;" d="M272.5,16.4c0.6,0.4,1,0.7,1.8,0.4c0.8-0.2,1.2-1,1-1.8s-1.1-0.9-1.8-0.9l-0.7-0.1
						c-1.2-0.1-2.3-0.4-2.8-1.8c-0.4-1.4,0.4-3,1.9-3.4c1.3-0.4,2.7,0.1,3.3,1.3l-0.8,0.7c-0.3-0.8-1.2-1.3-2.2-1
						c-0.9,0.3-1.6,1.2-1.2,2.2c0.3,1,1.2,1.1,2.1,1.2l0.6,0.1c1.1,0.1,2.1,0.4,2.4,1.6c0.4,1.3-0.4,2.4-1.7,2.9
						c-0.9,0.3-1.9,0-2.5-0.7L272.5,16.4z"/>
					<path style="fill:#FFFFFF;" d="M268.2,17.8c0.6,0.4,1.1,0.7,1.8,0.3c0.8-0.2,1.2-1,0.9-1.8c-0.2-0.7-1.1-0.8-1.8-0.8h-0.7
						c-1.2-0.1-2.3-0.3-2.9-1.6c-0.6-1.4,0.2-3,1.7-3.5c1.3-0.4,2.7,0,3.3,1.2l-0.8,0.6c-0.4-0.8-1.3-1.2-2.2-0.9
						c-0.9,0.3-1.4,1.3-1.1,2.2c0.3,1,1.2,1,2.1,1.1h0.6c1.1,0.1,2.1,0.3,2.5,1.4c0.4,1.3-0.3,2.5-1.6,3c-0.9,0.3-1.9,0.1-2.7-0.6
						L268.2,17.8z"/>
					<path style="fill:#FFFFFF;" d="M264,19.6c0.6,0.4,1.1,0.6,1.8,0.3c0.8-0.3,1.1-1.1,0.8-1.9c-0.3-0.7-1.1-0.7-1.8-0.8h-0.7
						c-1.2,0-2.3-0.1-2.9-1.4c-0.6-1.4,0.1-3,1.4-3.5c1.3-0.6,2.7-0.1,3.4,1l-0.8,0.7c-0.4-0.8-1.4-1.2-2.2-0.8
						c-0.9,0.3-1.3,1.3-1,2.3c0.4,1,1.3,1,2.2,1h0.6c1.1,0,2.1,0.1,2.7,1.3s-0.2,2.5-1.4,3c-0.9,0.3-1.9,0.2-2.7-0.3L264,19.6z"/>
					<path style="fill:#FFFFFF;" d="M259.9,21.6c0.6,0.4,1.1,0.6,1.8,0.2c0.7-0.3,1.1-1.1,0.7-1.9c-0.3-0.7-1.2-0.7-1.9-0.7h-0.7
						c-1.2,0-2.3,0-3-1.3c-0.6-1.3,0-2.9,1.4-3.5c1.2-0.7,2.7-0.2,3.4,0.9l-0.8,0.7c-0.6-0.8-1.4-1.1-2.3-0.7
						c-0.9,0.4-1.3,1.4-0.9,2.3c0.4,0.9,1.3,0.9,2.2,0.9h0.6c1.1,0,2.1,0,2.7,1.2c0.6,1.2-0.1,2.5-1.2,3.1c-0.9,0.4-1.9,0.3-2.7-0.2
						L259.9,21.6z"/>
					<path style="fill:#FFFFFF;" d="M255.8,23.8c0.6,0.3,1.1,0.4,1.8,0.1c0.7-0.3,1-1.2,0.7-1.9c-0.3-0.7-1.2-0.6-1.9-0.6h-0.7
						c-1.2,0.1-2.3,0.1-3.1-1.1c-0.8-1.3-0.2-3,1.1-3.8c1.2-0.7,2.5-0.4,3.5,0.7l-0.7,0.7c-0.6-0.8-1.6-1-2.3-0.6
						c-0.8,0.4-1.2,1.6-0.8,2.4c0.6,0.9,1.3,0.8,2.3,0.8h0.6c1.1-0.1,2.2-0.1,2.8,1c0.7,1.2,0.1,2.5-1.1,3.2
						c-0.9,0.4-1.9,0.4-2.7-0.1L255.8,23.8z"/>
					<path style="fill:#FFFFFF;" d="M252,26.2c0.7,0.3,1.1,0.4,1.8,0c0.7-0.4,0.9-1.2,0.6-1.9c-0.4-0.7-1.2-0.6-1.9-0.4l-0.7,0.1
						c-1.2,0.2-2.3,0.2-3.1-1c-0.8-1.3-0.4-3,0.9-3.8c1.2-0.8,2.5-0.6,3.5,0.4l-0.8,0.8c-0.6-0.7-1.6-1-2.3-0.4s-1.1,1.6-0.7,2.4
						c0.6,0.9,1.4,0.8,2.3,0.7l0.6-0.1c1.1-0.1,2.1-0.2,2.8,0.9c0.8,1.1,0.2,2.5-0.9,3.2c-0.9,0.6-1.8,0.6-2.7,0L252,26.2z"/>
					<path style="fill:#FFFFFF;" d="M248.1,28.8c0.7,0.3,1.2,0.3,1.8-0.1c0.7-0.4,0.9-1.3,0.4-2c-0.4-0.7-1.3-0.4-1.9-0.3l-0.7,0.2
						c-1.2,0.2-2.3,0.3-3.1-0.8c-0.9-1.2-0.6-3,0.7-3.8c1.1-0.8,2.5-0.7,3.5,0.3l-0.7,0.8c-0.7-0.7-1.7-0.9-2.3-0.3
						c-0.8,0.6-1.1,1.7-0.4,2.4c0.6,0.9,1.4,0.7,2.3,0.6l0.6-0.1c1.1-0.2,2.1-0.3,2.9,0.8c0.8,1.1,0.3,2.5-0.8,3.2
						c-0.8,0.6-1.8,0.7-2.7,0.2L248.1,28.8z"/>
					<path style="fill:#FFFFFF;" d="M244.6,31.6c0.7,0.2,1.2,0.3,1.8-0.2c0.7-0.4,0.8-1.3,0.3-2c-0.4-0.6-1.3-0.4-1.9-0.2l-0.7,0.1
						c-1.2,0.3-2.3,0.4-3.2-0.7c-1-1.2-0.7-2.9,0.6-3.9c1.1-0.9,2.5-0.8,3.5,0.1l-0.6,0.8c-0.7-0.7-1.7-0.8-2.4-0.2
						c-0.8,0.6-1,1.7-0.3,2.4c0.7,0.8,1.4,0.6,2.3,0.3l0.6-0.1c1.1-0.2,2.1-0.4,2.9,0.6c0.9,1.1,0.4,2.4-0.6,3.3
						c-0.8,0.6-1.8,0.7-2.7,0.3L244.6,31.6z"/>
					<path style="fill:#FFFFFF;" d="M241,34.6c0.7,0.2,1.2,0.2,1.8-0.2c0.6-0.6,0.8-1.3,0.2-2c-0.4-0.6-1.3-0.3-2-0.1l-0.7,0.2
						c-1.2,0.3-2.3,0.6-3.2-0.4c-1-1.2-0.9-2.9,0.3-3.9c1.1-0.9,2.4-0.9,3.5-0.1l-0.6,0.9c-0.7-0.6-1.7-0.7-2.4-0.1
						c-0.7,0.7-0.9,1.8-0.2,2.4c0.7,0.8,1.6,0.6,2.3,0.2l0.6-0.2c1.1-0.3,2.1-0.6,2.9,0.4c0.9,1,0.6,2.4-0.4,3.3
						c-0.8,0.7-1.7,0.8-2.7,0.4L241,34.6z"/>
					<path style="fill:#FFFFFF;" d="M237.7,37.7c0.7,0.2,1.2,0.1,1.8-0.3c0.6-0.6,0.7-1.4,0.1-2c-0.6-0.6-1.3-0.2-2,0l-0.6,0.2
						c-1.2,0.4-2.3,0.7-3.2-0.3c-1.1-1.1-1-2.8,0.1-3.9c1-1,2.4-1.1,3.5-0.2l-0.6,0.9c-0.7-0.6-1.8-0.6-2.4,0
						c-0.7,0.7-0.8,1.8-0.1,2.5c0.7,0.8,1.6,0.4,2.4,0.1l0.6-0.2c1.1-0.3,2.1-0.7,3,0.3c1,1,0.8,2.4-0.2,3.3
						c-0.7,0.7-1.7,0.9-2.5,0.6L237.7,37.7z"/>
					<path style="fill:#FFFFFF;" d="M234.6,41c0.7,0.1,1.2,0.1,1.8-0.4c0.6-0.6,0.6-1.4,0-2c-0.6-0.6-1.3-0.2-2,0.1l-0.6,0.2
						c-1.1,0.4-2.2,0.8-3.2-0.1c-1.1-1.1-1.1-2.8-0.1-3.9c1-1,2.3-1.2,3.5-0.4l-0.6,0.8c-0.8-0.6-1.8-0.6-2.4,0.2
						c-0.7,0.7-0.7,1.8,0,2.5c0.8,0.7,1.6,0.3,2.4,0l0.6-0.2c1-0.4,2-0.8,3,0.1s0.9,2.3,0,3.3c-0.7,0.7-1.6,1-2.5,0.8L234.6,41z"/>
					<path style="fill:#FFFFFF;" d="M231.6,44.6c0.7,0.1,1.2,0,1.7-0.6c0.6-0.6,0.6-1.4-0.1-2c-0.6-0.4-1.3-0.1-2,0.2l-0.6,0.3
						c-1.1,0.6-2.2,0.9-3.2,0c-1.2-1-1.3-2.7-0.3-3.9c0.9-1.1,2.3-1.3,3.5-0.7l-0.4,0.9c-0.8-0.4-1.8-0.4-2.4,0.3
						c-0.4,0.7-0.4,1.8,0.2,2.4c0.8,0.7,1.6,0.2,2.4-0.1l0.6-0.2c1-0.4,2-0.8,3,0c1,0.9,1,2.3,0.1,3.3c-0.7,0.8-1.6,1.1-2.5,0.9
						L231.6,44.6z"/>
					<path style="fill:#FFFFFF;" d="M228.8,48.2c0.7,0.1,1.2,0,1.7-0.7c0.4-0.7,0.4-1.6-0.2-2c-0.6-0.4-1.3,0-1.9,0.2l-0.6,0.3
						c-1.1,0.7-2.1,1-3.2,0.2c-1.2-0.9-1.4-2.7-0.6-3.9c0.9-1.1,2.2-1.4,3.4-0.8l-0.3,0.9c-0.8-0.4-1.8-0.3-2.3,0.4
						c-0.6,0.8-0.6,1.9,0.3,2.4c0.8,0.7,1.6,0.2,2.3-0.2l0.6-0.3c1-0.6,2-0.9,3-0.2c1.1,0.8,1.1,2.3,0.3,3.3c-0.6,0.8-1.4,1.1-2.4,1
						L228.8,48.2z"/>
					<path style="fill:#FFFFFF;" d="M226.3,51.9c0.7,0,1.2-0.1,1.7-0.8c0.4-0.7,0.3-1.6-0.3-2c-0.7-0.4-1.3,0-1.9,0.3l-0.6,0.3
						c-1.1,0.7-2.1,1.1-3.2,0.3c-1.3-0.9-1.6-2.5-0.7-3.8c0.8-1.2,2.1-1.6,3.4-1l-0.3,1c-0.8-0.4-1.8-0.2-2.3,0.6s-0.4,1.9,0.4,2.4
						s1.6,0.1,2.3-0.3l0.4-0.3c1-0.6,1.9-1,3-0.3c1.1,0.8,1.2,2.2,0.4,3.3c-0.6,0.8-1.4,1.2-2.4,1.1V51.9z"/>
					<path style="fill:#FFFFFF;" d="M223.8,55.9c0.7,0,1.2-0.2,1.6-0.8c0.4-0.7,0.2-1.6-0.4-2s-1.3,0.1-1.9,0.4l-0.6,0.3
						c-1,0.8-2,1.2-3.2,0.6c-1.3-0.8-1.7-2.4-0.9-3.8c0.8-1.2,2-1.7,3.3-1.2l-0.2,1c-0.9-0.3-1.8-0.1-2.3,0.7
						c-0.4,0.8-0.3,1.9,0.6,2.4s1.6,0,2.3-0.4l0.4-0.3c0.9-0.7,1.9-1.1,2.9-0.4c1.2,0.7,1.3,2.1,0.7,3.2c-0.6,0.9-1.3,1.3-2.3,1.2
						L223.8,55.9z"/>
					<path style="fill:#FFFFFF;" d="M221.7,59.9c0.7,0,1.2-0.2,1.6-0.9s0.2-1.6-0.6-1.9c-0.7-0.3-1.3,0.2-1.9,0.6l-0.6,0.4
						c-1,0.8-2,1.3-3.2,0.7c-1.3-0.8-1.8-2.3-1.1-3.8c0.7-1.2,2-1.8,3.3-1.3l-0.2,1c-0.9-0.3-1.9,0-2.3,0.8
						c-0.4,0.9-0.2,1.9,0.7,2.4c0.9,0.4,1.6-0.1,2.3-0.7l0.4-0.3c0.9-0.7,1.8-1.2,2.9-0.7c1.2,0.7,1.4,2.1,0.8,3.2
						c-0.4,0.9-1.3,1.3-2.3,1.3L221.7,59.9z"/>
					<path style="fill:#FFFFFF;" d="M219.7,64c0.7-0.1,1.2-0.3,1.6-1c0.3-0.7,0.1-1.6-0.7-1.9c-0.7-0.3-1.3,0.2-1.9,0.7l-0.4,0.4
						c-0.9,0.8-1.9,1.4-3.1,0.9c-1.4-0.7-2-2.2-1.3-3.7c0.6-1.3,1.9-1.9,3.2-1.6l-0.1,1c-0.9-0.2-1.9,0-2.2,0.9
						c-0.4,0.9-0.1,2,0.8,2.3c0.9,0.4,1.6-0.1,2.3-0.8l0.4-0.4c0.9-0.8,1.7-1.3,2.9-0.8c1.2,0.6,1.6,2,1,3.2
						c-0.4,0.9-1.2,1.4-2.2,1.4L219.7,64z"/>
					<path style="fill:#FFFFFF;" d="M218,68.3c0.7-0.1,1.2-0.3,1.4-1.1c0.3-0.8,0-1.6-0.8-1.9c-0.7-0.3-1.3,0.3-1.8,0.8l-0.3,0.4
						c-0.9,0.9-1.8,1.6-3.1,1c-1.4-0.6-2.1-2.2-1.6-3.5s1.8-2,3.1-1.7l-0.1,1c-0.9-0.2-1.8,0.1-2.2,1c-0.3,0.9,0,2,0.9,2.3
						c1,0.3,1.6-0.2,2.2-0.9l0.4-0.4c0.8-0.8,1.7-1.4,2.8-0.9c1.2,0.6,1.7,1.9,1.2,3.1c-0.3,0.9-1.1,1.4-2.1,1.6L218,68.3z"/>
					<path style="fill:#FFFFFF;" d="M216.5,72.5c0.7-0.1,1.1-0.4,1.4-1.1c0.2-0.8-0.1-1.6-0.8-1.8s-1.3,0.3-1.8,0.9l-0.6,0.4
						c-0.9,0.9-1.7,1.7-3,1.2c-1.4-0.4-2.2-2.1-1.7-3.5c0.4-1.3,1.7-2,3.1-1.9v1c-0.9-0.2-1.8,0.2-2.1,1.1s0.1,2,1,2.3
						c1,0.3,1.6-0.3,2.2-1l0.4-0.4c0.8-0.8,1.6-1.4,2.8-1.1c1.3,0.4,1.8,1.8,1.3,3.1c-0.3,0.9-1.1,1.6-2,1.7L216.5,72.5z"/>
					<path style="fill:#FFFFFF;" d="M215.2,76.9c0.7-0.2,1.1-0.4,1.3-1.2c0.2-0.8-0.1-1.6-0.9-1.8c-0.8-0.2-1.3,0.4-1.7,1l-0.4,0.4
						c-0.8,1-1.7,1.8-3,1.3c-1.4-0.4-2.3-1.9-1.9-3.4c0.3-1.3,1.6-2.1,3-2v1c-0.9-0.1-1.8,0.3-2.1,1.2c-0.2,0.9,0.2,2,1.1,2.2
						c1,0.3,1.6-0.4,2.1-1.1l0.3-0.4c0.8-0.9,1.4-1.6,2.7-1.2c1.3,0.3,1.9,1.8,1.4,3c-0.2,0.9-1,1.6-1.9,1.8L215.2,76.9z"/>
					<path style="fill:#FFFFFF;" d="M214.2,81.4c0.7-0.2,1.1-0.6,1.2-1.2c0.2-0.8-0.2-1.6-1-1.8c-0.8-0.2-1.2,0.6-1.7,1l-0.3,0.6
						c-0.8,1-1.6,1.8-2.9,1.6c-1.6-0.3-2.3-1.8-2-3.3c0.3-1.3,1.4-2.2,2.9-2.2v1c-0.9-0.1-1.8,0.4-2,1.3c-0.2,0.9,0.3,1.9,1.2,2.1
						c1,0.2,1.6-0.4,2.1-1.2l0.3-0.4c0.7-0.9,1.4-1.7,2.7-1.3c1.3,0.3,1.9,1.7,1.7,2.9c-0.2,1-0.9,1.7-1.9,1.9L214.2,81.4z"/>
					<path style="fill:#FFFFFF;" d="M213.3,85.9c0.7-0.2,1.1-0.6,1.2-1.3s-0.3-1.6-1.1-1.7c-0.8-0.1-1.2,0.6-1.6,1.1l-0.3,0.6
						c-0.7,1-1.4,1.9-2.8,1.7c-1.6-0.2-2.4-1.7-2.2-3.2c0.2-1.4,1.3-2.3,2.8-2.3l0.1,1c-0.9,0-1.8,0.6-1.9,1.4
						c-0.1,0.9,0.4,1.9,1.3,2.1c1,0.2,1.6-0.6,2-1.3l0.3-0.4c0.7-0.9,1.3-1.8,2.5-1.6c1.3,0.2,2,1.6,1.8,2.8c-0.2,1-0.8,1.7-1.8,2
						L213.3,85.9z"/>
					<path style="fill:#FFFFFF;" d="M212.7,90.5c0.7-0.2,1-0.7,1.1-1.4c0.1-0.8-0.3-1.6-1.2-1.7c-0.8-0.1-1.2,0.7-1.6,1.2l-0.3,0.6
						c-0.7,1.1-1.3,2-2.8,1.8c-1.6-0.2-2.5-1.6-2.3-3.1c0.2-1.4,1.2-2.3,2.5-2.4l0.3,1.1c-0.9,0-1.8,0.7-1.9,1.6
						c-0.1,0.9,0.6,1.9,1.4,2c1,0.1,1.4-0.7,1.9-1.4l0.3-0.6c0.6-1,1.2-1.8,2.4-1.7c1.3,0.2,2.1,1.4,1.9,2.8c-0.1,1-0.7,1.8-1.7,2.1
						L212.7,90.5z"/>
					<path style="fill:#FFFFFF;" d="M212.4,95c0.7-0.3,1-0.7,1.1-1.4c0-0.8-0.4-1.6-1.2-1.6c-0.8,0-1.1,0.7-1.4,1.3l-0.3,0.6
						c-0.6,1.1-1.2,2-2.7,1.9c-1.6-0.1-2.7-1.4-2.5-3c0.1-1.4,1.1-2.4,2.4-2.5l0.2,1c-0.9,0.1-1.7,0.7-1.8,1.7
						c-0.1,1,0.6,1.9,1.6,1.9c1,0.1,1.4-0.7,1.9-1.6l0.2-0.6c0.6-1,1.1-1.9,2.4-1.8c1.3,0.1,2.1,1.3,2.1,2.7c-0.1,1-0.7,1.8-1.6,2.2
						L212.4,95z"/>
					<path style="fill:#FFFFFF;" d="M212.3,99.6c0.7-0.3,1-0.8,1-1.6s-0.6-1.4-1.3-1.4c-0.8,0-1.1,0.8-1.4,1.3l-0.3,0.7
						c-0.6,1.1-1.1,2.1-2.5,2.1c-1.6,0-2.7-1.3-2.7-2.8c0-1.4,1-2.4,2.3-2.7l0.2,1c-0.9,0.1-1.7,0.8-1.7,1.8c0,1,0.7,1.8,1.7,1.9
						c1,0,1.4-0.8,1.8-1.6l0.2-0.6c0.4-1,1-1.9,2.3-1.9c1.3,0,2.2,1.2,2.2,2.5c0,1-0.6,1.8-1.4,2.2L212.3,99.6z"/>
					<path style="fill:#FFFFFF;" d="M212.4,104.2c0.6-0.3,0.9-0.8,0.9-1.6c0-0.8-0.7-1.4-1.4-1.4c-0.8,0-1.1,0.8-1.3,1.4l-0.2,0.6
						c-0.4,1.2-1,2.1-2.4,2.2c-1.6,0-2.8-1.1-2.8-2.7c0-1.4,0.8-2.5,2.2-2.9l0.2,1c-0.9,0.1-1.7,0.9-1.6,1.8c0,1,0.8,1.8,1.8,1.8
						c1,0,1.3-0.9,1.7-1.7l0.2-0.6c0.4-1,0.9-2,2.2-2c1.3,0,2.3,1.1,2.3,2.4c0,1-0.4,1.8-1.3,2.3L212.4,104.2z"/>
					<path style="fill:#FFFFFF;" d="M212.7,108.6c0.6-0.4,0.9-0.9,0.8-1.6c-0.1-0.8-0.7-1.4-1.4-1.3c-0.8,0.1-1,0.9-1.2,1.4
						l-0.2,0.6c-0.4,1.2-0.9,2.2-2.3,2.3c-1.6,0.1-2.8-1-3-2.5c-0.1-1.4,0.7-2.5,2-2.9l0.3,0.9c-0.8,0.3-1.4,1.1-1.3,2
						c0.1,1,0.9,1.8,1.9,1.7c1-0.1,1.3-0.9,1.6-1.8l0.2-0.6c0.3-1.1,0.8-2,2.1-2.1c1.3-0.1,2.3,1,2.4,2.2c0.1,1-0.3,1.9-1.2,2.4
						L212.7,108.6z"/>
					<path style="fill:#FFFFFF;" d="M213.4,113.3c0.6-0.4,0.9-0.9,0.8-1.7c-0.1-0.8-0.8-1.3-1.6-1.2c-0.8,0.1-1,0.9-1.2,1.6
						l-0.2,0.7c-0.3,1.2-0.8,2.2-2.1,2.4c-1.6,0.2-2.9-0.9-3.1-2.3c-0.2-1.4,0.6-2.5,1.9-3l0.4,0.9c-0.9,0.2-1.6,1-1.3,2
						c0.1,0.9,1,1.7,2,1.6c1-0.1,1.2-1,1.6-1.9l0.1-0.6c0.3-1.1,0.7-2,2-2.2c1.3-0.2,2.4,0.9,2.5,2.1c0.1,1-0.2,1.9-1,2.4
						L213.4,113.3z"/>
					<path style="fill:#FFFFFF;" d="M214.2,117.7c0.6-0.4,0.8-0.9,0.7-1.7c-0.1-0.8-0.8-1.3-1.7-1.2c-0.8,0.1-0.9,1-1.1,1.7
						l-0.1,0.7c-0.2,1.2-0.7,2.3-2,2.5c-1.6,0.3-2.9-0.7-3.2-2.2c-0.2-1.4,0.4-2.5,1.7-3.1l0.4,0.9c-0.9,0.3-1.4,1.1-1.2,2
						c0.2,0.9,1.1,1.7,2,1.4c1-0.2,1.2-1.1,1.4-1.9l0.1-0.6c0.2-1.1,0.6-2.1,1.9-2.3c1.3-0.2,2.4,0.7,2.7,2c0.2,1-0.1,1.9-0.9,2.5
						L214.2,117.7z"/>
					<path style="fill:#FFFFFF;" d="M215.3,122.2c0.6-0.4,0.8-1,0.6-1.7c-0.2-0.8-0.9-1.3-1.7-1.1s-0.9,1-1,1.7l-0.1,0.7
						c-0.2,1.2-0.6,2.3-1.9,2.7c-1.4,0.3-3-0.6-3.3-2c-0.3-1.3,0.3-2.7,1.6-3.2l0.4,0.9c-0.9,0.3-1.4,1.2-1.1,2.1
						c0.2,0.9,1.1,1.6,2.1,1.3c1-0.2,1.1-1.1,1.3-2l0.1-0.6c0.2-1.1,0.4-2.1,1.8-2.4c1.3-0.3,2.4,0.6,2.8,1.9c0.2,1,0,1.9-0.8,2.5
						L215.3,122.2z"/>
					<path style="fill:#FFFFFF;" d="M216.6,126.6c0.4-0.6,0.7-1,0.4-1.8c-0.2-0.8-1-1.2-1.8-1c-0.8,0.2-0.8,1.1-0.9,1.8l-0.1,0.7
						c-0.1,1.2-0.4,2.3-1.8,2.8c-1.4,0.4-3-0.3-3.4-1.9c-0.4-1.3,0.1-2.7,1.3-3.3l0.6,0.9c-0.8,0.4-1.3,1.2-1,2.2
						c0.3,0.9,1.2,1.6,2.2,1.2c1-0.3,1.1-1.2,1.2-2.1l0.1-0.6c0.1-1.1,0.3-2.1,1.6-2.5c1.3-0.4,2.4,0.4,2.9,1.7
						c0.3,0.9,0,1.9-0.7,2.5L216.6,126.6z"/>
					<path style="fill:#FFFFFF;" d="M218.2,130.8c0.4-0.6,0.7-1.1,0.3-1.8c-0.2-0.8-1-1.2-1.8-0.9c-0.7,0.2-0.8,1.1-0.8,1.8v0.7
						c-0.1,1.2-0.3,2.3-1.6,2.9c-1.4,0.6-3-0.2-3.5-1.7c-0.4-1.3,0-2.7,1.2-3.3l0.6,0.8c-0.8,0.4-1.2,1.3-0.9,2.2s1.3,1.4,2.2,1.1
						c1-0.3,1-1.2,1.1-2.1v-0.6c0.1-1.1,0.2-2.1,1.4-2.5c1.3-0.4,2.5,0.3,3,1.6c0.3,0.9,0.1,1.9-0.4,2.7L218.2,130.8z"/>
					<path style="fill:#FFFFFF;" d="M220,135.1c0.4-0.6,0.6-1.1,0.3-1.8c-0.3-0.7-1.1-1.1-1.9-0.8c-0.7,0.3-0.7,1.1-0.8,1.8v0.7
						c0,1.2-0.1,2.3-1.4,2.9c-1.4,0.6-3-0.1-3.5-1.4c-0.6-1.3-0.1-2.7,1-3.4l0.7,0.8c-0.8,0.4-1.2,1.4-0.8,2.2
						c0.3,0.9,1.3,1.3,2.3,1c1-0.4,1-1.3,1-2.2v-0.6c0-1.1,0.1-2.1,1.3-2.7c1.2-0.6,2.5,0.2,3,1.3c0.3,0.9,0.2,1.9-0.3,2.7
						L220,135.1z"/>
					<path style="fill:#FFFFFF;" d="M222,139.2c0.4-0.6,0.6-1.1,0.2-1.8c-0.3-0.7-1.1-1.1-1.9-0.7c-0.7,0.3-0.7,1.2-0.7,1.9v0.7
						c0,1.2,0,2.3-1.3,3c-1.3,0.7-3,0.1-3.7-1.3c-0.7-1.2-0.2-2.7,0.8-3.4l0.7,0.8c-0.8,0.6-1.1,1.4-0.7,2.3
						c0.4,0.9,1.4,1.3,2.3,0.9c0.9-0.4,0.9-1.3,0.9-2.2v-0.6c0-1.1,0-2.1,1.2-2.7s2.5,0,3.1,1.2c0.4,0.9,0.3,1.9-0.2,2.7L222,139.2z
						"/>
					<path style="fill:#FFFFFF;" d="M224.2,143.2c0.3-0.6,0.4-1.1,0.1-1.8c-0.3-0.7-1.2-1-1.9-0.6c-0.7,0.3-0.6,1.2-0.6,1.9l0.1,0.7
						c0.1,1.2,0.1,2.3-1.1,3.1c-1.3,0.8-3,0.2-3.8-1.1c-0.7-1.2-0.4-2.5,0.7-3.5l0.7,0.7c-0.8,0.6-1,1.6-0.6,2.3
						c0.4,0.8,1.6,1.2,2.4,0.8c0.9-0.6,0.8-1.3,0.8-2.3l-0.1-0.6c-0.1-1.1-0.1-2.2,1-2.8c1.2-0.7,2.5-0.1,3.2,1.1
						c0.4,0.9,0.4,1.8-0.1,2.7L224.2,143.2z"/>
					<path style="fill:#FFFFFF;" d="M226.5,147.1c0.3-0.7,0.4-1.2,0-1.8c-0.4-0.7-1.2-0.9-1.9-0.6c-0.7,0.4-0.6,1.2-0.4,1.9l0.1,0.7
						c0.2,1.2,0.2,2.3-1,3.1c-1.3,0.8-3,0.4-3.8-0.9c-0.8-1.2-0.6-2.5,0.4-3.5l0.8,0.7c-0.7,0.6-1,1.6-0.4,2.3
						c0.6,0.8,1.6,1.1,2.4,0.7c0.9-0.6,0.8-1.4,0.7-2.3l-0.1-0.6c-0.1-1.1-0.2-2.1,0.9-2.8c1.1-0.8,2.5-0.2,3.2,0.9
						c0.6,0.9,0.6,1.8,0.1,2.7L226.5,147.1z"/>
					<path style="fill:#FFFFFF;" d="M229.2,150.9c0.3-0.7,0.3-1.2-0.1-1.8c-0.4-0.7-1.3-0.9-2-0.4c-0.7,0.4-0.4,1.3-0.3,1.9l0.1,0.7
						c0.2,1.2,0.3,2.3-0.8,3.1c-1.2,0.9-3,0.6-3.8-0.7c-0.8-1.1-0.7-2.5,0.2-3.5l0.8,0.7c-0.7,0.7-0.9,1.7-0.3,2.4
						c0.6,0.8,1.7,1.1,2.4,0.4c0.9-0.6,0.7-1.4,0.4-2.3l-0.1-0.6c-0.2-1.1-0.3-2.1,0.8-2.9c1.1-0.8,2.5-0.3,3.2,0.7
						c0.6,0.8,0.7,1.8,0.2,2.7L229.2,150.9z"/>
					<path style="fill:#FFFFFF;" d="M231.9,154.5c0.2-0.7,0.2-1.2-0.2-1.8c-0.4-0.7-1.3-0.8-2-0.3c-0.6,0.4-0.4,1.3-0.2,1.9l0.1,0.7
						c0.3,1.2,0.4,2.3-0.7,3.2c-1.2,1-2.9,0.7-3.9-0.4c-0.9-1.1-0.8-2.5,0.1-3.5l0.8,0.6c-0.7,0.7-0.8,1.7-0.2,2.4
						c0.6,0.8,1.7,1,2.4,0.3c0.8-0.7,0.6-1.4,0.3-2.3l-0.1-0.6c-0.2-1.1-0.4-2.1,0.6-2.9c1.1-0.9,2.4-0.4,3.3,0.6
						c0.6,0.8,0.8,1.8,0.3,2.7L231.9,154.5z"/>
					<path style="fill:#FFFFFF;" d="M234.9,158c0.2-0.7,0.2-1.2-0.2-1.8c-0.6-0.6-1.3-0.8-2-0.2c-0.6,0.4-0.3,1.3-0.1,2l0.2,0.7
						c0.3,1.2,0.6,2.3-0.4,3.2c-1.1,1-2.9,0.9-3.9-0.3c-0.9-1.1-0.9-2.4-0.1-3.5l0.9,0.6c-0.6,0.7-0.7,1.7-0.1,2.4
						c0.7,0.7,1.8,0.9,2.4,0.2c0.8-0.7,0.6-1.6,0.2-2.3l-0.2-0.6c-0.3-1.1-0.6-2.1,0.4-2.9c1-0.9,2.4-0.6,3.3,0.3
						c0.7,0.8,0.8,1.7,0.4,2.7L234.9,158z"/>
					<path style="fill:#FFFFFF;" d="M238,161.3c0.2-0.7,0.1-1.2-0.3-1.8c-0.6-0.6-1.4-0.7-2-0.1c-0.6,0.6-0.2,1.3,0,2l0.2,0.6
						c0.4,1.2,0.7,2.2-0.3,3.2c-1.1,1.1-2.8,1-3.9-0.1c-1-1-1.1-2.4-0.2-3.5l0.9,0.6c-0.6,0.7-0.6,1.8,0,2.4
						c0.7,0.7,1.8,0.8,2.5,0.1c0.8-0.7,0.4-1.6,0.1-2.4l-0.2-0.6c-0.3-1.1-0.7-2.1,0.3-3c1-1,2.4-0.8,3.3,0.2
						c0.7,0.7,0.9,1.7,0.6,2.5L238,161.3z"/>
					<path style="fill:#FFFFFF;" d="M241.4,164.4c0.1-0.7,0.1-1.2-0.4-1.8s-1.4-0.6-2,0s-0.2,1.3,0.1,2l0.2,0.6
						c0.6,1.1,0.8,2.2-0.1,3.2c-1,1.1-2.8,1.1-3.9,0.1c-1-1-1.2-2.3-0.4-3.5l0.9,0.4c-0.6,0.8-0.6,1.8,0.2,2.4
						c0.7,0.7,1.8,0.7,2.5,0c0.7-0.8,0.3-1.6,0-2.4l-0.2-0.6c-0.4-1-0.8-2,0.1-3s2.3-0.9,3.3,0c0.7,0.7,1,1.6,0.8,2.5H241.4z"/>
				</g>
				<g>
					<path style="fill:#FFFFFF;" d="M260,177.1c0-0.7-0.2-1.2-0.9-1.6c-0.7-0.3-1.6-0.2-1.9,0.6c-0.3,0.7,0.2,1.3,0.6,1.9l0.4,0.6
						c0.8,1,1.3,2,0.7,3.2c-0.8,1.3-2.3,1.8-3.8,1.1c-1.2-0.7-1.8-2-1.3-3.3l1,0.2c-0.3,0.9,0,1.9,0.8,2.3c0.9,0.4,2,0.2,2.4-0.7
						c0.4-0.9-0.1-1.6-0.7-2.3l-0.3-0.4c-0.7-0.9-1.2-1.8-0.7-2.9c0.7-1.2,2.1-1.4,3.2-0.8c0.9,0.4,1.3,1.3,1.3,2.3L260,177.1z"/>
					<path style="fill:#FFFFFF;" d="M262.6,183.5l-1.9,1.9l-1-0.4l7.3-7l0.1,10.1l-1-0.4v-2.7L262.6,183.5z M266.1,180l-2.8,2.7
						l2.8,1.1V180z"/>
					<path style="fill:#FFFFFF;" d="M272.3,180.4l1.4,0.4c1.6,0.4,2.7,1.4,2.1,3.1c-0.2,0.7-0.7,1.2-1.3,1.4c0.9,0.6,1.2,1.7,1,2.7
						c-0.6,1.7-2.1,1.9-3.8,1.4l-2-0.6L272.3,180.4z M270.8,188.2l0.9,0.3c1,0.3,2.2,0.4,2.7-0.9c0.4-1.3-0.8-1.9-1.8-2.2l-0.8-0.2
						L270.8,188.2z M272.1,184.4l0.3,0.1c1.1,0.3,2,0.4,2.4-0.9s-0.3-1.7-1.6-2l-0.3-0.1L272.1,184.4z"/>
					<path style="fill:#FFFFFF;" d="M279.4,182.5l4.4,1l-0.2,0.9l-3.5-0.8l-0.6,2.5l3.4,0.8l-0.2,0.9l-3.4-0.8l-0.7,3.4l3.5,0.8
						l-0.2,0.9l-4.4-1L279.4,182.5z"/>
					<path style="fill:#FFFFFF;" d="M286.3,192.7l-1-0.1l1.1-8.8l1.2,0.1c1.7,0.2,3.1,0.9,2.9,2.8c-0.2,1.3-1.1,2.2-2.5,2.1l2.3,4.3
						L289,193l-2.1-4.2h-0.2L286.3,192.7z M286.9,188h0.3c1.1,0.1,2.2,0.1,2.4-1.3c0.2-1.4-0.9-1.7-2-1.9h-0.3L286.9,188z"/>
					<path style="fill:#FFFFFF;" d="M306.9,186.3c-0.4-0.6-0.9-0.9-1.6-0.9c-0.8,0-1.4,0.7-1.3,1.4c0,0.8,0.9,1.1,1.4,1.3l0.6,0.2
						c1.2,0.4,2.2,0.9,2.3,2.3c0.1,1.6-1.1,2.8-2.5,2.9c-1.4,0.1-2.5-0.8-2.9-2.1l0.9-0.3c0.2,0.9,0.9,1.6,1.9,1.6
						c1-0.1,1.8-0.9,1.7-1.9s-0.9-1.3-1.8-1.7l-0.6-0.2c-1.1-0.4-2-0.9-2.1-2.1c-0.1-1.3,1-2.3,2.3-2.4c1-0.1,1.9,0.3,2.3,1.2
						L306.9,186.3z"/>
					<path style="fill:#FFFFFF;" d="M312.5,190.2l-0.7,2.7l-1.1,0.2l2.5-9.8l5.4,8.4l-1.1,0.2l-1.4-2.3L312.5,190.2z M313.6,185.6
						l-0.9,3.8l3-0.4L313.6,185.6z"/>
					<path style="fill:#FFFFFF;" d="M322.3,188.7l0.8-7.1l1-0.2l-1.1,10l-5.8-8.2l1-0.2L322.3,188.7z"/>
					<path style="fill:#FFFFFF;" d="M329.6,188.7l-0.9,0.3l-2.8-8.4l0.9-0.3L329.6,188.7z"/>
					<path style="fill:#FFFFFF;" d="M339.1,180.2c1,2.3-0.1,5-2.4,6c-2.3,1-5,0-6-2.3c-1-2.3,0.1-5,2.4-6
						C335.4,176.8,338.1,177.8,339.1,180.2z M331.6,183.4c0.8,1.8,2.9,2.8,4.8,1.9c1.9-0.8,2.7-3,1.9-4.8c-0.8-1.9-2.9-2.8-4.8-2
						C331.6,179.4,330.8,181.6,331.6,183.4z"/>
					<path style="fill:#FFFFFF;" d="M344.3,182.3l-0.9,0.4l-4.3-7.6l1.1-0.7c1.4-0.8,3-1.2,4,0.6c0.7,1.2,0.3,2.4-0.8,3.2l4.3,2.1
						l-1,0.6l-4.2-2.1l-0.2,0.1L344.3,182.3z M342.1,178.2l0.2-0.1c1-0.6,1.9-1.2,1.2-2.4c-0.7-1.2-1.7-0.9-2.8-0.3l-0.2,0.1
						L342.1,178.2z"/>
				</g>
				<path style="fill:#FFFFFF;" d="M355.7,170.4c0,1-0.8,1.9-1.9,1.9c-1,0-1.9-0.8-1.9-1.9c0-1,0.8-1.9,1.9-1.9
					S355.7,169.3,355.7,170.4z"/>
				<circle style="fill:#FFFFFF;" cx="246.5" cy="170.8" r="1.9"/>
			</g>
		</g>
	</g>
	<g>
		<path style="fill:#FFFFFF;" d="M251.2,92.2c0.1,0,0.1,0,0.2,0l-0.1-0.2C251.2,92.1,251.2,92.1,251.2,92.2z"/>
		<path style="fill:#FFFFFF;" d="M266.4,55l0.1,0.1C266.4,55.1,266.4,55,266.4,55L266.4,55z"/>
		<path style="fill:#FFFFFF;" d="M243.5,47.5c0-0.6,0.7-1,1-1.6c0.3,0.4,0.7,0.9,1.2,1.4c-0.2,0.3-0.4,0.6-0.7,0.8l1.2-0.8
			c0-1.2-0.6-2.1-1.8-2.7c-1.2-0.6-2.4-0.6-3.4,0.6c-1.4,1.6-1.4,3.7-0.2,5.3l3.4-2C243.9,48.2,243.5,47.9,243.5,47.5z"/>
		<path style="fill:#FFFFFF;" d="M231.5,60.8c0.3,1.4,1.3,2.2,2.8,2.4l-2.7-4.4C231.4,59.3,231.3,60,231.5,60.8z"/>
		<path style="fill:#FFFFFF;" d="M252.5,38.4c0.7,1.3,1.4,2.7,2.1,4.1l2.3-1.3c-1.1-2.5-2.8-5-4.4-7.4c-2.2,4.1-2.1,7.5-0.6,10.4
			l1.4-0.9C252.9,41.6,252.4,39.8,252.5,38.4z"/>
		<path style="fill:#FFFFFF;" d="M288.9,49.1c0.1,0.1,0.2,0.1,0.2,0.2c-0.6,1.1-1.2,2.2-1.8,3.3l5.3-3.1c0.3-1.3,0.6-2.7,0.7-4
			c-5.8,2-9.6,5.2-10.9,10l2.2-1.3C286.1,52.4,287.6,50.8,288.9,49.1z"/>
		<path style="fill:#FFFFFF;" d="M240.4,75.5c-1.3-1.2-2.9-2.4-2.9-4.4c0-0.9,0-1.7,0.1-2.5L236,66c-0.2,0.9-0.6,1.9-0.7,2.8
			c-0.4,2.5-1.9,4.2-4,5.4c-3.2,1.8-5.4,4.4-6.7,7.9c-0.9,2.3-1.7,4.8-2.5,7.4c4.1-1.6,7.5-3.7,10.1-7.2c2.5-3.5,3.2-7.6,4-11.8
			c1.1,4.4-0.1,9.1,2.3,13.3c2.3,4.1,5.1,7.4,9.6,9.4c0-0.9,0-1.3,0-1.9c-0.3-3.4-1.2-6.5-2.7-9.4l-1.4-2.1
			C243,78.3,241.8,76.8,240.4,75.5z M233.1,76.1c-1.7,2.4-3.3,4.8-5,7.1c-0.1-0.1-0.2-0.2-0.3-0.3c1.7-2.9,3.4-5.8,5.1-8.6
			c0.2,0,0.3,0.1,0.6,0.1C233.5,74.9,233.5,75.6,233.1,76.1z M238.7,76.1c1.8,3.8,3.7,7.4,5.3,11C241,84.3,237.5,77.4,238.7,76.1z"
			/>
		<path style="fill:#FFFFFF;" d="M265.2,53c7.3,2.1,12.5,7.1,16.6,13.4c0.6,0.9,0.9,1.8,1.4,2.7c-0.9-0.3-1.6-0.9-2.2-1.4
			c-1.9-1.3-3.9-2.8-6.4-2.5c-0.7,0-1.3,0.2-2,0.6l1.9,3.3c0.3-0.9,1-1.7,1.7-1.6c1.3,0.1,1.4,1.2,1.7,2.1c-0.2,1-0.3,2.2-1.6,2.2
			l1.1,1.9c1.1-0.7,2-2,2-3.5c0-0.4,0.1-0.9,0.1-1.3c4.4,2.1,8.9,9.4,10.2,16.7c-1.8,0-3.8-0.3-5.9-0.9l1.6,2.7
			c0.8,0.2,1.4,0.4,2.2,0.7c3.1,0.8,3.1,0.7,3.5,3.9c0,0.1,0.1,0.1,0.3,0.3c0.7-0.1,1.4-0.1,2.2-0.2l0.3-0.4
			c0.1-0.1,0.2-0.2,0.3-0.3c-0.4-1.7-0.8-3.2-1.2-4.7c-1.4-4.5-3.1-9.1-4.5-13.7c-0.6-1.6-0.9-3.2-0.3-4.9l-0.8-1.4
			c-0.1,0.2-0.2,0.3-0.3,0.7c-0.2,0.8-0.4,1.4-0.7,2.3c-2-2.5-2.5-5.2-1.8-7.5l-2.4-4.1c-0.1,1.6,0,3.3,0.4,5.3
			c-2-2.1-3.9-3.9-5.7-5.9c-0.9-1-1.8-2-2.2-3.2c-0.7-1.6-1.3-3.2,0.1-5c0.1,0.6,0.1,1,0.2,1.4c0.6,1.8,1.9,2.9,3.4,2.9
			c1.3-0.1,2.8-1.2,3-2.5c0.4-1.8-0.4-3.7-2-4.3c-2.5-1.1-6.5,0.2-7.2,3.3c-0.2,1.2,0,2.7,0,4.1c-1.8-1.1-3.5-2-5.3-2.5l-2.2,1.3
			L265.2,53z M278.9,47.7c0.3,0,0.7,0.1,1,0.1c0.1,0.9,0.2,1.8,0.2,2.7c0,0.3-0.6,0.7-0.9,1.1c-0.3-0.4-1-0.9-1-1.2
			C278.3,49.3,278.6,48.6,278.9,47.7z"/>
		<path style="fill:#FFFFFF;" d="M326.7,149.1c0.2-1.2,0-2.4,0-3.7c1.3,0.8,2.7,1.3,4.1,2l2.4-1.4c-1.1-0.3-2.2-0.9-3.3-1.3
			c-6-2.9-10.1-7.6-13.3-13.4c-0.2-0.4-0.4-0.9-0.8-1.6c2,1.3,3.8,2.5,5.7,3.7c1.9,1.1,3.3,1.1,5,0l-2-3.4c-0.1,0.9-0.4,1.6-1.6,1.6
			c-0.6,0-1.2-0.9-2.1-1.7c0.9-1.1,1.3-2.3,2-2.5l-1-1.7c-0.9,0.6-1.6,1.6-1.9,3.1c-0.1,0.6-0.2,1.1-0.2,1.7
			c-4.5-1.9-10.9-12.7-10-17.1c1.9,0.2,3.7,0.6,5.4,1.1l-1.7-2.8c-0.2,0-0.3-0.1-0.6-0.1c-4.2-0.8-4.2-0.8-4.9-4.1
			c0-0.1-0.1-0.1-0.2-0.3c-0.4,0-0.9,0-1.3,0c-1.3,0-1.9,0.3-1.4,1.9c0.8,2.2,1.2,4.7,2,6.9c1.2,4,2.7,7.9,3.9,11.9
			c0.4,1.3,0.6,2.7,0.1,3.9l0.8,1.4c0.4-1,0.8-2,1.1-2.9c1.7,1.9,2.4,5,1.8,7.6l2.2,3.8c0.1-1.7,0-3.5-0.6-5.7c2,2.2,3.7,4,5.3,5.9
			c0.8,1,1.8,1.9,2.3,3c0.9,1.7,1.7,3.5,0.2,5.7c-0.1-0.7-0.2-1.2-0.3-1.7c-0.3-1.4-1.8-2.5-3-2.5c-1.4,0-2.7,0.9-3.1,2.4
			c-0.6,1.7,0.2,3.5,1.8,4.3c0.6,0.2,1,0.4,1.6,0.4l5.4-3.2C326.6,149.7,326.7,149.4,326.7,149.1z M319.8,151.3
			c-0.3-0.6-1-1.2-0.9-1.7c0.1-0.7,0.7-1.3,1.1-2c0.4,0.4,0.9,1,1.6,1.7C321,150.1,320.4,150.7,319.8,151.3z"/>
		<path style="fill:#FFFFFF;" d="M367.6,138.9c-0.1-1.4-0.8-2.4-2.2-2.8c-0.1,0-0.3,0-0.4-0.1l2.4,4.1
			C367.6,139.8,367.7,139.4,367.6,138.9z"/>
		<path style="fill:#FFFFFF;" d="M310.5,149.4c0.9-1.7,1.7-3.4,2.5-5.1l-5.9,3.4c-0.7,1.8-1.1,3.8-1.3,5.8
			c6.3-2.3,10.4-5.9,11.1-11.5l-1.3,0.8C314.6,145.6,312.7,147.6,310.5,149.4z"/>
		<path style="fill:#FFFFFF;" d="M352.8,151.4c0,1.4,0.9,2.5,2.2,3c1.4,0.4,2.7,0,3.5-1.2c0.9-1.2,1.1-3.1-0.1-4.3
			c-0.3-0.3-0.7-0.8-1.1-1.1l-4.3,2.5C352.9,150.6,352.8,150.9,352.8,151.4z M354.4,150c0.2,0,0.3,0,0.6,0c0.2,0.6,0.7,1.1,0.7,1.7
			c0,0.4-0.7,0.9-1,1.4c-0.3-0.6-0.8-1.1-0.9-1.8C353.7,150.9,354.2,150.4,354.4,150z"/>
		<path style="fill:#FFFFFF;" d="M346.6,160.4c-0.9-1.6-1.8-3.2-2.7-4.9l-2.2,1.3c1.1,2.9,3,5.5,4.8,8.2c2.7-3,2.5-6.8-0.2-10.9
			l-1.1,0.7C346.1,156.7,346.7,158.9,346.6,160.4z"/>
		<path style="fill:#FFFFFF;" d="M359.3,123.7c1.9,1.6,2.4,3.4,2.4,5.7c0,0.3,0,0.7-0.1,0.9l1.4,2.5c0.2-0.9,0.4-1.9,0.7-2.8
			c0.4-2.7,2.2-4.1,4.2-5.5c1.9-1.3,3.9-3,5-4.9c1.8-3.2,2.8-6.8,4.3-10.5c-2.8,0.7-4.9,2-6.8,3.5c-5,4-6.5,9.6-7.5,15.6
			c-0.3-1.1-0.8-2.3-0.7-3.4c0.8-5.7-1.2-10.4-4.5-14.7c-1.7-2.1-3.8-3.8-6.7-4.9c0,0.8,0,1.3,0,1.9c0.3,3.2,1,6.2,2.3,9l1.9,3.3
			C356.3,121.1,357.6,122.5,359.3,123.7z M365.6,123.2c1-1.7,2.1-3.3,3.2-5c0.7-0.9,1.4-1.8,2.1-2.5c0.1,0,0.1,0.1,0.2,0.1
			c-1.1,1.9-2.2,3.8-3.3,5.7c-0.4,0.8-0.8,1.6-1.3,2.3c-0.2,0.3-0.7,0.4-1,0.7C365.6,124.1,365.5,123.5,365.6,123.2z M360.4,123.1
			c-1.8-3.9-3.5-7.4-5.3-11.3C358,114.5,361.4,121.4,360.4,123.1z"/>
		<path style="fill:#FFFFFF;" d="M347.6,106.1c-0.1,0-0.1,0-0.2,0.1l0.2,0.3C347.7,106.4,347.6,106.3,347.6,106.1z"/>
		<path style="fill:#FFFFFF;" d="M221.1,96.7c0,1,0,1.8,0,2.7c11.6,0.2,23.3,0.3,34.9,0.6l-1.6-2.7
			C243.2,97.1,232.2,96.9,221.1,96.7z"/>
		<path style="fill:#FFFFFF;" d="M297.2,178c1,0,1.8,0,2.5,0c0.1-8.8,0.2-17.4,0.3-26.2l-2.5,1.6C297.5,161.6,297.3,169.8,297.2,178
			z"/>
		<path style="fill:#FFFFFF;" d="M301.9,30.3c0-3.2,0-6.3,0-9.6c-0.8,0-1.6,0-2.5,0c-0.1,8.4-0.2,16.9-0.3,25.3l2.7-1.6
			C301.8,39.6,301.9,34.9,301.9,30.3z"/>
		<path style="fill:#FFFFFF;" d="M298.8,85.9l-0.3-0.6c0,0.3,0,0.6,0,0.9C298.6,86.3,298.7,86.1,298.8,85.9z"/>
		<path style="fill:#FFFFFF;" d="M377.9,102c0-0.9,0-1.7,0-2.4c-0.3,0-0.6-0.1-0.8-0.1c-7.9-0.2-15.7-0.4-23.6-0.6
			c-3.4-0.1-7-0.1-10.4-0.2l1.6,2.7C355.7,101.6,366.7,101.8,377.9,102z"/>
		<path style="fill:#FFFFFF;" d="M300.7,113.6c0-1.1,0-2.1,0-3.2c-0.4,0.4-0.8,0.9-1.2,1.3L300.7,113.6z"/>
		<path style="fill:#FFFFFF;" d="M349,74.8c-0.2-0.1-0.4-0.1-0.6-0.2c-0.6,0.4-0.9,1-1.2,1.8c-0.3,0.9-0.3,1.6,0,2.2
			C348.6,77.1,349.2,75.8,349,74.8z"/>
		<path style="fill:#FFFFFF;" d="M361.2,80c-0.6,1.2-1.2,2.3-2,3.4c0.3,0,0.7,0.1,1,0.1c0.8,0.1,1.7-0.3,2.2-0.8
			c3.4-2.8,6-6.2,8-10.2c0.1-0.2,0.2-0.4,0.4-0.9c-0.4,3.2-2.3,6.4-7.4,13c2.3,1.6,5,1.4,7.6,1.6c0,0.1,0,0.3,0,0.4
			c-2.4,0-5.3,0.8-7.3-0.2c-1.8-0.9-3.8-1.1-5.7-1.6c-1.4,1.7-3.1,3.2-5.1,4.8c-0.7,0.6-1.4,1-2.2,1.6c0.3,0.2,0.7,0.4,1,0.8
			c0.6,0.4,1.4,0.8,2.1,1c2,0.6,2.9,0,3.7-2c0.2-0.8,0.4-1.6,0.9-2.1c0.6-0.8,1.2-1.4,2-2c0.1-0.1,0.8,0.3,0.8,0.3
			c-0.2,1-0.4,2-0.9,2.9c-0.4,0.9-1.1,1.8-1.6,2.7c-0.6,1.1,0,1.4,1.1,1.7c1.4,0.2,2.8,0.7,4.1,0.9c1.2,0.2,2.3,0.4,3.5,0.7
			c0.3,0,1-0.1,1-0.3c0.1-0.3,0-1-0.2-1.3c-0.6-0.7-1.4-1-1.9-1.7c-0.6-0.9-1-1.9-1.2-2.9c-0.1-0.2,0.6-0.7,0.9-1
			c0.2,0.3,0.6,0.6,0.7,0.9c1,2.4,2.9,3.9,5.2,4.7c0.8,0.2,1.7-0.1,2.7-0.2c-0.3-0.9-0.4-1.3-0.7-1.8c2.9-0.9,4-2,3.9-3.9
			c-1-0.1-2-0.1-3-0.2c1.8-1.4,2.9-2.9,3.1-5c0.1-0.8-0.3-2-1.1-1.1c-1.9,1.9-4,1-6.1,1.1c-1,0-1.4-0.3-1.1-1.6
			c0.6,0.1,1.1,0.2,1.7,0.3c2,0.4,3.5-0.2,4.8-1.8c0.3-0.3,0.3-1,0.4-1.6c-0.4,0-0.9,0-1.3,0.1c-0.3,0.1-0.7,0.2-1.4,0.4
			c1.8-1.8,2.9-3.4,2.8-5.8c-1.1,0.2-2.1,0.4-3.1,0.7c1-3.2,0.9-6.2-1.2-9.2c-0.6,1.9-1.4,3.1-3,3.5c-1.6,0.4-3.1,0.9-4.7,1.3
			c0.1-0.6,0.2-1.3,0.4-2c-1.1-0.2-1.8,0-2.9,1.1v0.1C362.9,71.2,363.3,75.2,361.2,80z"/>
		<path style="fill:#FFFFFF;" d="M252.3,124.8c-0.2-0.2-0.8-0.4-1.2-0.4c-0.1,0-0.3,0-0.4,0.1c0.6,0.3,1.1,0.6,1.7,0.8
			C252.4,125.1,252.4,124.8,252.3,124.8z"/>
		<path style="fill:#FFFFFF;" d="M250,121.8c-0.1,0.3-0.1,1-0.1,1.3c1.8-0.2,3.3-1.3,4.7-3.2c-0.8-0.2-1.6-0.6-2.2-0.8
			C251.3,120,250.4,121,250,121.8z"/>
		<path style="fill:#FFFFFF;" d="M238.9,132.6c-0.3-0.4-2-2.9-2.2-6.1c-0.1,0.1-0.2,0.1-0.3,0.2c-1.8,0.9-3.5,1.7-5.4,2.3
			c0.8-0.4,1.6-0.9,2.2-1.4c0.9-0.8,1.8-1.6,2.7-2.3c0.9-0.8,0.8-1.4,0-2.2c-1.8-1.9-3.7-3.8-5.2-5.9c-1.2-1.6-2.2-3.3-3.2-5
			c2.7,2.7,5.3,5.5,8.1,8c0.8,0.7,1.3,1.1,1.9,1.4c0.4-1.4,1-2.9,1.7-4.3c-0.4,0.3-1,0.4-1.6,0.1c-1.1-0.6-0.4-1.6-0.1-2.3
			c0.6-1.1,1.1-2.2,1.6-3.4c0.9-2.4-0.1-4.5-2.2-5.1c-0.4,2.4-1,3.4-2.2,3.9c0.1-3.3-0.7-5.2-3.2-5.4c0,1.3,0,2.7,0,3.5
			c-0.6-0.3-1.2-0.8-1.8-1.2c-1.3-1-2.7-2.1-4.3-3.4c-0.6,0.9-1.4,2-1.9,3.3c-0.8,2.3,0.2,4.4,1.3,6.7c-0.7-0.3-1.3-0.7-2.5-1.2
			c0.3,1.1,0.3,1.9,0.8,2.4c0.4,0.6,1.2,1,2,1.6c-0.8,0-1.4,0-2.1,0c0.1,1.4,1,2.3,2.1,2.7c1,0.3,2.2,0,3.3,0.2
			c0.9,0.1,1.9,0.4,2.4,1c0.4,0.4,0.2,1.4,0.2,2c-1.6-0.1-2.9-0.2-4.1-0.4c-1.3-0.2-2.5-0.8-4.3-1.3c0.4,1.7,0.4,3.2,1.2,4.3
			c1.2,1.7,3,2.4,5.2,1.9c0,0.1,0,0.3,0,0.4c-1.6,0.2-3.1,0.4-4.7,0.7c0.1,2.3,1.9,3,3.9,3.9c-0.8,0.6-1.3,0.9-1.9,1.3
			c1.1,1.7,2.4,2,4.4,0.7c1.6-1.1,2.8-2.7,4.2-3.9c0.4-0.3,1.1-0.4,1.6-0.7c-0.1,0.7,0.1,1.3-0.2,1.8c-0.6,0.9-1.4,1.4-2.1,2.2
			c-0.4,0.6-0.6,1.2-0.9,1.9c0.7,0.1,1.3,0.2,2.1,0.3c0.3,0,0.6-0.2,0.9-0.2c1.4-0.4,3-0.8,4.4-1.2
			C239.6,133.5,239.1,132.8,238.9,132.6z"/>
		<path style="fill:#FFFFFF;" d="M245.7,109.1c-0.4-0.3-1-0.7-1.7-1c-1.1-0.4-2.2-1-3.4-1.6c-1.2,1.8-0.7,3.7-0.2,5.5
			c0.2,0.9,0.2,1.8,0,2.7C241.8,112.7,243.6,110.9,245.7,109.1z"/>
		<path style="fill:#FFFFFF;" d="M335.6,60.8c-0.2-0.3-0.6-0.7-0.8-1c0.2-0.2,0.6-0.6,0.9-1c0.3,0.6,0.8,1.1,1.1,1.7
			c1.4-0.3,2.8-0.6,4.1-0.7c0.3-0.9,0.6-1.7,0.9-2.4c2.5-0.1,2.7-0.2,3.8-3.3c1.8,1.1,3.4,0.8,5.2-0.3c0.1,2.1,1.3,3.1,3,3.4
			c-0.4,1.7-0.4,2.9,0.2,3.7c0.8,0.2,1.4,0.6,2.1,0.9c1,0,1.9-0.6,2.3-1.3c0.9-1.7,0.3-2.8-2.1-4.4c0.9-1.6,0.7-3-0.6-4.3
			c-1.2-1.3-2.8-0.8-4.2-0.1c-0.2-1.8-0.8-3.2-2.4-3.9s-3.1,0-4.4,1.3c-0.6-1.8-1.7-2.8-3-2.7c-1.6,0.1-2.3,1.2-2.7,3.2
			c-1.2,0.2-2.5,0.2-3.2,0.8c-0.8,0.7-1.1,1.9-1.7,3c-3.1-0.7-5.1,1.8-4.2,5.1c-3.2-0.7-4.5,0.8-4,4.2c-1.3,0-2.5,0.4-3.3,1.1
			l1.2,2.1C328,63.4,331.9,61.8,335.6,60.8z M339.7,54.4c0,0.3,0.1,0.9,0.1,1.1c-1.1,0.3-2.2,0.6-3.3,0.9c-0.1-0.3-0.1-0.8-0.2-1.1
			C337.4,55,338.5,54.8,339.7,54.4z"/>
		<path style="fill:#FFFFFF;" d="M338.4,80.6c1.4,0,2.8-0.6,3.3-2c0.7-1.7,0.3-3-0.8-4.1c-1.9,0.6-4,1.6-6.2,2.9h0.1
			C335.1,79.2,336.1,80.6,338.4,80.6z"/>
		<path style="fill:#FFFFFF;" d="M326.6,45.6c0.1,0.1,0.1,0.3,0.2,0.4c1.2,1.9,3.1,3,5.1,0.9c1-1,2.7-1.4,4.1-2.1
			c0.4-0.2,1-0.2,1.3-0.6c0.3-0.2,0.6-0.7,0.6-1c0-0.2-0.6-0.6-0.9-0.6c-2.2,0-4.4,0.1-6.7,0c-0.6,0-1.1-0.1-1.7-0.3l0.8,1.3
			L326.6,45.6z"/>
		<path style="fill:#FFFFFF;" d="M319.5,50.3c-0.4,0.6-1.1,1.1-1.3,1.7c-0.2,0.6,0.2,1.8,0.3,1.8c1.1-0.1,2.4,0,3.2-0.6
			c1.3-1.2,2.7-2.3,4.4-2.8c0.7-0.1,1.1-0.9,1.7-1.3c-0.6-0.4-1-1-1.6-1.4c-0.4-0.4-0.9-0.8-1.3-1.1l-4.7,2.8
			C320.1,49.7,319.8,50,319.5,50.3z"/>
		<path style="fill:#FFFFFF;" d="M328.4,36.3c-0.2,1-0.7,2.1-1.3,3.2l0.9,1.6c0.2-0.2,0.7-0.4,1-0.4c0.4,0,0.9,0.3,1.3,0.2
			c0.9,0,2,0,2.5-0.4c1.8-1.2,3-3,3.5-5.2c0.1-0.3,0-0.8,0-1.2c-0.7,0.1-1.1,0.1-1.7,0.2c0-0.8,0.1-1.3,0.1-2c0-0.7,0-1.3-0.3-1.9
			c-0.3-0.8-0.8-1.4-1.2-2.2c-0.7,0.6-1.3,1.2-1.9,1.8c-0.1,0.1-0.2,0.1-0.2,0.1c-0.7-3-1.9-4.4-3.8-4.5c-0.6,1.2-1,2.4-1.7,3.5
			c-0.8,1.2-1.4,2.3-1,3.8c0.1,0.3,0.1,0.8,0,1.1c-0.1,0.3-0.3,0.7-0.6,0.9l2.1,3.5C327.1,37.6,327.7,36.9,328.4,36.3z"/>
		<path style="fill:#FFFFFF;" d="M311.6,28.5c0-0.1,0-0.3,0-0.3c1.7,2.2,3.2,4.5,5.1,6.5c0.1,0.2,0.3,0.3,0.4,0.4l5.5-3.2l0.2,0.3
			c0.1-0.2,0.2-0.3,0.3-0.6c1.2-2.2,0.6-6-1.3-7.5c-0.4,0.4-0.9,1-1.3,1.4c-1.2-2-3.3-3-5-2.3c0.4,0.8,0.9,1.6,1.6,2.7
			c-3.2-1.7-5.9-3-8.9-4.5c1.4,3.1-1.3,6.5,1.2,9.6c-0.6-0.4-1.2-0.8-1.9-1.2c-1,2.2,0.7,3.4,2.2,4.8c-0.1,0.1-0.2,0.1-0.3,0.2
			c-0.9-0.1-1.8-0.2-2.5-0.3c-0.2,2.1,1.4,4.2,3.7,4.5l5.1-3C314,33.8,312.6,31.3,311.6,28.5z"/>
		<path style="fill:#FFFFFF;" d="M306.5,39.8c-0.1,0.7-0.1,1.2,0,1.7l2.1-1.2C307.9,40.1,307.2,39.9,306.5,39.8z"/>
		<path style="fill:#FFFFFF;" d="M260.5,138.9c-0.2,0.3-0.7,0.7-0.9,1c-0.4-0.4-0.8-1-1.2-1.4c-1.8,0.3-3.4,0.4-5,0.4
			c-2.4,0-4.7-0.3-6.4-0.9c-0.3,1-0.3,2.1,0.2,2.9c0.4,0.7,1.2,1.4,1.9,1.4c1.3,0,2.7-0.4,3.9-0.8c0.8,0.6,1.8,1.4,2.7,1.7
			c1,0.1,2.2-0.6,3.3-0.9c0.8,2.8,2.8,3.5,5.9,2c0.9,2.7,2.2,3.9,4,3.8c1.7-0.1,3-1.1,3.3-2.9c0.1-0.9-0.1-1.9-0.4-2.7
			c-0.4-0.8-1.3-1.3-1.8-1.8c0.6-0.9,1.4-1.8,1.8-2.9c0.4-1.4-0.1-2.7-1-3.7c-3.8,1.8-7.3,3.1-10.8,3.8
			C260.2,138.4,260.3,138.6,260.5,138.9z M264.2,137.6c1.1,1.2,2,2.3,3,3.4c-0.2,0.1-0.7,0.4-0.9,0.7c-0.9-1.2-1.7-2.3-2.7-3.5
			C263.7,138,264.1,137.7,264.2,137.6z"/>
		<path style="fill:#FFFFFF;" d="M264.6,120.3c-3.5-0.2-5,1.4-4.8,3.9c2.3-1,4.9-2.4,7.5-4.5l-1.3-2.3
			C265.4,117.7,265,118.7,264.6,120.3z"/>
		<path style="fill:#FFFFFF;" d="M273.1,151.8c-0.1,0.1-0.2,0.3-0.4,0.4l0.4-0.3C273.1,151.9,273.1,151.8,273.1,151.8z"/>
		<path style="fill:#FFFFFF;" d="M289.9,158l-10.1,6c-0.7,0.7-1.2,1.2-2,1.8c1.9,1,3.5,1.9,5.2,2.8c-1.7,0.6-5.3-0.3-6.9-1.7
			c-0.3-0.3-0.9-0.6-1.3-0.7c-3.3-1-5.3-3.4-7-6.2c2,1.3,4,2.8,6,4c0.2,0.2,0.6,0.3,0.8,0.3l-5.2-8.9c-0.1,0.1-0.1,0.1-0.2,0.2
			c-0.2-0.2-0.8-0.6-1.2-0.9c-1.1-0.9-2-0.7-2.4,0.6c-0.6,1.4-0.8,3.1-1.2,4.9c-0.3,0-1.1-0.1-1.8,0c-0.6,0.1-1.3,0.7-1.4,1.1
			c-0.2,1.4,2.2,3.7,3.9,3.7c0.7,0,1.2-0.1,1.9-0.1c0.8-0.1,1.6,0,1.4,0.9c-0.1,0.6-0.9,1-1.4,1.2c-0.3,0.2-0.9-0.1-1.2,0.1
			c-1.1,0.4-2.3,0.8-3.3,1.4c-1,0.7-0.9,1.4,0.4,1.9c1.3,0.6,2.7,1.1,4,1.9c1.4,0.8,2.7,0.7,3.8-0.6c0.7-0.8,1.1-1.7,1.8-2.3
			c0.3-0.3,1-0.4,1.4-0.7c0.2,0.6,0.6,1.2,0.4,1.8s-0.6,1.1-1,1.6c-0.7,0.8-1.6,1.3-2.3,2.1c2,1.6,4.3,1.9,6.7,2.1
			c2.1,0.2,3.2-2.1,2.2-3.7c-0.3-0.6-0.6-1.3-0.7-2.1c0-0.3,0.3-0.7,0.6-1c0.3,0.2,0.9,0.3,0.9,0.6c0.2,0.8,0.3,1.6,0.4,2.3
			c0.2,2.1,1,2.8,3,3.1c1.7,0.2,3.2,0.7,5.1,1.1c1.1-1,0-2.3-0.1-3.2c1.3-1,2.5-1.7,3.4-2.7c1-1,0.8-1.8-0.6-2.3
			c-0.8-0.3-1.6-0.4-2.4-0.7c2.8-2.3,3.1-2.8,2.9-4.5c-2.7,0-5.3,0-8.1,0c0.7-1.3,1.6-1.3,2.7-1.1c2.8,0.7,4.9-0.3,5.5-2.5
			c-0.6-0.2-1.1-0.4-1.4-0.6c0.3-0.8,0.7-1.7,1.1-2.4L289.9,158L289.9,158z"/>
		<path style="fill:#FFFFFF;" d="M331.8,79.6l0.4,0.7c0.2-0.3,0.6-0.8,0.8-1.1C332.5,79.2,332.2,79.4,331.8,79.6z"/>
		<path style="fill:#FFFFFF;" d="M265.6,36c-1.4-0.1-2.5,0.3-3.1,1.7c0,0.1,0,0.1-0.1,0.2L265.6,36L265.6,36z"/>
		<path style="fill:#FFFFFF;" d="M272.1,32.9c-0.3-1.6-0.6-3-0.9-4.5c0.9,1.9,1.7,3.9,1.7,6l1.3,2.2c0.7-2.1,0.9-4.1,0.1-6.3
			c-0.9-2.9-2.5-4.8-5.3-5.9c0,1.8-0.2,3.4,0.1,5c0.2,1.3,0.6,2.8,1.1,4.1l1.8-1L272.1,32.9z"/>
		<path style="fill:#FFFFFF;" d="M280.6,39c3.9,2.5,8.3,3.2,12.9,3.4c-1.2-3.7-4.1-5.3-7.4-6.5c-3.4-1.2-6.7,0.2-9.9,1.4
			c1.9-1.4,3.9-2.8,6-3.7c3-1.3,5.7-3,7.4-5.8c1.2-1.9,2.2-4,3.4-6.4c-1.3,0.2-2,0.3-2.8,0.3c-6.1,0.8-10.1,4.4-12.1,10
			c-0.8,2.2-2,4-3.7,5.4l1.2,2C277.4,38.2,279.2,38,280.6,39z M281.9,36.7c2.7,0.9,5.3,1.9,8.1,2.8c0,0.1-0.1,0.3-0.1,0.4
			c-3.1-0.9-6.1-1.7-9.2-2.5c0-0.1-0.1-0.2-0.1-0.3C281,36.9,281.6,36.6,281.9,36.7z M289.5,23.5c-1.3,2.1-9.8,10-10.9,10
			C281.2,28.8,285.4,26.5,289.5,23.5z"/>
		<path style="fill:#FFFFFF;" d="M332.7,162.7c1.4,0.4,2.7,0.2,3.7-1c0.4-0.7,0.7-1.3,0.7-2.1l-4.9,2.9
			C332.3,162.6,332.5,162.6,332.7,162.7z"/>
		<path style="fill:#FFFFFF;" d="M327.8,170.3c-1-1.9-1.8-3.8-1.9-5.9l-1-1.7c-1.3,5.9,0.4,9.6,5.2,11.5c0-1.4,0.2-3.1-0.1-4.7
			c-0.3-1.8-0.8-3.5-1.6-5.2l-1.7,1C327.3,167.2,327.5,168.7,327.8,170.3z"/>
		<path style="fill:#FFFFFF;" d="M318,159.9c-1-0.6-2.1-1.3-3.2-1.6c-2.9-0.7-5.9-1.1-8.8-1.7c-0.1,0.2-0.1,0.3-0.2,0.6
			c1.4,3.2,4.2,5,7.4,6.1c3.4,1.2,6.7-0.1,9.8-1.7c-1.2,1.1-2.4,2.1-3.8,2.9c-1.9,1.1-4,2-5.9,3.1c-3.7,2.2-5.3,5.8-6.8,9.6
			c8.1-0.3,12.7-4.5,14.6-10.6c0.7-2,1.8-3.3,3.1-4.9l-1.1-1.9C321.5,161,320,161,318,159.9z M317.6,162.3c-2.9-0.6-5.8-1.4-8.2-3.2
			c3.2,0.9,6.3,1.8,9.9,2.7C318.4,162.1,318,162.4,317.6,162.3z M310.6,174.6c3.3-2.9,5.9-6.5,9.3-9.3c0.2,0.2,0.4,0.4,0.7,0.7
			C318.2,169.8,314.2,172.1,310.6,174.6z"/>
		<path style="fill:#FFFFFF;" d="M275.3,138.2c0.1,1,0.7,1.7,1.9,1.8c-1.3-1.6-1.3-3,0-3.8l-0.6-1
			C275.6,135.8,275.1,136.7,275.3,138.2z"/>
		<path style="fill:#FFFFFF;" d="M256.2,117.4c1.6-1.1,3.1-2.1,4.7-3.2c-3.3,1.7-5.5,2.9-6.4,3.4c0,0.4-0.1,0.9-0.1,1.3
			C255.1,118.2,255.7,117.7,256.2,117.4z"/>
		<path style="fill:#FFFFFF;" d="M359.3,64.4c0.4-0.4,1-1,1.3-1.6c0.7-0.9,1.1-1.9,1.8-2.9c1.8,2.4,3.3,3,5,1.9c1.6-1,2-2.9,1-4.5
			c0,0.8,0.1,1.4,0,2c-0.2,1.2-0.9,2-2.2,2.1c-1.3,0.1-2-0.7-2.2-1.8c-0.2-1.7-0.2-3.3-0.4-5c-0.2-2.2,0-4.5-0.8-6.4
			c-2.5-6.2-7.1-9.9-14-10.5c-0.6,0-1.1-0.2-1.7-0.3c0.8-2.5,0.2-4.4-1.3-5.5c-1.6-1-3-1-4.4,0.2c0.7,0,1.2,0,1.8,0
			c1.6,0.1,2.7,1.1,2.8,2.8c0.1,1.3-0.6,2.3-1.9,2.8c-0.8,0.2-1.6,0.6-2.2,0.6c-2.1,0.1-3.7,0.8-3.9,2.8c2.9-0.3,6-0.8,9-0.9
			c6-0.1,10.8,2.2,13.5,7.8c2.3,4.8,1.8,9.6-0.9,14.1c-0.3,0.7-0.8,1.1-1.2,1.7c0.2,0.2,0.4,0.4,0.7,0.7
			C359.1,64.1,359.2,64.2,359.3,64.4z"/>
		<path style="fill:#FFFFFF;" d="M253.1,154.4c4.1-0.7,9.9-5,10.4-8.2c-0.7,0.4-1.1,0.8-1.4,1.1c-1.6,1.3-2.9,2.9-4.5,4.1
			c-2.5,1.9-6.3,2.7-8.9,1.9c5.4-2.5,8.2-5.7,7.6-8.9c-1.3-0.3-1.1,0.9-1.2,1.4c-1.3,4.4-5.4,7-9.5,6.1c-4-1-6.4-5.1-5.5-9.5
			c0.3-1.6,1.1-3.1,1.7-4.5c-2.5,0.2-3.1,0.7-3.9,3c-0.2,0.7-0.4,1.4-0.8,2.1c-0.8,1.4-2.2,1.9-3.4,1.2c-1.2-0.8-1.3-1.9-0.2-3.3
			c0.1-0.1,0.1-0.2,0.1-0.6c-1.6,0.4-1.8,1.6-1.7,2.7c0.3,2.1,1.8,2.9,4.3,2.9c1,2.5,1.4,5.1,2.8,7.2c3.1,5.2,8,7.6,13.9,8.3
			c0.7,0.1,1.6,0.7,1.9,1.3c0.2,0.4,0,1.6-0.3,1.8c-0.4,0.3-1.3,0.1-2,0.1c0,0.1-0.1,0.2-0.1,0.3c0.8,0.1,1.7,0.6,2.3,0.3
			c1.9-0.6,1.3-2.3,1.6-3.8c0.9-0.1,1.7-0.2,2.4-0.3c0-0.1,0-0.3,0.1-0.4c-0.6-0.1-1-0.4-1.6-0.4c-5.8,0.2-10.8-1.4-14.7-5.8
			c-0.9-1-1.6-2.2-2.3-3.3C245.9,154.5,248.2,155.2,253.1,154.4z"/>
	</g>
</g>
</svg>
